<?xml version="1.0" encoding="utf-8"?>
<!-- Generator: Adobe Illustrator 18.1.1, SVG Export Plug-In . SVG Version: 6.00 Build 0)  -->
<!DOCTYPE svg PUBLIC "-//W3C//DTD SVG 1.1//EN" "http://www.w3.org/Graphics/SVG/1.1/DTD/svg11.dtd">
<svg version="1.1" id="Layer_1" xmlns="http://www.w3.org/2000/svg" xmlns:xlink="http://www.w3.org/1999/xlink" x="0px" y="0px"
	 width="125px" height="125px" viewBox="0 0 125 125" enable-background="new 0 0 125 125" xml:space="preserve">
<pattern  width="125" height="125" patternUnits="userSpaceOnUse" id="New_Pattern" viewBox="133.5 -259.8 125 125" overflow="visible">
	<g>
		<polygon fill="none" points="133.5,-259.8 258.5,-259.8 258.5,-134.8 133.5,-134.8 		"/>
		<g>
			<path fill="#FFCDCD" d="M254.9-49.4c3.1-0.2,4.8-2.4,7.9-5.5c4.8-4.8,11.2-6.8,21.1-8.3c6.7-1,12.5-2.6,16.9-6
				c0.5,0.9,1,1.9,1.2,2.7c1.6,5.6,0.7,8.2-3.1,10.8c-3.3,2.2-7.1,3.2-10.2,4.2c-3.3,1.1-4.8,3.7,0.4,6c8.1,3.5,20.8,0.9,26.8-4.6
				c5.8-5.3,6.4-11.7,1.6-19.1c-4.5-6.9-15.3-17-20.7-24.4c-3.6-5-6.6-1.9-5.7,3.2c0.5,2.9,2.2,6.8,4.2,10.7c-1.7,0-3.6-0.4-6.1-1.6
				c-5.3-2.6-11.8-3.7-15.6,4.6c-3.7,7.9-8.6,12.4-16,15.5c-2.9,1.2-6.1,2.2-7.3,5.3C249.1-52.9,251.2-49.2,254.9-49.4z M262.4-55.3
				c-2.5,2.6-4.3,4.8-7.4,5.2c-1.5,0.1-2.4-0.7-3-1.4c-0.7-0.9-0.9-2.5-0.5-3.7c0.7-2.2,3.8-3.6,6.6-4.7c8.1-3.2,12.4-8.4,16.1-16.5
				c1.5-2.7,3.5-4.5,5.6-5.3c2.4-1,5.3-0.4,9.1,1.5c2.5,1.2,5,1.5,6.9,1.2c1.7,3.1,3.3,6.1,4.7,8.7c-4,3.1-9.5,5.6-16.6,6.4
				C273-62.4,267.3-60.6,262.4-55.3z M253.1-127.9c0,7.8,13.6,15.9,21,18.1c4.7,1.5,7.1-0.1,4-4.1c-3.1-4-6.2-8.4-6.2-12.5
				c0-4.2,5.7-9.5,11.8-13.5c3.5-2.2,3.1-5-2.6-4.6C271.2-143.8,253.1-135.8,253.1-127.9z M253.8-127.9c0-7.6,17.7-14.8,27.2-15.5
				c3.7-0.2,4,1.4,1.7,3c-4.8,3.3-12.4,8.4-12.3,14c0.1,4.1,3.7,8.9,6.8,12.9c1.7,2.2,1,3.7-2.9,2.9
				C267.7-112.8,253.8-120.7,253.8-127.9z M297.5-15.7c4.2-0.7,5.3-3.2,0.7-5.2c-3.3-1.5-13-3.7-16.6-5c-2.2-0.7-4.8-1.9-6.4-4.5
				c-1.4-2.2-3-6.1-4.8-8.9c-2.5-3.8-5.5-3.2-6.4,1.1c-1.1,4.7-1,13.9,2.5,18.5C270.4-14.2,287.4-13.8,297.5-15.7z M297.5-20.5
				c3,1.2,3,2.9-0.2,3.7c-4.3,1.1-18.5,2-25.7-0.4c-2.7-0.9-4.3-2.7-5.5-5.3c-1.7-4-2.5-10.2-1.7-14.9c1-4,3-4,5-0.9
				c1.7,2.7,4.2,7.1,5.6,9.2c1.9,2.9,4.6,3.7,7.8,4.7C287.1-23.1,294-21.9,297.5-20.5z M296.5-79.8c-2-3.7-3.5-7.4-4-10.5
				c-0.6-4,1.5-6,4-2.6c2.6,3.5,5.8,7.7,9.4,11.4c4.3,4.6,8.3,9.3,10.8,13.1c4.5,6.8,4.2,12.5-1.4,17.7c-5.7,5.3-18.2,7.4-25.8,4.2
				c-3.5-1.5-2.9-3.5,1.1-4.3c2.7-0.6,5.8-2.2,8.4-4c4.2-2.7,5.7-6.1,3.6-12c-0.4-1-0.7-1.7-1.1-2.9c1.5-1.4,2.5-2.9,3.6-4.7
				c1.9-3,1-6.1-3.5-5.8C299.7-80,298.2-79.8,296.5-79.8z M304.3-75.1c-0.7,1.5-1.9,3-3.3,4.3c-0.7-1.7-1.6-3.6-2.6-5.6
				c-0.5-1-0.9-1.6-1.5-2.6c0.7-0.1,1.7-0.2,2.5-0.4C304.3-80.2,305.5-77.7,304.3-75.1z M302.3-116c4.7,6.1,11.3,8.3,12.2,13
				c0.9,4.8-0.9,10.2-1.5,13.8c-0.9,5,1.2,7.3,5.6,2.9c6.4-6.2,14.5-19,12.9-26c-1.4-5.8-15.9-10.7-23.1-11.9
				C299.8-125.8,299-120.3,302.3-116z M302.8-117.1c-2.2-3.3-1.2-6.8,4.8-6.2c6.9,0.7,22.2,5.8,23.3,10.9c1.4,6.6-6.7,19.6-13,25.2
				c-3.1,2.7-4.8,1.9-3.5-3.3c0.9-3.3,1.6-8.4,0.7-12.4c-0.6-3-3-5-5.7-7.2C307.6-111.7,304.3-114.8,302.8-117.1z M351.2-23.9
				c3.6-6.3,1.4-11.5-6.9-13.5c-10-2.4-27.4-3-35.7-3.8c-4.2-0.5-5.2,2.2-0.7,5c6.7,4.1,17,5.2,22.6,7.4c5.6,2.2,4,5.5,0.9,8.8
				c-3.1,3.3-2.4,6.2,2.2,6.2C340.1-13.8,347.9-18.2,351.2-23.9z M344-36.4c7.6,1.9,9.7,6.1,6.4,12c-2.9,5.2-10.3,9.4-16.7,9.4
				c-2.7,0-4.1-1.4-1.7-4.3c2.5-3.1,3.1-5.3,2.6-6.8c-0.9-3-4.7-4.1-11-5.7c-4.7-1.2-10.9-2.4-15-4.8c-3.2-2-2.7-3.6-0.1-3.5
				s6.1,0.5,10.2,0.7C326.9-38.9,337.4-38,344-36.4z M375.6-75.6c4.5-3,3.7-6.1-0.9-7.6c-4.3-1.4-10.8-1.7-14.9-4.1
				c-1.2-0.7-2.1-1.5-3.1-2.4c6.8-4,13.3-6.9,16.1-6.8c3.8,0.2,10,8.9,12,11.8c2.1,3,4.3,3.3,4.3-1.5c0-9.4-3.5-25.5-14.4-27.2
				c-6-0.9-16.6,6.3-26.8,15.4c-0.7-0.7-1.4-1.2-2-1.9c-5.8-5.1-9.1-3.6-7.6,4.6c0.2,1.5,0.7,3.1,1.5,5c-3.7,3.8-7.3,7.7-10,11.3
				c-3.3,4.5-2,6.7,2.6,4.1c1.9-1,6-3.7,10.9-6.8c2.4,5,5.6,9.2,8.7,10.7C357.9-68.4,368.1-70.6,375.6-75.6z M343.1-82.4
				c-4.1,2.6-7.4,4.7-9.8,6.2c-4.1,2.6-4.5,1.1-2.4-1.7c2.7-3.7,5.8-7.4,9.3-11.2C341-86.9,342-84.6,343.1-82.4z M340.6-91.1
				c-0.4-1.5-0.6-3-1-4.1c-1.1-6,0.6-7.8,5.3-4.1c0.7,0.6,1.5,1.4,2.2,2.1C345-95.2,342.7-93.2,340.6-91.1z M347.9-96.7
				c2.5,2.4,5,5,7.2,7.1c-3.7,2.2-7.8,4.3-11.3,6.6c-1.1-2.2-2.1-4.6-2.9-6.8C343.2-92.2,345.7-94.4,347.9-96.7z M374.8-76.6
				c-5.6,4.1-16.4,7.7-22.6,4.5c-2.9-1.5-5.8-5.6-8.1-10.2c3.7-2.2,7.7-4.6,11.7-6.8c1.1,1.1,2.4,2,3.5,2.6c5,2.7,10.9,3,15,4.1
				C377.7-81.5,378.2-79.1,374.8-76.6z M348.8-97.4c9.9-9.1,20.2-15.7,25.5-15c9.9,1.4,14.1,16.6,14,25.9c0,3.3-0.9,3.2-3.1,0.1
				c-4-5.3-8.7-10.8-12.4-11.2c-2.5-0.2-9.3,3.1-16.9,7.3C353.8-92.2,351.4-94.8,348.8-97.4z M389.1-27.4c3.5-7.1,4.5-15.4,3.7-21.1
				c-0.4-3.1-3-4.5-5.5-0.6c-2.7,4.1-3.2,9.3-11.4,15c-7.3,5.1-10.9,10.8-11,17.7c-0.1,3.8,2,4.5,5,1.7c2.6-2.9,3.8-4.7,9.2-5.2
				C383.8-20.3,387.1-23.3,389.1-27.4z M391.7-47.9c0.7,4.3,0.1,13.4-3.2,20c-2.2,4.5-4.7,6.1-9.4,6.8c-5.1,0.7-7.1,2.6-9.1,5.1
				c-2.4,3-4,2.7-4-0.2c0.1-6.2,3.5-12,10.5-17.1c6-4.3,7.6-7.1,9.1-10.4c0.6-1.5,1.6-3.8,2.5-5C389.6-50.8,391.1-51.2,391.7-47.9z"
				/>
		</g>
		<g>
			<path fill="#FFCDCD" d="M129.9-49.4c3.1-0.2,4.8-2.4,7.9-5.5c4.8-4.8,11.2-6.8,21.1-8.3c6.7-1,12.5-2.6,16.9-6
				c0.5,0.9,1,1.9,1.2,2.7c1.6,5.6,0.7,8.2-3.1,10.8c-3.3,2.2-7.1,3.2-10.2,4.2c-3.3,1.1-4.8,3.7,0.4,6c8.1,3.5,20.8,0.9,26.8-4.6
				c5.8-5.3,6.4-11.7,1.6-19.1c-4.5-6.9-15.3-17-20.7-24.4c-3.6-5-6.6-1.9-5.7,3.2c0.5,2.9,2.2,6.8,4.2,10.7c-1.7,0-3.6-0.4-6.1-1.6
				c-5.3-2.6-11.8-3.7-15.6,4.6c-3.7,7.9-8.6,12.4-16,15.5c-2.9,1.2-6.1,2.2-7.3,5.3C124.1-52.9,126.2-49.2,129.9-49.4z M137.4-55.3
				c-2.5,2.6-4.3,4.8-7.4,5.2c-1.5,0.1-2.4-0.7-3-1.4c-0.7-0.9-0.9-2.5-0.5-3.7c0.7-2.2,3.8-3.6,6.6-4.7c8.1-3.2,12.4-8.4,16.1-16.5
				c1.5-2.7,3.5-4.5,5.6-5.3c2.4-1,5.3-0.4,9.1,1.5c2.5,1.2,5,1.5,6.9,1.2c1.7,3.1,3.3,6.1,4.7,8.7c-4,3.1-9.5,5.6-16.6,6.4
				C148-62.4,142.3-60.6,137.4-55.3z M128.1-127.9c0,7.8,13.6,15.9,21,18.1c4.7,1.5,7.1-0.1,4-4.1c-3.1-4-6.2-8.4-6.2-12.5
				c0-4.2,5.7-9.5,11.8-13.5c3.5-2.2,3.1-5-2.6-4.6C146.2-143.8,128.1-135.8,128.1-127.9z M128.8-127.9c0-7.6,17.7-14.8,27.2-15.5
				c3.7-0.2,4,1.4,1.7,3c-4.8,3.3-12.4,8.4-12.3,14c0.1,4.1,3.7,8.9,6.8,12.9c1.7,2.2,1,3.7-2.9,2.9
				C142.7-112.8,128.8-120.7,128.8-127.9z M172.5-15.7c4.2-0.7,5.3-3.2,0.7-5.2c-3.3-1.5-13-3.7-16.6-5c-2.2-0.7-4.8-1.9-6.4-4.5
				c-1.4-2.2-3-6.1-4.8-8.9c-2.5-3.8-5.5-3.2-6.4,1.1c-1.1,4.7-1,13.9,2.5,18.5C145.4-14.2,162.4-13.8,172.5-15.7z M172.5-20.5
				c3,1.2,3,2.9-0.2,3.7c-4.3,1.1-18.5,2-25.7-0.4c-2.7-0.9-4.3-2.7-5.5-5.3c-1.7-4-2.5-10.2-1.7-14.9c1-4,3-4,5-0.9
				c1.7,2.7,4.2,7.1,5.6,9.2c1.9,2.9,4.6,3.7,7.8,4.7C162.1-23.1,169-21.9,172.5-20.5z M171.5-79.8c-2-3.7-3.5-7.4-4-10.5
				c-0.6-4,1.5-6,4-2.6c2.6,3.5,5.8,7.7,9.4,11.4c4.3,4.6,8.3,9.3,10.8,13.1c4.5,6.8,4.2,12.5-1.4,17.7c-5.7,5.3-18.2,7.4-25.8,4.2
				c-3.5-1.5-2.9-3.5,1.1-4.3c2.7-0.6,5.8-2.2,8.4-4c4.2-2.7,5.7-6.1,3.6-12c-0.4-1-0.7-1.7-1.1-2.9c1.5-1.4,2.5-2.9,3.6-4.7
				c1.9-3,1-6.1-3.5-5.8C174.7-80,173.2-79.8,171.5-79.8z M179.3-75.1c-0.7,1.5-1.9,3-3.3,4.3c-0.7-1.7-1.6-3.6-2.6-5.6
				c-0.5-1-0.9-1.6-1.5-2.6c0.7-0.1,1.7-0.2,2.5-0.4C179.3-80.2,180.5-77.7,179.3-75.1z M177.3-116c4.7,6.1,11.3,8.3,12.2,13
				c0.9,4.8-0.9,10.2-1.5,13.8c-0.9,5,1.2,7.3,5.6,2.9c6.4-6.2,14.5-19,12.9-26c-1.4-5.8-15.9-10.7-23.1-11.9
				C174.8-125.8,174-120.3,177.3-116z M177.8-117.1c-2.2-3.3-1.2-6.8,4.8-6.2c6.9,0.7,22.2,5.8,23.3,10.9c1.4,6.6-6.7,19.6-13,25.2
				c-3.1,2.7-4.8,1.9-3.5-3.3c0.9-3.3,1.6-8.4,0.7-12.4c-0.6-3-3-5-5.7-7.2C182.6-111.7,179.3-114.8,177.8-117.1z M226.2-23.9
				c3.6-6.3,1.4-11.5-6.9-13.5c-10-2.4-27.4-3-35.7-3.8c-4.2-0.5-5.2,2.2-0.7,5c6.7,4.1,17,5.2,22.6,7.4c5.6,2.2,4,5.5,0.9,8.8
				c-3.1,3.3-2.4,6.2,2.2,6.2C215.1-13.8,222.9-18.2,226.2-23.9z M219-36.4c7.6,1.9,9.7,6.1,6.4,12c-2.9,5.2-10.3,9.4-16.7,9.4
				c-2.7,0-4.1-1.4-1.7-4.3c2.5-3.1,3.1-5.3,2.6-6.8c-0.9-3-4.7-4.1-11-5.7c-4.7-1.2-10.9-2.4-15-4.8c-3.2-2-2.7-3.6-0.1-3.5
				s6.1,0.5,10.2,0.7C201.9-38.9,212.4-38,219-36.4z M250.6-75.6c4.5-3,3.7-6.1-0.9-7.6c-4.3-1.4-10.8-1.7-14.9-4.1
				c-1.2-0.7-2.1-1.5-3.1-2.4c6.8-4,13.3-6.9,16.1-6.8c3.8,0.2,10,8.9,12,11.8c2.1,3,4.3,3.3,4.3-1.5c0-9.4-3.5-25.5-14.4-27.2
				c-6-0.9-16.6,6.3-26.8,15.4c-0.7-0.7-1.4-1.2-2-1.9c-5.8-5.1-9.1-3.6-7.6,4.6c0.2,1.5,0.7,3.1,1.5,5c-3.7,3.8-7.3,7.7-10,11.3
				c-3.3,4.5-2,6.7,2.6,4.1c1.9-1,6-3.7,10.9-6.8c2.4,5,5.6,9.2,8.7,10.7C232.9-68.4,243.1-70.6,250.6-75.6z M218.1-82.4
				c-4.1,2.6-7.4,4.7-9.8,6.2c-4.1,2.6-4.5,1.1-2.4-1.7c2.7-3.7,5.8-7.4,9.3-11.2C216-86.9,217-84.6,218.1-82.4z M215.6-91.1
				c-0.4-1.5-0.6-3-1-4.1c-1.1-6,0.6-7.8,5.3-4.1c0.7,0.6,1.5,1.4,2.2,2.1C220-95.2,217.7-93.2,215.6-91.1z M222.9-96.7
				c2.5,2.4,5,5,7.2,7.1c-3.7,2.2-7.8,4.3-11.3,6.6c-1.1-2.2-2.1-4.6-2.9-6.8C218.2-92.2,220.7-94.4,222.9-96.7z M249.8-76.6
				c-5.6,4.1-16.4,7.7-22.6,4.5c-2.9-1.5-5.8-5.6-8.1-10.2c3.7-2.2,7.7-4.6,11.7-6.8c1.1,1.1,2.4,2,3.5,2.6c5,2.7,10.9,3,15,4.1
				C252.7-81.5,253.2-79.1,249.8-76.6z M223.8-97.4c9.9-9.1,20.2-15.7,25.5-15c9.9,1.4,14.1,16.6,14,25.9c0,3.3-0.9,3.2-3.1,0.1
				c-4-5.3-8.7-10.8-12.4-11.2c-2.5-0.2-9.3,3.1-16.9,7.3C228.8-92.2,226.4-94.8,223.8-97.4z M264.1-27.4c3.5-7.1,4.5-15.4,3.7-21.1
				c-0.4-3.1-3-4.5-5.5-0.6c-2.7,4.1-3.2,9.3-11.4,15c-7.3,5.1-10.9,10.8-11,17.7c-0.1,3.8,2,4.5,5,1.7c2.6-2.9,3.8-4.7,9.2-5.2
				C258.8-20.3,262.1-23.3,264.1-27.4z M266.7-47.9c0.7,4.3,0.1,13.4-3.2,20c-2.2,4.5-4.7,6.1-9.4,6.8c-5.1,0.7-7.1,2.6-9.1,5.1
				c-2.4,3-4,2.7-4-0.2c0.1-6.2,3.5-12,10.5-17.1c6-4.3,7.6-7.1,9.1-10.4c0.6-1.5,1.6-3.8,2.5-5C264.6-50.8,266.1-51.2,266.7-47.9z"
				/>
			<path fill="#CCC2B8" d="M136.1-106.7c-4.8,6.2,0.1,26.8,7.6,33.1c5.1,4.3,8.3,1.5,7.2-4.2c-1.1-5.8-3.5-14.9-1.7-17.2
				c3-4.1,17.7-0.7,28.9-2.7c5.5-1,7.6-4.6,0.7-6.8C168.7-108,141.5-113.7,136.1-106.7z M144.1-74.7c-7.2-6.1-11.9-25.9-7.3-31.6
				c4.7-6,30.8-1.1,41.7,3c4.1,1.5,4.1,3.7-0.4,4.6c-4.3,0.9-10.3,0.5-14.9,0.4c-7.2-0.1-12.8,0-14.9,3c-1.9,2.6-0.4,11.3,0.7,15.9
				C150.8-72.5,148-71.5,144.1-74.7z M164.8-134.6c-12.2,1-19.7,6.3-23.4,12.3c-2.9,4.6-1,6.2,3.7,5.1c5-1.1,11.4-5.8,19.3-1.6
				c7.4,4,10.5,3.1,15.5-4.5c3.8-5.8,7.8-9.9,14.3-12.4c4.5-1.7,7.8-3.5,8.8-6.4c0.9-2.6-0.4-5-2.9-5.3c-2.9-0.4-5.3,0.6-9.3,3.8
				C183.9-138,176.2-135.6,164.8-134.6z M142.1-121c3.7-7.3,12-11.7,22.9-12.5c11.5-0.9,19-3.7,26-9.4c4-3.2,6.4-4.2,8.7-4.1
				c1.9,0.1,3,1.7,2.2,4.1c-1,3.1-5.1,4.7-8.6,6.1c-6.4,2.6-9.7,6.4-14,13c-4.7,7.2-6.8,7.6-13.9,3.8c-6.6-3.5-12-1-16.6,0.7
				C143-117,140.7-118,142.1-121z M197.2-5.4c5.5-24.4-3-59.1-20.2-62.2c-12.9-2.4-25.8,17.4-28.8,32.1c-1.5,7.3,1.4,8.2,5.6,4.5
				s16.4-11.9,22.7-9.7c7.4,2.6,9.9,24.2,12.4,35.5C190.3,1,195.5,2.5,197.2-5.4z M183.2-64.1c12.2,9.4,17.4,36.5,13,57.3
				c-1.5,7.1-5.3,7.2-6.8,0.2c-1-4.3-2.2-14-3.8-20.7c-1.6-6.8-4.1-13.5-10-14.6c-6.8-1.2-18.2,6-22.7,9.8c-3.6,3.1-4.6,1.6-3.7-3.3
				c1.9-10.9,10.5-24.6,19.6-29.5C173.4-67.5,178.7-67.5,183.2-64.1z M258.7-64.6c5.6,0.9,7.9-2.4,3.8-6.3
				c-6.4-6.2-22.9-18.8-30.9-17.7c-3.2,0.5-6.8,4.2-10.2,10.5c-0.5,1-0.9,2.1-1.2,3c-6.3-6.1-10.3-11.3-12.2-19.2
				c-1.2-5.2-1.7-8.2-4.5-9.9c-3-1.9-7.2-0.7-8.3,2.9c-1,3,0.7,6.6,2.6,9.8c3.3,5.8,3.8,12.5,3,20.7c-1.4,12.4-0.7,15.6,7.9,18.4
				s10.2,9.3,13.4,13.6c5.2,7.1,10.9,6.8,12.4-2.2c1.5-9.1-0.4-18.1-6.2-25.7c1.2-2,2.9-3.5,5-4.2C239.5-72.7,251.1-65.7,258.7-64.6
				z M227.8-65.9c5.2,7.4,6.8,16.4,5.3,24.8c-0.6,3.8-2,5.8-3.8,6.1c-1.9,0.2-4.8-1.1-8.7-7.7c-2.4-4.1-4.6-8.8-11.7-11.2
				c-8.1-2.6-8.7-5-7.3-17c1.1-9.4,0.9-15.7-2.6-21.2c-3.6-5.7-3-10.5,0.1-11.8c1.4-0.5,2.9-0.2,3.8,0.4c2.6,1.6,3.1,5.1,4.1,9.9
				c1.9,9.2,7.1,14.4,12.8,19.6c-2.2,5.3-2.6,11-0.7,15.7c1.4,3.3,3.3,3.5,5-0.4C225-60.7,226.2-63.5,227.8-65.9z M204.1-119.2
				c-1.6,5.2,1,8.1,5.5,4.1c4.3-3.8,9.2-10.2,14-9.7c6.8,0.6,11.8,13.1,15.5,17.6c2.5,3.1,6.4,3.6,5.6-2.6
				c-1.5-11.3-11.9-31.4-21-31.4C216.2-141.2,206.7-128.5,204.1-119.2z M210.3-117.3c-4,4.2-6.3,2.9-5.2-1.5
				c2.2-8.8,11.7-21.5,18.6-21.7c8.2-0.2,18.5,19.3,19.8,30.7c0.4,3.6-1.5,4.1-3.6,1.7c-1.2-1.4-2.2-3.3-3.5-5.3
				c-3.3-5.5-7.3-11.9-12.9-12.3C219.4-125.8,214.6-121.7,210.3-117.3z M250-54.6c-0.5-6.1-4.1-6.4-6.4,0.6
				c-2.9,8.7-1.9,24.6-7.6,27.7c-3.7,2-10-0.4-15.5-1.6c-6.3-1.5-8.8,0.9-5.2,6.3c3.7,5.7,14,11.4,21.5,12.5
				c8.3,1.2,12.9-3.1,14.4-10.8C253.7-32.9,250.9-43.4,250-54.6z M250-45.6c0.9,7.9,2.2,16,0.4,25.4c-1.5,7.7-6.1,11-13.3,10
				c-7.2-1-16.9-6.1-21-11.5c-3.1-4.1-1.2-6.7,4.1-5.5c5,1.1,11.8,3.7,16.1,1.5c4-2.1,5.3-9.1,6.2-17.1c0.4-4,0.7-8.8,1.9-11.7
				c1.7-4.6,4.1-4.8,4.5-0.2C249.2-51.7,249.4-48.3,250-45.6z M219.9-58.9c-1.9-4.2-1.5-9.1,0.7-14.4c0.5,0.5,1.2,1.1,1.9,1.6
				c1.9,1.5,3.3,3.2,4.6,4.8c-1.5,2.4-2.7,4.8-3.7,7.1C221.9-56.3,220.8-56.8,219.9-58.9z M261.3-70.6c3,2.9,2.6,5.5-2.1,5
				c-7.7-0.9-19-7.9-26-6c-2.2,0.6-3.8,2.2-5.3,4.1c-1.1-1.2-2.4-2.6-3.7-3.7c-1.2-1-2-2-3.1-3.1c0.4-1,0.7-1.9,1.2-2.7
				c1.7-3.2,4.1-6.4,5.8-8.2c2.4-2.4,4.7-3,8.3-2C244.8-84.8,256.3-75.4,261.3-70.6z"/>
		</g>
		<g>
			<path fill="#FFCDCD" d="M4.9-49.4c3.1-0.2,4.8-2.4,7.9-5.5c4.8-4.8,11.2-6.8,21.1-8.3c6.7-1,12.5-2.6,16.9-6
				c0.5,0.9,1,1.9,1.2,2.7c1.6,5.6,0.7,8.2-3.1,10.8c-3.3,2.2-7.1,3.2-10.2,4.2c-3.3,1.1-4.8,3.7,0.4,6C47.2-42,60-44.6,65.9-50
				c5.8-5.3,6.4-11.7,1.6-19.1c-4.5-6.9-15.3-17-20.7-24.4c-3.6-5-6.6-1.9-5.7,3.2c0.5,2.9,2.2,6.8,4.2,10.7c-1.7,0-3.6-0.4-6.1-1.6
				C34-83.9,27.5-85,23.7-76.7c-3.7,7.9-8.6,12.4-16,15.5C4.8-60,1.6-59,0.4-55.9C-0.9-52.9,1.2-49.2,4.9-49.4z M12.4-55.3
				C9.9-52.6,8-50.4,4.9-50c-1.5,0.1-2.4-0.7-3-1.4c-0.7-0.9-0.9-2.5-0.5-3.7c0.7-2.2,3.8-3.6,6.6-4.7c8.1-3.2,12.4-8.4,16.1-16.5
				c1.5-2.7,3.5-4.5,5.6-5.3c2.4-1,5.3-0.4,9.1,1.5c2.5,1.2,5,1.5,6.9,1.2c1.7,3.1,3.3,6.1,4.7,8.7c-4,3.1-9.5,5.6-16.6,6.4
				C23-62.4,17.3-60.6,12.4-55.3z M3.1-127.9c0,7.8,13.6,15.9,21,18.1c4.7,1.5,7.1-0.1,4-4.1c-3.1-4-6.2-8.4-6.2-12.5
				c0-4.2,5.7-9.5,11.8-13.5c3.5-2.2,3.1-5-2.6-4.6C21.2-143.8,3.1-135.8,3.1-127.9z M3.8-127.9c0-7.6,17.7-14.8,27.2-15.5
				c3.7-0.2,4,1.4,1.7,3c-4.8,3.3-12.4,8.4-12.3,14c0.1,4.1,3.7,8.9,6.8,12.9c1.7,2.2,1,3.7-2.9,2.9C17.7-112.8,3.8-120.7,3.8-127.9
				z M47.5-15.7c4.2-0.7,5.3-3.2,0.7-5.2c-3.3-1.5-13-3.7-16.6-5c-2.2-0.7-4.8-1.9-6.4-4.5c-1.4-2.2-3-6.1-4.8-8.9
				c-2.5-3.8-5.5-3.2-6.4,1.1c-1.1,4.7-1,13.9,2.5,18.5C20.4-14.2,37.4-13.8,47.5-15.7z M47.5-20.5c3,1.2,3,2.9-0.2,3.7
				c-4.3,1.1-18.5,2-25.7-0.4c-2.7-0.9-4.3-2.7-5.5-5.3c-1.7-4-2.5-10.2-1.7-14.9c1-4,3-4,5-0.9c1.7,2.7,4.2,7.1,5.6,9.2
				c1.9,2.9,4.6,3.7,7.8,4.7C37.1-23.1,44-21.9,47.5-20.5z M46.5-79.8c-2-3.7-3.5-7.4-4-10.5c-0.6-4,1.5-6,4-2.6
				c2.6,3.5,5.8,7.7,9.4,11.4c4.3,4.6,8.3,9.3,10.8,13.1c4.5,6.8,4.2,12.5-1.4,17.7c-5.7,5.3-18.2,7.4-25.8,4.2
				c-3.5-1.5-2.9-3.5,1.1-4.3c2.7-0.6,5.8-2.2,8.4-4c4.2-2.7,5.7-6.1,3.6-12c-0.4-1-0.7-1.7-1.1-2.9c1.5-1.4,2.5-2.9,3.6-4.7
				c1.9-3,1-6.1-3.5-5.8C49.7-80,48.2-79.8,46.5-79.8z M54.3-75.1c-0.7,1.5-1.9,3-3.3,4.3c-0.7-1.7-1.6-3.6-2.6-5.6
				c-0.5-1-0.9-1.6-1.5-2.6c0.7-0.1,1.7-0.2,2.5-0.4C54.3-80.2,55.5-77.7,54.3-75.1z M52.3-116c4.7,6.1,11.3,8.3,12.2,13
				c0.9,4.8-0.9,10.2-1.5,13.8c-0.9,5,1.2,7.3,5.6,2.9c6.4-6.2,14.5-19,12.9-26c-1.4-5.8-15.9-10.7-23.1-11.9
				C49.8-125.8,49-120.3,52.3-116z M52.8-117.1c-2.2-3.3-1.2-6.8,4.8-6.2c6.9,0.7,22.2,5.8,23.3,10.9c1.4,6.6-6.7,19.6-13,25.2
				c-3.1,2.7-4.8,1.9-3.5-3.3c0.9-3.3,1.6-8.4,0.7-12.4c-0.6-3-3-5-5.7-7.2C57.6-111.7,54.3-114.8,52.8-117.1z M101.2-23.9
				c3.6-6.3,1.4-11.5-6.9-13.5c-10-2.4-27.4-3-35.7-3.8c-4.2-0.5-5.2,2.2-0.7,5c6.7,4.1,17,5.2,22.6,7.4c5.6,2.2,4,5.5,0.9,8.8
				c-3.1,3.3-2.4,6.2,2.2,6.2C90.1-13.8,97.9-18.2,101.2-23.9z M94-36.4c7.6,1.9,9.7,6.1,6.4,12C97.6-19.2,90.1-15,83.7-15
				c-2.7,0-4.1-1.4-1.7-4.3c2.5-3.1,3.1-5.3,2.6-6.8c-0.9-3-4.7-4.1-11-5.7c-4.7-1.2-10.9-2.4-15-4.8c-3.2-2-2.7-3.6-0.1-3.5
				s6.1,0.5,10.2,0.7C76.9-38.9,87.4-38,94-36.4z M125.6-75.6c4.5-3,3.7-6.1-0.9-7.6c-4.3-1.4-10.8-1.7-14.9-4.1
				c-1.2-0.7-2.1-1.5-3.1-2.4c6.8-4,13.3-6.9,16.1-6.8c3.8,0.2,10,8.9,12,11.8c2.1,3,4.3,3.3,4.3-1.5c0-9.4-3.5-25.5-14.4-27.2
				c-6-0.9-16.6,6.3-26.8,15.4c-0.7-0.7-1.4-1.2-2-1.9c-5.8-5.1-9.1-3.6-7.6,4.6c0.2,1.5,0.7,3.1,1.5,5c-3.7,3.8-7.3,7.7-10,11.3
				c-3.3,4.5-2,6.7,2.6,4.1c1.9-1,6-3.7,10.9-6.8c2.4,5,5.6,9.2,8.7,10.7C107.9-68.4,118.1-70.6,125.6-75.6z M93.1-82.4
				c-4.1,2.6-7.4,4.7-9.8,6.2c-4.1,2.6-4.5,1.1-2.4-1.7c2.7-3.7,5.8-7.4,9.3-11.2C91-86.9,92-84.6,93.1-82.4z M90.6-91.1
				c-0.4-1.5-0.6-3-1-4.1c-1.1-6,0.6-7.8,5.3-4.1c0.7,0.6,1.5,1.4,2.2,2.1C95-95.2,92.7-93.2,90.6-91.1z M97.9-96.7
				c2.5,2.4,5,5,7.2,7.1c-3.7,2.2-7.8,4.3-11.3,6.6c-1.1-2.2-2.1-4.6-2.9-6.8C93.2-92.2,95.7-94.4,97.9-96.7z M124.8-76.6
				c-5.6,4.1-16.4,7.7-22.6,4.5c-2.9-1.5-5.8-5.6-8.1-10.2c3.7-2.2,7.7-4.6,11.7-6.8c1.1,1.1,2.4,2,3.5,2.6c5,2.7,10.9,3,15,4.1
				C127.7-81.5,128.2-79.1,124.8-76.6z M98.8-97.4c9.9-9.1,20.2-15.7,25.5-15c9.9,1.4,14.1,16.6,14,25.9c0,3.3-0.9,3.2-3.1,0.1
				c-4-5.3-8.7-10.8-12.4-11.2c-2.5-0.2-9.3,3.1-16.9,7.3C103.8-92.2,101.4-94.8,98.8-97.4z M139.1-27.4c3.5-7.1,4.5-15.4,3.7-21.1
				c-0.4-3.1-3-4.5-5.5-0.6c-2.7,4.1-3.2,9.3-11.4,15c-7.3,5.1-10.9,10.8-11,17.7c-0.1,3.8,2,4.5,5,1.7c2.6-2.9,3.8-4.7,9.2-5.2
				C133.8-20.3,137.1-23.3,139.1-27.4z M141.7-47.9c0.7,4.3,0.1,13.4-3.2,20c-2.2,4.5-4.7,6.1-9.4,6.8c-5.1,0.7-7.1,2.6-9.1,5.1
				c-2.4,3-4,2.7-4-0.2c0.1-6.2,3.5-12,10.5-17.1c6-4.3,7.6-7.1,9.1-10.4c0.6-1.5,1.6-3.8,2.5-5C139.6-50.8,141.1-51.2,141.7-47.9z"
				/>
			<path fill="#CCC2B8" d="M11.1-106.7c-4.8,6.2,0.1,26.8,7.6,33.1c5.1,4.3,8.3,1.5,7.2-4.2c-1.1-5.8-3.5-14.9-1.7-17.2
				c3-4.1,17.7-0.7,28.9-2.7c5.5-1,7.6-4.6,0.7-6.8C43.7-108,16.5-113.7,11.1-106.7z M19.1-74.7c-7.2-6.1-11.9-25.9-7.3-31.6
				c4.7-6,30.8-1.1,41.7,3c4.1,1.5,4.1,3.7-0.4,4.6c-4.3,0.9-10.3,0.5-14.9,0.4c-7.2-0.1-12.8,0-14.9,3c-1.9,2.6-0.4,11.3,0.7,15.9
				C25.8-72.5,23-71.5,19.1-74.7z M39.8-134.6c-12.2,1-19.7,6.3-23.4,12.3c-2.9,4.6-1,6.2,3.7,5.1c5-1.1,11.4-5.8,19.3-1.6
				c7.4,4,10.5,3.1,15.5-4.5c3.8-5.8,7.8-9.9,14.3-12.4c4.5-1.7,7.8-3.5,8.8-6.4c0.9-2.6-0.4-5-2.9-5.3c-2.9-0.4-5.3,0.6-9.3,3.8
				C58.9-138,51.2-135.6,39.8-134.6z M17.1-121c3.7-7.3,12-11.7,22.9-12.5c11.5-0.9,19-3.7,26-9.4c4-3.2,6.4-4.2,8.7-4.1
				c1.9,0.1,3,1.7,2.2,4.1c-1,3.1-5.1,4.7-8.6,6.1c-6.4,2.6-9.7,6.4-14,13c-4.7,7.2-6.8,7.6-13.9,3.8c-6.6-3.5-12-1-16.6,0.7
				C18-117,15.7-118,17.1-121z M72.2-5.4c5.5-24.4-3-59.1-20.2-62.2C39.1-70,26.2-50.3,23.2-35.6c-1.5,7.3,1.4,8.2,5.6,4.5
				S45.2-43,51.5-40.8c7.4,2.6,9.9,24.2,12.4,35.5C65.3,1,70.5,2.5,72.2-5.4z M58.2-64.1c12.2,9.4,17.4,36.5,13,57.3
				c-1.5,7.1-5.3,7.2-6.8,0.2c-1-4.3-2.2-14-3.8-20.7c-1.6-6.8-4.1-13.5-10-14.6c-6.8-1.2-18.2,6-22.7,9.8c-3.6,3.1-4.6,1.6-3.7-3.3
				C26-46.3,34.6-60,43.7-64.9C48.4-67.5,53.7-67.5,58.2-64.1z M133.7-64.6c5.6,0.9,7.9-2.4,3.8-6.3c-6.4-6.2-22.9-18.8-30.9-17.7
				c-3.2,0.5-6.8,4.2-10.2,10.5c-0.5,1-0.9,2.1-1.2,3C88.9-81.2,85-86.4,83.1-94.3c-1.2-5.2-1.7-8.2-4.5-9.9c-3-1.9-7.2-0.7-8.3,2.9
				c-1,3,0.7,6.6,2.6,9.8c3.3,5.8,3.8,12.5,3,20.7c-1.4,12.4-0.7,15.6,7.9,18.4S94-43.2,97.2-38.9c5.2,7.1,10.9,6.8,12.4-2.2
				c1.5-9.1-0.4-18.1-6.2-25.7c1.2-2,2.9-3.5,5-4.2C114.5-72.7,126.1-65.7,133.7-64.6z M102.8-65.9c5.2,7.4,6.8,16.4,5.3,24.8
				c-0.6,3.8-2,5.8-3.8,6.1c-1.9,0.2-4.8-1.1-8.7-7.7C93.3-46.8,91-51.5,84-53.9c-8.1-2.6-8.7-5-7.3-17c1.1-9.4,0.9-15.7-2.6-21.2
				c-3.6-5.7-3-10.5,0.1-11.8c1.4-0.5,2.9-0.2,3.8,0.4c2.6,1.6,3.1,5.1,4.1,9.9C84-84.4,89.2-79.2,94.9-74c-2.2,5.3-2.6,11-0.7,15.7
				c1.4,3.3,3.3,3.5,5-0.4C100-60.7,101.2-63.5,102.8-65.9z M79.1-119.2c-1.6,5.2,1,8.1,5.5,4.1c4.3-3.8,9.2-10.2,14-9.7
				c6.8,0.6,11.8,13.1,15.5,17.6c2.5,3.1,6.4,3.6,5.6-2.6c-1.5-11.3-11.9-31.4-21-31.4C91.2-141.2,81.7-128.5,79.1-119.2z
				 M85.3-117.3c-4,4.2-6.3,2.9-5.2-1.5c2.2-8.8,11.7-21.5,18.6-21.7c8.2-0.2,18.5,19.3,19.8,30.7c0.4,3.6-1.5,4.1-3.6,1.7
				c-1.2-1.4-2.2-3.3-3.5-5.3c-3.3-5.5-7.3-11.9-12.9-12.3C94.4-125.8,89.6-121.7,85.3-117.3z M125-54.6c-0.5-6.1-4.1-6.4-6.4,0.6
				c-2.9,8.7-1.9,24.6-7.6,27.7c-3.7,2-10-0.4-15.5-1.6c-6.3-1.5-8.8,0.9-5.2,6.3c3.7,5.7,14,11.4,21.5,12.5
				c8.3,1.2,12.9-3.1,14.4-10.8C128.7-32.9,125.9-43.4,125-54.6z M125-45.6c0.9,7.9,2.2,16,0.4,25.4c-1.5,7.7-6.1,11-13.3,10
				c-7.2-1-16.9-6.1-21-11.5c-3.1-4.1-1.2-6.7,4.1-5.5c5,1.1,11.8,3.7,16.1,1.5c4-2.1,5.3-9.1,6.2-17.1c0.4-4,0.7-8.8,1.9-11.7
				c1.7-4.6,4.1-4.8,4.5-0.2C124.2-51.7,124.4-48.3,125-45.6z M94.9-58.9c-1.9-4.2-1.5-9.1,0.7-14.4c0.5,0.5,1.2,1.1,1.9,1.6
				c1.9,1.5,3.3,3.2,4.6,4.8c-1.5,2.4-2.7,4.8-3.7,7.1C96.9-56.3,95.8-56.8,94.9-58.9z M136.3-70.6c3,2.9,2.6,5.5-2.1,5
				c-7.7-0.9-19-7.9-26-6c-2.2,0.6-3.8,2.2-5.3,4.1c-1.1-1.2-2.4-2.6-3.7-3.7c-1.2-1-2-2-3.1-3.1c0.4-1,0.7-1.9,1.2-2.7
				c1.7-3.2,4.1-6.4,5.8-8.2c2.4-2.4,4.7-3,8.3-2C119.8-84.8,131.3-75.4,136.3-70.6z"/>
		</g>
		<g>
			<path fill="#FFCDCD" d="M254.9-174.4c3.1-0.2,4.8-2.4,7.9-5.5c4.8-4.8,11.2-6.8,21.1-8.3c6.7-1,12.5-2.6,16.9-6
				c0.5,0.9,1,1.9,1.2,2.7c1.6,5.6,0.7,8.2-3.1,10.8c-3.3,2.2-7.1,3.2-10.2,4.2c-3.3,1.1-4.8,3.7,0.4,6c8.1,3.5,20.8,0.9,26.8-4.6
				c5.8-5.3,6.4-11.7,1.6-19.1c-4.5-6.9-15.3-17-20.7-24.4c-3.6-5-6.6-1.9-5.7,3.2c0.5,2.9,2.2,6.8,4.2,10.7c-1.7,0-3.6-0.4-6.1-1.6
				c-5.3-2.6-11.8-3.7-15.6,4.6c-3.7,7.9-8.6,12.4-16,15.5c-2.9,1.2-6.1,2.2-7.3,5.3C249.1-177.9,251.2-174.2,254.9-174.4z
				 M262.4-180.3c-2.5,2.6-4.3,4.8-7.4,5.2c-1.5,0.1-2.4-0.7-3-1.4c-0.7-0.9-0.9-2.5-0.5-3.7c0.7-2.2,3.8-3.6,6.6-4.7
				c8.1-3.2,12.4-8.4,16.1-16.5c1.5-2.7,3.5-4.5,5.6-5.3c2.4-1,5.3-0.4,9.1,1.5c2.5,1.2,5,1.5,6.9,1.2c1.7,3.1,3.3,6.1,4.7,8.7
				c-4,3.1-9.5,5.6-16.6,6.4C273-187.4,267.3-185.6,262.4-180.3z M253.1-252.9c0,7.8,13.6,15.9,21,18.1c4.7,1.5,7.1-0.1,4-4.1
				c-3.1-4-6.2-8.4-6.2-12.5c0-4.2,5.7-9.5,11.8-13.5c3.5-2.2,3.1-5-2.6-4.6C271.2-268.8,253.1-260.8,253.1-252.9z M253.8-252.9
				c0-7.6,17.7-14.8,27.2-15.5c3.7-0.2,4,1.4,1.7,3c-4.8,3.3-12.4,8.4-12.3,14c0.1,4.1,3.7,8.9,6.8,12.9c1.7,2.2,1,3.7-2.9,2.9
				C267.7-237.8,253.8-245.7,253.8-252.9z M297.5-140.7c4.2-0.7,5.3-3.2,0.7-5.2c-3.3-1.5-13-3.7-16.6-5c-2.2-0.7-4.8-1.9-6.4-4.5
				c-1.4-2.2-3-6.1-4.8-8.9c-2.5-3.8-5.5-3.2-6.4,1.1c-1.1,4.7-1,13.9,2.5,18.5C270.4-139.2,287.4-138.8,297.5-140.7z M297.5-145.5
				c3,1.2,3,2.9-0.2,3.7c-4.3,1.1-18.5,2-25.7-0.4c-2.7-0.9-4.3-2.7-5.5-5.3c-1.7-4-2.5-10.2-1.7-14.9c1-4,3-4,5-0.9
				c1.7,2.7,4.2,7.1,5.6,9.2c1.9,2.9,4.6,3.7,7.8,4.7C287.1-148.1,294-146.9,297.5-145.5z M296.5-204.8c-2-3.7-3.5-7.4-4-10.5
				c-0.6-4,1.5-6,4-2.6c2.6,3.5,5.8,7.7,9.4,11.4c4.3,4.6,8.3,9.3,10.8,13.1c4.5,6.8,4.2,12.5-1.4,17.7c-5.7,5.3-18.2,7.4-25.8,4.2
				c-3.5-1.5-2.9-3.5,1.1-4.3c2.7-0.6,5.8-2.2,8.4-4c4.2-2.7,5.7-6.1,3.6-12c-0.4-1-0.7-1.7-1.1-2.9c1.5-1.4,2.5-2.9,3.6-4.7
				c1.9-3,1-6.1-3.5-5.8C299.7-205,298.2-204.8,296.5-204.8z M304.3-200.1c-0.7,1.5-1.9,3-3.3,4.3c-0.7-1.7-1.6-3.6-2.6-5.6
				c-0.5-1-0.9-1.6-1.5-2.6c0.7-0.1,1.7-0.2,2.5-0.4C304.3-205.2,305.5-202.7,304.3-200.1z M302.3-241c4.7,6.1,11.3,8.3,12.2,13
				c0.9,4.8-0.9,10.2-1.5,13.8c-0.9,5,1.2,7.3,5.6,2.9c6.4-6.2,14.5-19,12.9-26c-1.4-5.8-15.9-10.7-23.1-11.9
				C299.8-250.8,299-245.3,302.3-241z M302.8-242.1c-2.2-3.3-1.2-6.8,4.8-6.2c6.9,0.7,22.2,5.8,23.3,10.9c1.4,6.6-6.7,19.6-13,25.2
				c-3.1,2.7-4.8,1.9-3.5-3.3c0.9-3.3,1.6-8.4,0.7-12.4c-0.6-3-3-5-5.7-7.2C307.6-236.7,304.3-239.8,302.8-242.1z M351.2-148.9
				c3.6-6.3,1.4-11.5-6.9-13.5c-10-2.4-27.4-3-35.7-3.8c-4.2-0.5-5.2,2.2-0.7,5c6.7,4.1,17,5.2,22.6,7.4c5.6,2.2,4,5.5,0.9,8.8
				c-3.1,3.3-2.4,6.2,2.2,6.2C340.1-138.8,347.9-143.2,351.2-148.9z M344-161.4c7.6,1.9,9.7,6.1,6.4,12c-2.9,5.2-10.3,9.4-16.7,9.4
				c-2.7,0-4.1-1.4-1.7-4.3c2.5-3.1,3.1-5.3,2.6-6.8c-0.9-3-4.7-4.1-11-5.7c-4.7-1.2-10.9-2.4-15-4.8c-3.2-2-2.7-3.6-0.1-3.5
				s6.1,0.5,10.2,0.7C326.9-163.9,337.4-163,344-161.4z M375.6-200.6c4.5-3,3.7-6.1-0.9-7.6c-4.3-1.4-10.8-1.7-14.9-4.1
				c-1.2-0.7-2.1-1.5-3.1-2.4c6.8-4,13.3-6.9,16.1-6.8c3.8,0.2,10,8.9,12,11.8c2.1,3,4.3,3.3,4.3-1.5c0-9.4-3.5-25.5-14.4-27.2
				c-6-0.9-16.6,6.3-26.8,15.4c-0.7-0.7-1.4-1.2-2-1.9c-5.8-5.1-9.1-3.6-7.6,4.6c0.2,1.5,0.7,3.1,1.5,5c-3.7,3.8-7.3,7.7-10,11.3
				c-3.3,4.5-2,6.7,2.6,4.1c1.9-1,6-3.7,10.9-6.8c2.4,5,5.6,9.2,8.7,10.7C357.9-193.4,368.1-195.6,375.6-200.6z M343.1-207.4
				c-4.1,2.6-7.4,4.7-9.8,6.2c-4.1,2.6-4.5,1.1-2.4-1.7c2.7-3.7,5.8-7.4,9.3-11.2C341-211.9,342-209.6,343.1-207.4z M340.6-216.1
				c-0.4-1.5-0.6-3-1-4.1c-1.1-6,0.6-7.8,5.3-4.1c0.7,0.6,1.5,1.4,2.2,2.1C345-220.2,342.7-218.2,340.6-216.1z M347.9-221.7
				c2.5,2.4,5,5,7.2,7.1c-3.7,2.2-7.8,4.3-11.3,6.6c-1.1-2.2-2.1-4.6-2.9-6.8C343.2-217.2,345.7-219.4,347.9-221.7z M374.8-201.6
				c-5.6,4.1-16.4,7.7-22.6,4.5c-2.9-1.5-5.8-5.6-8.1-10.2c3.7-2.2,7.7-4.6,11.7-6.8c1.1,1.1,2.4,2,3.5,2.6c5,2.7,10.9,3,15,4.1
				C377.7-206.5,378.2-204.1,374.8-201.6z M348.8-222.4c9.9-9.1,20.2-15.7,25.5-15c9.9,1.4,14.1,16.6,14,25.9c0,3.3-0.9,3.2-3.1,0.1
				c-4-5.3-8.7-10.8-12.4-11.2c-2.5-0.2-9.3,3.1-16.9,7.3C353.8-217.2,351.4-219.8,348.8-222.4z M389.1-152.4
				c3.5-7.1,4.5-15.4,3.7-21.1c-0.4-3.1-3-4.5-5.5-0.6c-2.7,4.1-3.2,9.3-11.4,15c-7.3,5.1-10.9,10.8-11,17.7c-0.1,3.8,2,4.5,5,1.7
				c2.6-2.9,3.8-4.7,9.2-5.2C383.8-145.3,387.1-148.3,389.1-152.4z M391.7-172.9c0.7,4.3,0.1,13.4-3.2,20c-2.2,4.5-4.7,6.1-9.4,6.8
				c-5.1,0.7-7.1,2.6-9.1,5.1c-2.4,3-4,2.7-4-0.2c0.1-6.2,3.5-12,10.5-17.1c6-4.3,7.6-7.1,9.1-10.4c0.6-1.5,1.6-3.8,2.5-5
				C389.6-175.8,391.1-176.2,391.7-172.9z"/>
		</g>
		<g>
			<path fill="#FFCDCD" d="M129.9-174.4c3.1-0.2,4.8-2.4,7.9-5.5c4.8-4.8,11.2-6.8,21.1-8.3c6.7-1,12.5-2.6,16.9-6
				c0.5,0.9,1,1.9,1.2,2.7c1.6,5.6,0.7,8.2-3.1,10.8c-3.3,2.2-7.1,3.2-10.2,4.2c-3.3,1.1-4.8,3.7,0.4,6c8.1,3.5,20.8,0.9,26.8-4.6
				c5.8-5.3,6.4-11.7,1.6-19.1c-4.5-6.9-15.3-17-20.7-24.4c-3.6-5-6.6-1.9-5.7,3.2c0.5,2.9,2.2,6.8,4.2,10.7c-1.7,0-3.6-0.4-6.1-1.6
				c-5.3-2.6-11.8-3.7-15.6,4.6c-3.7,7.9-8.6,12.4-16,15.5c-2.9,1.2-6.1,2.2-7.3,5.3C124.1-177.9,126.2-174.2,129.9-174.4z
				 M137.4-180.3c-2.5,2.6-4.3,4.8-7.4,5.2c-1.5,0.1-2.4-0.7-3-1.4c-0.7-0.9-0.9-2.5-0.5-3.7c0.7-2.2,3.8-3.6,6.6-4.7
				c8.1-3.2,12.4-8.4,16.1-16.5c1.5-2.7,3.5-4.5,5.6-5.3c2.4-1,5.3-0.4,9.1,1.5c2.5,1.2,5,1.5,6.9,1.2c1.7,3.1,3.3,6.1,4.7,8.7
				c-4,3.1-9.5,5.6-16.6,6.4C148-187.4,142.3-185.6,137.4-180.3z M128.1-252.9c0,7.8,13.6,15.9,21,18.1c4.7,1.5,7.1-0.1,4-4.1
				c-3.1-4-6.2-8.4-6.2-12.5c0-4.2,5.7-9.5,11.8-13.5c3.5-2.2,3.1-5-2.6-4.6C146.2-268.8,128.1-260.8,128.1-252.9z M128.8-252.9
				c0-7.6,17.7-14.8,27.2-15.5c3.7-0.2,4,1.4,1.7,3c-4.8,3.3-12.4,8.4-12.3,14c0.1,4.1,3.7,8.9,6.8,12.9c1.7,2.2,1,3.7-2.9,2.9
				C142.7-237.8,128.8-245.7,128.8-252.9z M172.5-140.7c4.2-0.7,5.3-3.2,0.7-5.2c-3.3-1.5-13-3.7-16.6-5c-2.2-0.7-4.8-1.9-6.4-4.5
				c-1.4-2.2-3-6.1-4.8-8.9c-2.5-3.8-5.5-3.2-6.4,1.1c-1.1,4.7-1,13.9,2.5,18.5C145.4-139.2,162.4-138.8,172.5-140.7z M172.5-145.5
				c3,1.2,3,2.9-0.2,3.7c-4.3,1.1-18.5,2-25.7-0.4c-2.7-0.9-4.3-2.7-5.5-5.3c-1.7-4-2.5-10.2-1.7-14.9c1-4,3-4,5-0.9
				c1.7,2.7,4.2,7.1,5.6,9.2c1.9,2.9,4.6,3.7,7.8,4.7C162.1-148.1,169-146.9,172.5-145.5z M171.5-204.8c-2-3.7-3.5-7.4-4-10.5
				c-0.6-4,1.5-6,4-2.6c2.6,3.5,5.8,7.7,9.4,11.4c4.3,4.6,8.3,9.3,10.8,13.1c4.5,6.8,4.2,12.5-1.4,17.7c-5.7,5.3-18.2,7.4-25.8,4.2
				c-3.5-1.5-2.9-3.5,1.1-4.3c2.7-0.6,5.8-2.2,8.4-4c4.2-2.7,5.7-6.1,3.6-12c-0.4-1-0.7-1.7-1.1-2.9c1.5-1.4,2.5-2.9,3.6-4.7
				c1.9-3,1-6.1-3.5-5.8C174.7-205,173.2-204.8,171.5-204.8z M179.3-200.1c-0.7,1.5-1.9,3-3.3,4.3c-0.7-1.7-1.6-3.6-2.6-5.6
				c-0.5-1-0.9-1.6-1.5-2.6c0.7-0.1,1.7-0.2,2.5-0.4C179.3-205.2,180.5-202.7,179.3-200.1z M177.3-241c4.7,6.1,11.3,8.3,12.2,13
				c0.9,4.8-0.9,10.2-1.5,13.8c-0.9,5,1.2,7.3,5.6,2.9c6.4-6.2,14.5-19,12.9-26c-1.4-5.8-15.9-10.7-23.1-11.9
				C174.8-250.8,174-245.3,177.3-241z M177.8-242.1c-2.2-3.3-1.2-6.8,4.8-6.2c6.9,0.7,22.2,5.8,23.3,10.9c1.4,6.6-6.7,19.6-13,25.2
				c-3.1,2.7-4.8,1.9-3.5-3.3c0.9-3.3,1.6-8.4,0.7-12.4c-0.6-3-3-5-5.7-7.2C182.6-236.7,179.3-239.8,177.8-242.1z M226.2-148.9
				c3.6-6.3,1.4-11.5-6.9-13.5c-10-2.4-27.4-3-35.7-3.8c-4.2-0.5-5.2,2.2-0.7,5c6.7,4.1,17,5.2,22.6,7.4c5.6,2.2,4,5.5,0.9,8.8
				c-3.1,3.3-2.4,6.2,2.2,6.2C215.1-138.8,222.9-143.2,226.2-148.9z M219-161.4c7.6,1.9,9.7,6.1,6.4,12c-2.9,5.2-10.3,9.4-16.7,9.4
				c-2.7,0-4.1-1.4-1.7-4.3c2.5-3.1,3.1-5.3,2.6-6.8c-0.9-3-4.7-4.1-11-5.7c-4.7-1.2-10.9-2.4-15-4.8c-3.2-2-2.7-3.6-0.1-3.5
				s6.1,0.5,10.2,0.7C201.9-163.9,212.4-163,219-161.4z M250.6-200.6c4.5-3,3.7-6.1-0.9-7.6c-4.3-1.4-10.8-1.7-14.9-4.1
				c-1.2-0.7-2.1-1.5-3.1-2.4c6.8-4,13.3-6.9,16.1-6.8c3.8,0.2,10,8.9,12,11.8c2.1,3,4.3,3.3,4.3-1.5c0-9.4-3.5-25.5-14.4-27.2
				c-6-0.9-16.6,6.3-26.8,15.4c-0.7-0.7-1.4-1.2-2-1.9c-5.8-5.1-9.1-3.6-7.6,4.6c0.2,1.5,0.7,3.1,1.5,5c-3.7,3.8-7.3,7.7-10,11.3
				c-3.3,4.5-2,6.7,2.6,4.1c1.9-1,6-3.7,10.9-6.8c2.4,5,5.6,9.2,8.7,10.7C232.9-193.4,243.1-195.6,250.6-200.6z M218.1-207.4
				c-4.1,2.6-7.4,4.7-9.8,6.2c-4.1,2.6-4.5,1.1-2.4-1.7c2.7-3.7,5.8-7.4,9.3-11.2C216-211.9,217-209.6,218.1-207.4z M215.6-216.1
				c-0.4-1.5-0.6-3-1-4.1c-1.1-6,0.6-7.8,5.3-4.1c0.7,0.6,1.5,1.4,2.2,2.1C220-220.2,217.7-218.2,215.6-216.1z M222.9-221.7
				c2.5,2.4,5,5,7.2,7.1c-3.7,2.2-7.8,4.3-11.3,6.6c-1.1-2.2-2.1-4.6-2.9-6.8C218.2-217.2,220.7-219.4,222.9-221.7z M249.8-201.6
				c-5.6,4.1-16.4,7.7-22.6,4.5c-2.9-1.5-5.8-5.6-8.1-10.2c3.7-2.2,7.7-4.6,11.7-6.8c1.1,1.1,2.4,2,3.5,2.6c5,2.7,10.9,3,15,4.1
				C252.7-206.5,253.2-204.1,249.8-201.6z M223.8-222.4c9.9-9.1,20.2-15.7,25.5-15c9.9,1.4,14.1,16.6,14,25.9c0,3.3-0.9,3.2-3.1,0.1
				c-4-5.3-8.7-10.8-12.4-11.2c-2.5-0.2-9.3,3.1-16.9,7.3C228.8-217.2,226.4-219.8,223.8-222.4z M264.1-152.4
				c3.5-7.1,4.5-15.4,3.7-21.1c-0.4-3.1-3-4.5-5.5-0.6c-2.7,4.1-3.2,9.3-11.4,15c-7.3,5.1-10.9,10.8-11,17.7c-0.1,3.8,2,4.5,5,1.7
				c2.6-2.9,3.8-4.7,9.2-5.2C258.8-145.3,262.1-148.3,264.1-152.4z M266.7-172.9c0.7,4.3,0.1,13.4-3.2,20c-2.2,4.5-4.7,6.1-9.4,6.8
				c-5.1,0.7-7.1,2.6-9.1,5.1c-2.4,3-4,2.7-4-0.2c0.1-6.2,3.5-12,10.5-17.1c6-4.3,7.6-7.1,9.1-10.4c0.6-1.5,1.6-3.8,2.5-5
				C264.6-175.8,266.1-176.2,266.7-172.9z"/>
			<path fill="#CCC2B8" d="M136.1-231.7c-4.8,6.2,0.1,26.8,7.6,33.1c5.1,4.3,8.3,1.5,7.2-4.2c-1.1-5.8-3.5-14.9-1.7-17.2
				c3-4.1,17.7-0.7,28.9-2.7c5.5-1,7.6-4.6,0.7-6.8C168.7-233,141.5-238.7,136.1-231.7z M144.1-199.7c-7.2-6.1-11.9-25.9-7.3-31.6
				c4.7-6,30.8-1.1,41.7,3c4.1,1.5,4.1,3.7-0.4,4.6c-4.3,0.9-10.3,0.5-14.9,0.4c-7.2-0.1-12.8,0-14.9,3c-1.9,2.6-0.4,11.3,0.7,15.9
				C150.8-197.5,148-196.5,144.1-199.7z M164.8-259.6c-12.2,1-19.7,6.3-23.4,12.3c-2.9,4.6-1,6.2,3.7,5.1c5-1.1,11.4-5.8,19.3-1.6
				c7.4,4,10.5,3.1,15.5-4.5c3.8-5.8,7.8-9.9,14.3-12.4c4.5-1.7,7.8-3.5,8.8-6.4c0.9-2.6-0.4-5-2.9-5.3c-2.9-0.4-5.3,0.6-9.3,3.8
				C183.9-263,176.2-260.6,164.8-259.6z M142.1-246c3.7-7.3,12-11.7,22.9-12.5c11.5-0.9,19-3.7,26-9.4c4-3.2,6.4-4.2,8.7-4.1
				c1.9,0.1,3,1.7,2.2,4.1c-1,3.1-5.1,4.7-8.6,6.1c-6.4,2.6-9.7,6.4-14,13c-4.7,7.2-6.8,7.6-13.9,3.8c-6.6-3.5-12-1-16.6,0.7
				C143-242,140.7-243,142.1-246z M197.2-130.4c5.5-24.4-3-59.1-20.2-62.2c-12.9-2.4-25.8,17.4-28.8,32.1c-1.5,7.3,1.4,8.2,5.6,4.5
				s16.4-11.9,22.7-9.7c7.4,2.6,9.9,24.2,12.4,35.5C190.3-124,195.5-122.5,197.2-130.4z M183.2-189.1c12.2,9.4,17.4,36.5,13,57.3
				c-1.5,7.1-5.3,7.2-6.8,0.2c-1-4.3-2.2-14-3.8-20.7c-1.6-6.8-4.1-13.5-10-14.6c-6.8-1.2-18.2,6-22.7,9.8c-3.6,3.1-4.6,1.6-3.7-3.3
				c1.9-10.9,10.5-24.6,19.6-29.5C173.4-192.5,178.7-192.5,183.2-189.1z M258.7-189.6c5.6,0.9,7.9-2.4,3.8-6.3
				c-6.4-6.2-22.9-18.8-30.9-17.7c-3.2,0.5-6.8,4.2-10.2,10.5c-0.5,1-0.9,2.1-1.2,3c-6.3-6.1-10.3-11.3-12.2-19.2
				c-1.2-5.2-1.7-8.2-4.5-9.9c-3-1.9-7.2-0.7-8.3,2.9c-1,3,0.7,6.6,2.6,9.8c3.3,5.8,3.8,12.5,3,20.7c-1.4,12.4-0.7,15.6,7.9,18.4
				s10.2,9.3,13.4,13.6c5.2,7.1,10.9,6.8,12.4-2.2c1.5-9.1-0.4-18.1-6.2-25.7c1.2-2,2.9-3.5,5-4.2
				C239.5-197.7,251.1-190.7,258.7-189.6z M227.8-190.9c5.2,7.4,6.8,16.4,5.3,24.8c-0.6,3.8-2,5.8-3.8,6.1c-1.9,0.2-4.8-1.1-8.7-7.7
				c-2.4-4.1-4.6-8.8-11.7-11.2c-8.1-2.6-8.7-5-7.3-17c1.1-9.4,0.9-15.7-2.6-21.2c-3.6-5.7-3-10.5,0.1-11.8c1.4-0.5,2.9-0.2,3.8,0.4
				c2.6,1.6,3.1,5.1,4.1,9.9c1.9,9.2,7.1,14.4,12.8,19.6c-2.2,5.3-2.6,11-0.7,15.7c1.4,3.3,3.3,3.5,5-0.4
				C225-185.7,226.2-188.5,227.8-190.9z M204.1-244.2c-1.6,5.2,1,8.1,5.5,4.1c4.3-3.8,9.2-10.2,14-9.7c6.8,0.6,11.8,13.1,15.5,17.6
				c2.5,3.1,6.4,3.6,5.6-2.6c-1.5-11.3-11.9-31.4-21-31.4C216.2-266.2,206.7-253.5,204.1-244.2z M210.3-242.3
				c-4,4.2-6.3,2.9-5.2-1.5c2.2-8.8,11.7-21.5,18.6-21.7c8.2-0.2,18.5,19.3,19.8,30.8c0.4,3.6-1.5,4.1-3.6,1.7
				c-1.2-1.4-2.2-3.3-3.5-5.3c-3.3-5.5-7.3-11.9-12.9-12.3C219.4-250.8,214.6-246.7,210.3-242.3z M250-179.6
				c-0.5-6.1-4.1-6.4-6.4,0.6c-2.9,8.7-1.9,24.6-7.6,27.7c-3.7,2-10-0.4-15.5-1.6c-6.3-1.5-8.8,0.9-5.2,6.3
				c3.7,5.7,14,11.4,21.5,12.5c8.3,1.2,12.9-3.1,14.4-10.8C253.7-157.9,250.9-168.4,250-179.6z M250-170.6c0.9,7.9,2.2,16,0.4,25.4
				c-1.5,7.7-6.1,11-13.3,10c-7.2-1-16.9-6.1-21-11.5c-3.1-4.1-1.2-6.7,4.1-5.5c5,1.1,11.8,3.7,16.1,1.5c4-2.1,5.3-9.1,6.2-17.1
				c0.4-4,0.7-8.8,1.9-11.7c1.7-4.6,4.1-4.8,4.5-0.2C249.2-176.7,249.4-173.3,250-170.6z M219.9-183.9c-1.9-4.2-1.5-9.1,0.7-14.4
				c0.5,0.5,1.2,1.1,1.9,1.6c1.9,1.5,3.3,3.2,4.6,4.8c-1.5,2.4-2.7,4.8-3.7,7.1C221.9-181.3,220.8-181.8,219.9-183.9z M261.3-195.6
				c3,2.9,2.6,5.5-2.1,5c-7.7-0.9-19-7.9-26-6c-2.2,0.6-3.8,2.2-5.3,4.1c-1.1-1.2-2.4-2.6-3.7-3.7c-1.2-1-2-2-3.1-3.1
				c0.4-1,0.7-1.9,1.2-2.7c1.7-3.2,4.1-6.4,5.8-8.2c2.4-2.4,4.7-3,8.3-2C244.8-209.8,256.3-200.4,261.3-195.6z"/>
		</g>
		<g>
			<path fill="#FFCDCD" d="M4.9-174.4c3.1-0.2,4.8-2.4,7.9-5.5c4.8-4.8,11.2-6.8,21.1-8.3c6.7-1,12.5-2.6,16.9-6
				c0.5,0.9,1,1.9,1.2,2.7c1.6,5.6,0.7,8.2-3.1,10.8c-3.3,2.2-7.1,3.2-10.2,4.2c-3.3,1.1-4.8,3.7,0.4,6c8.1,3.5,20.8,0.9,26.8-4.6
				c5.8-5.3,6.4-11.7,1.6-19.1c-4.5-6.9-15.3-17-20.7-24.4c-3.6-5-6.6-1.9-5.7,3.2c0.5,2.9,2.2,6.8,4.2,10.7c-1.7,0-3.6-0.4-6.1-1.6
				c-5.3-2.6-11.8-3.7-15.6,4.6c-3.7,7.9-8.6,12.4-16,15.5c-2.9,1.2-6.1,2.2-7.3,5.3C-0.9-177.9,1.2-174.2,4.9-174.4z M12.4-180.3
				c-2.5,2.6-4.3,4.8-7.4,5.2c-1.5,0.1-2.4-0.7-3-1.4c-0.7-0.9-0.9-2.5-0.5-3.7c0.7-2.2,3.8-3.6,6.6-4.7c8.1-3.2,12.4-8.4,16.1-16.5
				c1.5-2.7,3.5-4.5,5.6-5.3c2.4-1,5.3-0.4,9.1,1.5c2.5,1.2,5,1.5,6.9,1.2c1.7,3.1,3.3,6.1,4.7,8.7c-4,3.1-9.5,5.6-16.6,6.4
				C23-187.4,17.3-185.6,12.4-180.3z M3.1-252.9c0,7.8,13.6,15.9,21,18.1c4.7,1.5,7.1-0.1,4-4.1c-3.1-4-6.2-8.4-6.2-12.5
				c0-4.2,5.7-9.5,11.8-13.5c3.5-2.2,3.1-5-2.6-4.6C21.2-268.8,3.1-260.8,3.1-252.9z M3.8-252.9c0-7.6,17.7-14.8,27.2-15.5
				c3.7-0.2,4,1.4,1.7,3c-4.8,3.3-12.4,8.4-12.3,14c0.1,4.1,3.7,8.9,6.8,12.9c1.7,2.2,1,3.7-2.9,2.9C17.7-237.8,3.8-245.7,3.8-252.9
				z M47.5-140.7c4.2-0.7,5.3-3.2,0.7-5.2c-3.3-1.5-13-3.7-16.6-5c-2.2-0.7-4.8-1.9-6.4-4.5c-1.4-2.2-3-6.1-4.8-8.9
				c-2.5-3.8-5.5-3.2-6.4,1.1c-1.1,4.7-1,13.9,2.5,18.5C20.4-139.2,37.4-138.8,47.5-140.7z M47.5-145.5c3,1.2,3,2.9-0.2,3.7
				c-4.3,1.1-18.5,2-25.7-0.4c-2.7-0.9-4.3-2.7-5.5-5.3c-1.7-4-2.5-10.2-1.7-14.9c1-4,3-4,5-0.9c1.7,2.7,4.2,7.1,5.6,9.2
				c1.9,2.9,4.6,3.7,7.8,4.7C37.1-148.1,44-146.9,47.5-145.5z M46.5-204.8c-2-3.7-3.5-7.4-4-10.5c-0.6-4,1.5-6,4-2.6
				c2.6,3.5,5.8,7.7,9.4,11.4c4.3,4.6,8.3,9.3,10.8,13.1c4.5,6.8,4.2,12.5-1.4,17.7c-5.7,5.3-18.2,7.4-25.8,4.2
				c-3.5-1.5-2.9-3.5,1.1-4.3c2.7-0.6,5.8-2.2,8.4-4c4.2-2.7,5.7-6.1,3.6-12c-0.4-1-0.7-1.7-1.1-2.9c1.5-1.4,2.5-2.9,3.6-4.7
				c1.9-3,1-6.1-3.5-5.8C49.7-205,48.2-204.8,46.5-204.8z M54.3-200.1c-0.7,1.5-1.9,3-3.3,4.3c-0.7-1.7-1.6-3.6-2.6-5.6
				c-0.5-1-0.9-1.6-1.5-2.6c0.7-0.1,1.7-0.2,2.5-0.4C54.3-205.2,55.5-202.7,54.3-200.1z M52.3-241c4.7,6.1,11.3,8.3,12.2,13
				c0.9,4.8-0.9,10.2-1.5,13.8c-0.9,5,1.2,7.3,5.6,2.9c6.4-6.2,14.5-19,12.9-26c-1.4-5.8-15.9-10.7-23.1-11.9
				C49.8-250.8,49-245.3,52.3-241z M52.8-242.1c-2.2-3.3-1.2-6.8,4.8-6.2c6.9,0.7,22.2,5.8,23.3,10.9c1.4,6.6-6.7,19.6-13,25.2
				c-3.1,2.7-4.8,1.9-3.5-3.3c0.9-3.3,1.6-8.4,0.7-12.4c-0.6-3-3-5-5.7-7.2C57.6-236.7,54.3-239.8,52.8-242.1z M101.2-148.9
				c3.6-6.3,1.4-11.5-6.9-13.5c-10-2.4-27.4-3-35.7-3.8c-4.2-0.5-5.2,2.2-0.7,5c6.7,4.1,17,5.2,22.6,7.4c5.6,2.2,4,5.5,0.9,8.8
				c-3.1,3.3-2.4,6.2,2.2,6.2C90.1-138.8,97.9-143.2,101.2-148.9z M94-161.4c7.6,1.9,9.7,6.1,6.4,12c-2.9,5.2-10.3,9.4-16.7,9.4
				c-2.7,0-4.1-1.4-1.7-4.3c2.5-3.1,3.1-5.3,2.6-6.8c-0.9-3-4.7-4.1-11-5.7c-4.7-1.2-10.9-2.4-15-4.8c-3.2-2-2.7-3.6-0.1-3.5
				s6.1,0.5,10.2,0.7C76.9-163.9,87.4-163,94-161.4z M125.6-200.6c4.5-3,3.7-6.1-0.9-7.6c-4.3-1.4-10.8-1.7-14.9-4.1
				c-1.2-0.7-2.1-1.5-3.1-2.4c6.8-4,13.3-6.9,16.1-6.8c3.8,0.2,10,8.9,12,11.8c2.1,3,4.3,3.3,4.3-1.5c0-9.4-3.5-25.5-14.4-27.2
				c-6-0.9-16.6,6.3-26.8,15.4c-0.7-0.7-1.4-1.2-2-1.9c-5.8-5.1-9.1-3.6-7.6,4.6c0.2,1.5,0.7,3.1,1.5,5c-3.7,3.8-7.3,7.7-10,11.3
				c-3.3,4.5-2,6.7,2.6,4.1c1.9-1,6-3.7,10.9-6.8c2.4,5,5.6,9.2,8.7,10.7C107.9-193.4,118.1-195.6,125.6-200.6z M93.1-207.4
				c-4.1,2.6-7.4,4.7-9.8,6.2c-4.1,2.6-4.5,1.1-2.4-1.7c2.7-3.7,5.8-7.4,9.3-11.2C91-211.9,92-209.6,93.1-207.4z M90.6-216.1
				c-0.4-1.5-0.6-3-1-4.1c-1.1-6,0.6-7.8,5.3-4.1c0.7,0.6,1.5,1.4,2.2,2.1C95-220.2,92.7-218.2,90.6-216.1z M97.9-221.7
				c2.5,2.4,5,5,7.2,7.1c-3.7,2.2-7.8,4.3-11.3,6.6c-1.1-2.2-2.1-4.6-2.9-6.8C93.2-217.2,95.7-219.4,97.9-221.7z M124.8-201.6
				c-5.6,4.1-16.4,7.7-22.6,4.5c-2.9-1.5-5.8-5.6-8.1-10.2c3.7-2.2,7.7-4.6,11.7-6.8c1.1,1.1,2.4,2,3.5,2.6c5,2.7,10.9,3,15,4.1
				C127.7-206.5,128.2-204.1,124.8-201.6z M98.8-222.4c9.9-9.1,20.2-15.7,25.5-15c9.9,1.4,14.1,16.6,14,25.9c0,3.3-0.9,3.2-3.1,0.1
				c-4-5.3-8.7-10.8-12.4-11.2c-2.5-0.2-9.3,3.1-16.9,7.3C103.8-217.2,101.4-219.8,98.8-222.4z M139.1-152.4
				c3.5-7.1,4.5-15.4,3.7-21.1c-0.4-3.1-3-4.5-5.5-0.6c-2.7,4.1-3.2,9.3-11.4,15c-7.3,5.1-10.9,10.8-11,17.7c-0.1,3.8,2,4.5,5,1.7
				c2.6-2.9,3.8-4.7,9.2-5.2C133.8-145.3,137.1-148.3,139.1-152.4z M141.7-172.9c0.7,4.3,0.1,13.4-3.2,20c-2.2,4.5-4.7,6.1-9.4,6.8
				c-5.1,0.7-7.1,2.6-9.1,5.1c-2.4,3-4,2.7-4-0.2c0.1-6.2,3.5-12,10.5-17.1c6-4.3,7.6-7.1,9.1-10.4c0.6-1.5,1.6-3.8,2.5-5
				C139.6-175.8,141.1-176.2,141.7-172.9z"/>
			<path fill="#CCC2B8" d="M11.1-231.7c-4.8,6.2,0.1,26.8,7.6,33.1c5.1,4.3,8.3,1.5,7.2-4.2c-1.1-5.8-3.5-14.9-1.7-17.2
				c3-4.1,17.7-0.7,28.9-2.7c5.5-1,7.6-4.6,0.7-6.8C43.7-233,16.5-238.7,11.1-231.7z M19.1-199.7c-7.2-6.1-11.9-25.9-7.3-31.6
				c4.7-6,30.8-1.1,41.7,3c4.1,1.5,4.1,3.7-0.4,4.6c-4.3,0.9-10.3,0.5-14.9,0.4c-7.2-0.1-12.8,0-14.9,3c-1.9,2.6-0.4,11.3,0.7,15.9
				C25.8-197.5,23-196.5,19.1-199.7z M39.8-259.6c-12.2,1-19.7,6.3-23.4,12.3c-2.9,4.6-1,6.2,3.7,5.1c5-1.1,11.4-5.8,19.3-1.6
				c7.4,4,10.5,3.1,15.5-4.5c3.8-5.8,7.8-9.9,14.3-12.4c4.5-1.7,7.8-3.5,8.8-6.4c0.9-2.6-0.4-5-2.9-5.3c-2.9-0.4-5.3,0.6-9.3,3.8
				C58.9-263,51.2-260.6,39.8-259.6z M17.1-246c3.7-7.3,12-11.7,22.9-12.5c11.5-0.9,19-3.7,26-9.4c4-3.2,6.4-4.2,8.7-4.1
				c1.9,0.1,3,1.7,2.2,4.1c-1,3.1-5.1,4.7-8.6,6.1c-6.4,2.6-9.7,6.4-14,13c-4.7,7.2-6.8,7.6-13.9,3.8c-6.6-3.5-12-1-16.6,0.7
				C18-242,15.7-243,17.1-246z M72.2-130.4c5.5-24.4-3-59.1-20.2-62.2c-12.9-2.4-25.8,17.4-28.8,32.1c-1.5,7.3,1.4,8.2,5.6,4.5
				s16.4-11.9,22.7-9.7c7.4,2.6,9.9,24.2,12.4,35.5C65.3-124,70.5-122.5,72.2-130.4z M58.2-189.1c12.2,9.4,17.4,36.5,13,57.3
				c-1.5,7.1-5.3,7.2-6.8,0.2c-1-4.3-2.2-14-3.8-20.7c-1.6-6.8-4.1-13.5-10-14.6c-6.8-1.2-18.2,6-22.7,9.8c-3.6,3.1-4.6,1.6-3.7-3.3
				c1.9-10.9,10.5-24.6,19.6-29.5C48.4-192.5,53.7-192.5,58.2-189.1z M133.7-189.6c5.6,0.9,7.9-2.4,3.8-6.3
				c-6.4-6.2-22.9-18.8-30.9-17.7c-3.2,0.5-6.8,4.2-10.2,10.5c-0.5,1-0.9,2.1-1.2,3c-6.3-6.1-10.3-11.3-12.2-19.2
				c-1.2-5.2-1.7-8.2-4.5-9.9c-3-1.9-7.2-0.7-8.3,2.9c-1,3,0.7,6.6,2.6,9.8c3.3,5.8,3.8,12.5,3,20.7c-1.4,12.4-0.7,15.6,7.9,18.4
				s10.2,9.3,13.4,13.6c5.2,7.1,10.9,6.8,12.4-2.2c1.5-9.1-0.4-18.1-6.2-25.7c1.2-2,2.9-3.5,5-4.2
				C114.5-197.7,126.1-190.7,133.7-189.6z M102.8-190.9c5.2,7.4,6.8,16.4,5.3,24.8c-0.6,3.8-2,5.8-3.8,6.1c-1.9,0.2-4.8-1.1-8.7-7.7
				c-2.4-4.1-4.6-8.8-11.7-11.2c-8.1-2.6-8.7-5-7.3-17c1.1-9.4,0.9-15.7-2.6-21.2c-3.6-5.7-3-10.5,0.1-11.8c1.4-0.5,2.9-0.2,3.8,0.4
				c2.6,1.6,3.1,5.1,4.1,9.9c1.9,9.2,7.1,14.4,12.8,19.6c-2.2,5.3-2.6,11-0.7,15.7c1.4,3.3,3.3,3.5,5-0.4
				C100-185.7,101.2-188.5,102.8-190.9z M79.1-244.2c-1.6,5.2,1,8.1,5.5,4.1c4.3-3.8,9.2-10.2,14-9.7c6.8,0.6,11.8,13.1,15.5,17.6
				c2.5,3.1,6.4,3.6,5.6-2.6c-1.5-11.3-11.9-31.4-21-31.4C91.2-266.2,81.7-253.5,79.1-244.2z M85.3-242.3c-4,4.2-6.3,2.9-5.2-1.5
				c2.2-8.8,11.7-21.5,18.6-21.7c8.2-0.2,18.5,19.3,19.8,30.8c0.4,3.6-1.5,4.1-3.6,1.7c-1.2-1.4-2.2-3.3-3.5-5.3
				c-3.3-5.5-7.3-11.9-12.9-12.3C94.4-250.8,89.6-246.7,85.3-242.3z M125-179.6c-0.5-6.1-4.1-6.4-6.4,0.6
				c-2.9,8.7-1.9,24.6-7.6,27.7c-3.7,2-10-0.4-15.5-1.6c-6.3-1.5-8.8,0.9-5.2,6.3c3.7,5.7,14,11.4,21.5,12.5
				c8.3,1.2,12.9-3.1,14.4-10.8C128.7-157.9,125.9-168.4,125-179.6z M125-170.6c0.9,7.9,2.2,16,0.4,25.4c-1.5,7.7-6.1,11-13.3,10
				c-7.2-1-16.9-6.1-21-11.5c-3.1-4.1-1.2-6.7,4.1-5.5c5,1.1,11.8,3.7,16.1,1.5c4-2.1,5.3-9.1,6.2-17.1c0.4-4,0.7-8.8,1.9-11.7
				c1.7-4.6,4.1-4.8,4.5-0.2C124.2-176.7,124.4-173.3,125-170.6z M94.9-183.9c-1.9-4.2-1.5-9.1,0.7-14.4c0.5,0.5,1.2,1.1,1.9,1.6
				c1.9,1.5,3.3,3.2,4.6,4.8c-1.5,2.4-2.7,4.8-3.7,7.1C96.9-181.3,95.8-181.8,94.9-183.9z M136.3-195.6c3,2.9,2.6,5.5-2.1,5
				c-7.7-0.9-19-7.9-26-6c-2.2,0.6-3.8,2.2-5.3,4.1c-1.1-1.2-2.4-2.6-3.7-3.7c-1.2-1-2-2-3.1-3.1c0.4-1,0.7-1.9,1.2-2.7
				c1.7-3.2,4.1-6.4,5.8-8.2c2.4-2.4,4.7-3,8.3-2C119.8-209.8,131.3-200.4,136.3-195.6z"/>
		</g>
		<g>
			<path fill="#CCC2B8" d="M136.1-356.7c-4.8,6.2,0.1,26.8,7.6,33.1c5.1,4.3,8.3,1.5,7.2-4.2c-1.1-5.8-3.5-14.9-1.7-17.2
				c3-4.1,17.7-0.7,28.9-2.7c5.5-1,7.6-4.6,0.7-6.8C168.7-358,141.5-363.7,136.1-356.7z M144.1-324.7c-7.2-6.1-11.9-25.9-7.3-31.6
				c4.7-6,30.8-1.1,41.7,3c4.1,1.5,4.1,3.7-0.4,4.6c-4.3,0.9-10.3,0.5-14.9,0.4c-7.2-0.1-12.8,0-14.9,3c-1.9,2.6-0.4,11.3,0.7,15.9
				C150.8-322.5,148-321.5,144.1-324.7z M164.8-384.6c-12.2,1-19.7,6.3-23.4,12.3c-2.9,4.6-1,6.2,3.7,5.1c5-1.1,11.4-5.8,19.3-1.6
				c7.4,4,10.5,3.1,15.5-4.5c3.8-5.8,7.8-9.9,14.3-12.4c4.5-1.7,7.8-3.5,8.8-6.4c0.9-2.6-0.4-5-2.9-5.3c-2.9-0.4-5.3,0.6-9.3,3.8
				C183.9-388,176.2-385.6,164.8-384.6z M142.1-371c3.7-7.3,12-11.7,22.9-12.5c11.5-0.9,19-3.7,26-9.4c4-3.2,6.4-4.2,8.7-4.1
				c1.9,0.1,3,1.7,2.2,4.1c-1,3.1-5.1,4.7-8.6,6.1c-6.4,2.6-9.7,6.4-14,13c-4.7,7.2-6.8,7.6-13.9,3.8c-6.6-3.5-12-1-16.6,0.7
				C143-367,140.7-368,142.1-371z M197.2-255.4c5.5-24.4-3-59.1-20.2-62.2c-12.9-2.4-25.8,17.4-28.8,32.1c-1.5,7.3,1.4,8.2,5.6,4.5
				s16.4-11.9,22.7-9.7c7.4,2.6,9.9,24.2,12.4,35.5C190.3-249,195.5-247.5,197.2-255.4z M183.2-314.1c12.2,9.4,17.4,36.5,13,57.3
				c-1.5,7.1-5.3,7.2-6.8,0.2c-1-4.3-2.2-14-3.8-20.7c-1.6-6.8-4.1-13.5-10-14.6c-6.8-1.2-18.2,6-22.7,9.8c-3.6,3.1-4.6,1.6-3.7-3.3
				c1.9-10.9,10.5-24.6,19.6-29.5C173.4-317.5,178.7-317.5,183.2-314.1z M258.7-314.6c5.6,0.9,7.9-2.4,3.8-6.3
				c-6.4-6.2-22.9-18.8-30.9-17.7c-3.2,0.5-6.8,4.2-10.2,10.5c-0.5,1-0.9,2.1-1.2,3c-6.3-6.1-10.3-11.3-12.2-19.2
				c-1.2-5.2-1.7-8.2-4.5-9.9c-3-1.9-7.2-0.7-8.3,2.9c-1,3,0.7,6.6,2.6,9.8c3.3,5.8,3.8,12.5,3,20.7c-1.4,12.4-0.7,15.6,7.9,18.4
				s10.2,9.3,13.4,13.6c5.2,7.1,10.9,6.8,12.4-2.2c1.5-9.1-0.4-18.1-6.2-25.7c1.2-2,2.9-3.5,5-4.2
				C239.5-322.7,251.1-315.7,258.7-314.6z M227.8-315.9c5.2,7.4,6.8,16.4,5.3,24.8c-0.6,3.8-2,5.8-3.8,6.1c-1.9,0.2-4.8-1.1-8.7-7.7
				c-2.4-4.1-4.6-8.8-11.7-11.2c-8.1-2.6-8.7-5-7.3-17c1.1-9.4,0.9-15.7-2.6-21.2c-3.6-5.7-3-10.5,0.1-11.8c1.4-0.5,2.9-0.2,3.8,0.4
				c2.6,1.6,3.1,5.1,4.1,9.9c1.9,9.2,7.1,14.4,12.8,19.6c-2.2,5.3-2.6,11-0.7,15.7c1.4,3.3,3.3,3.5,5-0.4
				C225-310.7,226.2-313.5,227.8-315.9z M204.1-369.2c-1.6,5.2,1,8.1,5.5,4.1c4.3-3.8,9.2-10.2,14-9.7c6.8,0.6,11.8,13.1,15.5,17.6
				c2.5,3.1,6.4,3.6,5.6-2.6c-1.5-11.3-11.9-31.4-21-31.4C216.2-391.2,206.7-378.5,204.1-369.2z M210.3-367.3
				c-4,4.2-6.3,2.9-5.2-1.5c2.2-8.8,11.7-21.5,18.6-21.7c8.2-0.2,18.5,19.3,19.8,30.8c0.4,3.6-1.5,4.1-3.6,1.7
				c-1.2-1.4-2.2-3.3-3.5-5.3c-3.3-5.5-7.3-11.9-12.9-12.3C219.4-375.8,214.6-371.7,210.3-367.3z M250-304.6
				c-0.5-6.1-4.1-6.4-6.4,0.6c-2.9,8.7-1.9,24.6-7.6,27.7c-3.7,2-10-0.4-15.5-1.6c-6.3-1.5-8.8,0.9-5.2,6.3
				c3.7,5.7,14,11.4,21.5,12.5c8.3,1.2,12.9-3.1,14.4-10.8C253.7-282.9,250.9-293.4,250-304.6z M250-295.6c0.9,7.9,2.2,16,0.4,25.4
				c-1.5,7.7-6.1,11-13.3,10c-7.2-1-16.9-6.1-21-11.5c-3.1-4.1-1.2-6.7,4.1-5.5c5,1.1,11.8,3.7,16.1,1.5c4-2.1,5.3-9.1,6.2-17.1
				c0.4-4,0.7-8.8,1.9-11.7c1.7-4.6,4.1-4.8,4.5-0.2C249.2-301.7,249.4-298.3,250-295.6z M219.9-308.9c-1.9-4.2-1.5-9.1,0.7-14.4
				c0.5,0.5,1.2,1.1,1.9,1.6c1.9,1.5,3.3,3.2,4.6,4.8c-1.5,2.4-2.7,4.8-3.7,7.1C221.9-306.3,220.8-306.8,219.9-308.9z M261.3-320.6
				c3,2.9,2.6,5.5-2.1,5c-7.7-0.9-19-7.9-26-6c-2.2,0.6-3.8,2.2-5.3,4.1c-1.1-1.2-2.4-2.6-3.7-3.7c-1.2-1-2-2-3.1-3.1
				c0.4-1,0.7-1.9,1.2-2.7c1.7-3.2,4.1-6.4,5.8-8.2c2.4-2.4,4.7-3,8.3-2C244.8-334.8,256.3-325.4,261.3-320.6z"/>
		</g>
		<g>
			<path fill="#CCC2B8" d="M11.1-356.7c-4.8,6.2,0.1,26.8,7.6,33.1c5.1,4.3,8.3,1.5,7.2-4.2c-1.1-5.8-3.5-14.9-1.7-17.2
				c3-4.1,17.7-0.7,28.9-2.7c5.5-1,7.6-4.6,0.7-6.8C43.7-358,16.5-363.7,11.1-356.7z M19.1-324.7c-7.2-6.1-11.9-25.9-7.3-31.6
				c4.7-6,30.8-1.1,41.7,3c4.1,1.5,4.1,3.7-0.4,4.6c-4.3,0.9-10.3,0.5-14.9,0.4c-7.2-0.1-12.8,0-14.9,3c-1.9,2.6-0.4,11.3,0.7,15.9
				C25.8-322.5,23-321.5,19.1-324.7z M39.8-384.6c-12.2,1-19.7,6.3-23.4,12.3c-2.9,4.6-1,6.2,3.7,5.1c5-1.1,11.4-5.8,19.3-1.6
				c7.4,4,10.5,3.1,15.5-4.5c3.8-5.8,7.8-9.9,14.3-12.4c4.5-1.7,7.8-3.5,8.8-6.4c0.9-2.6-0.4-5-2.9-5.3c-2.9-0.4-5.3,0.6-9.3,3.8
				C58.9-388,51.2-385.6,39.8-384.6z M17.1-371c3.7-7.3,12-11.7,22.9-12.5c11.5-0.9,19-3.7,26-9.4c4-3.2,6.4-4.2,8.7-4.1
				c1.9,0.1,3,1.7,2.2,4.1c-1,3.1-5.1,4.7-8.6,6.1c-6.4,2.6-9.7,6.4-14,13c-4.7,7.2-6.8,7.6-13.9,3.8c-6.6-3.5-12-1-16.6,0.7
				C18-367,15.7-368,17.1-371z M72.2-255.4c5.5-24.4-3-59.1-20.2-62.2c-12.9-2.4-25.8,17.4-28.8,32.1c-1.5,7.3,1.4,8.2,5.6,4.5
				s16.4-11.9,22.7-9.7c7.4,2.6,9.9,24.2,12.4,35.5C65.3-249,70.5-247.5,72.2-255.4z M58.2-314.1c12.2,9.4,17.4,36.5,13,57.3
				c-1.5,7.1-5.3,7.2-6.8,0.2c-1-4.3-2.2-14-3.8-20.7c-1.6-6.8-4.1-13.5-10-14.6c-6.8-1.2-18.2,6-22.7,9.8c-3.6,3.1-4.6,1.6-3.7-3.3
				c1.9-10.9,10.5-24.6,19.6-29.5C48.4-317.5,53.7-317.5,58.2-314.1z M133.7-314.6c5.6,0.9,7.9-2.4,3.8-6.3
				c-6.4-6.2-22.9-18.8-30.9-17.7c-3.2,0.5-6.8,4.2-10.2,10.5c-0.5,1-0.9,2.1-1.2,3c-6.3-6.1-10.3-11.3-12.2-19.2
				c-1.2-5.2-1.7-8.2-4.5-9.9c-3-1.9-7.2-0.7-8.3,2.9c-1,3,0.7,6.6,2.6,9.8c3.3,5.8,3.8,12.5,3,20.7c-1.4,12.4-0.7,15.6,7.9,18.4
				s10.2,9.3,13.4,13.6c5.2,7.1,10.9,6.8,12.4-2.2c1.5-9.1-0.4-18.1-6.2-25.7c1.2-2,2.9-3.5,5-4.2
				C114.5-322.7,126.1-315.7,133.7-314.6z M102.8-315.9c5.2,7.4,6.8,16.4,5.3,24.8c-0.6,3.8-2,5.8-3.8,6.1c-1.9,0.2-4.8-1.1-8.7-7.7
				c-2.4-4.1-4.6-8.8-11.7-11.2c-8.1-2.6-8.7-5-7.3-17c1.1-9.4,0.9-15.7-2.6-21.2c-3.6-5.7-3-10.5,0.1-11.8c1.4-0.5,2.9-0.2,3.8,0.4
				c2.6,1.6,3.1,5.1,4.1,9.9c1.9,9.2,7.1,14.4,12.8,19.6c-2.2,5.3-2.6,11-0.7,15.7c1.4,3.3,3.3,3.5,5-0.4
				C100-310.7,101.2-313.5,102.8-315.9z M79.1-369.2c-1.6,5.2,1,8.1,5.5,4.1c4.3-3.8,9.2-10.2,14-9.7c6.8,0.6,11.8,13.1,15.5,17.6
				c2.5,3.1,6.4,3.6,5.6-2.6c-1.5-11.3-11.9-31.4-21-31.4C91.2-391.2,81.7-378.5,79.1-369.2z M85.3-367.3c-4,4.2-6.3,2.9-5.2-1.5
				c2.2-8.8,11.7-21.5,18.6-21.7c8.2-0.2,18.5,19.3,19.8,30.8c0.4,3.6-1.5,4.1-3.6,1.7c-1.2-1.4-2.2-3.3-3.5-5.3
				c-3.3-5.5-7.3-11.9-12.9-12.3C94.4-375.8,89.6-371.7,85.3-367.3z M125-304.6c-0.5-6.1-4.1-6.4-6.4,0.6
				c-2.9,8.7-1.9,24.6-7.6,27.7c-3.7,2-10-0.4-15.5-1.6c-6.3-1.5-8.8,0.9-5.2,6.3c3.7,5.7,14,11.4,21.5,12.5
				c8.3,1.2,12.9-3.1,14.4-10.8C128.7-282.9,125.9-293.4,125-304.6z M125-295.6c0.9,7.9,2.2,16,0.4,25.4c-1.5,7.7-6.1,11-13.3,10
				c-7.2-1-16.9-6.1-21-11.5c-3.1-4.1-1.2-6.7,4.1-5.5c5,1.1,11.8,3.7,16.1,1.5c4-2.1,5.3-9.1,6.2-17.1c0.4-4,0.7-8.8,1.9-11.7
				c1.7-4.6,4.1-4.8,4.5-0.2C124.2-301.7,124.4-298.3,125-295.6z M94.9-308.9c-1.9-4.2-1.5-9.1,0.7-14.4c0.5,0.5,1.2,1.1,1.9,1.6
				c1.9,1.5,3.3,3.2,4.6,4.8c-1.5,2.4-2.7,4.8-3.7,7.1C96.9-306.3,95.8-306.8,94.9-308.9z M136.3-320.6c3,2.9,2.6,5.5-2.1,5
				c-7.7-0.9-19-7.9-26-6c-2.2,0.6-3.8,2.2-5.3,4.1c-1.1-1.2-2.4-2.6-3.7-3.7c-1.2-1-2-2-3.1-3.1c0.4-1,0.7-1.9,1.2-2.7
				c1.7-3.2,4.1-6.4,5.8-8.2c2.4-2.4,4.7-3,8.3-2C119.8-334.8,131.3-325.4,136.3-320.6z"/>
		</g>
	</g>
</pattern>
<rect fill="url(#New_Pattern)" width="125" height="125"/>
</svg>
