<?xml version="1.0" encoding="utf-8"?>
<!-- Generator: Adobe Illustrator 18.1.1, SVG Export Plug-In . SVG Version: 6.00 Build 0)  -->
<!DOCTYPE svg PUBLIC "-//W3C//DTD SVG 1.1//EN" "http://www.w3.org/Graphics/SVG/1.1/DTD/svg11.dtd">
<svg version="1.1" id="Layer_1" xmlns="http://www.w3.org/2000/svg" xmlns:xlink="http://www.w3.org/1999/xlink" x="0px" y="0px"
	 width="130.6px" height="147.7px" viewBox="0 0 130.6 147.7" enable-background="new 0 0 130.6 147.7" xml:space="preserve">
<g>
	<path fill="#D0C6BC" d="M44.6,43c6.8,2.2,4.7,5.8-0.7,6.8c-11.2,2-25.9-1.4-28.9,2.7c-1.7,2.4,0.6,11.4,1.7,17.3
		c1.1,5.7-2.1,8.6-7.2,4.2C2,67.7-2.9,47.1,1.9,40.9C7.4,34,34.6,39.7,44.6,43z M15,68.1c-1.1-4.6-2.6-13.3-0.7-15.9
		c2.1-3,7.7-3.1,14.9-3c4.6,0.1,10.5,0.5,14.9-0.4c4.5-0.9,4.5-3.1,0.4-4.6c-10.9-4.1-37-8.9-41.7-3C-1.9,47,2.8,66.8,10,72.9
		C13.8,76.2,16.7,75.2,15,68.1z M56.8,3.9c4-3.2,6.5-4.2,9.3-3.8c2.5,0.4,3.7,2.7,2.9,5.3c-1,3-4.3,4.7-8.8,6.5
		c-6.5,2.5-10.4,6.6-14.3,12.4c-5,7.6-8.1,8.4-15.5,4.5c-7.9-4.2-14.4,0.5-19.4,1.6c-4.7,1.1-6.6-0.5-3.7-5.1
		C11,19.3,18.6,14,30.7,13C42.1,12,49.8,9.6,56.8,3.9z M14.8,28.4c4.6-1.7,10.1-4.2,16.6-0.7c7.1,3.7,9.2,3.4,13.9-3.8
		c4.3-6.6,7.6-10.4,14-13c3.5-1.4,7.6-3,8.6-6.1c0.7-2.4-0.4-4-2.2-4.1C63.5,0.4,61,1.4,57,4.7C50,10.4,42.5,13.2,31,14.1
		C20,15,11.7,19.3,8,26.6C6.5,29.6,8.9,30.6,14.8,28.4z M54.8,142.4c-2.5-11.3-5-32.9-12.4-35.5c-6.3-2.2-18.5,6-22.7,9.7
		c-4.2,3.7-7.1,2.9-5.6-4.5C17.1,97.4,30,77.6,42.9,80c17.3,3.1,25.7,37.9,20.2,62.3C61.4,150.3,56.2,148.8,54.8,142.4z M34.6,82.7
		c-9.1,5-17.7,18.6-19.6,29.5c-0.9,5,0.1,6.5,3.7,3.4c4.5-3.8,15.9-11,22.7-9.8c6,1.1,8.4,7.8,10.1,14.6c1.6,6.7,2.9,16.4,3.8,20.7
		c1.5,7,5.3,6.8,6.8-0.2c4.3-20.9-0.9-47.9-13-57.3C44.6,80.1,39.3,80.1,34.6,82.7z M99.4,76.7c-2.1,0.7-3.7,2.2-5,4.2
		c5.8,7.6,7.7,16.6,6.2,25.7s-7.2,9.3-12.4,2.2c-3.2-4.3-4.7-10.9-13.4-13.7c-8.7-2.7-9.3-6-7.9-18.4c0.9-8.2,0.4-14.9-3-20.7
		c-1.9-3.2-3.6-6.8-2.6-9.8c1.1-3.6,5.3-4.7,8.3-2.9c2.7,1.7,3.2,4.7,4.5,9.9c1.9,7.9,5.8,13.2,12.2,19.2c0.4-0.9,0.7-2,1.2-3
		c3.4-6.3,7-10.1,10.2-10.5c7.9-1.1,24.5,11.5,30.9,17.7c4.1,4,1.7,7.2-3.8,6.3C117.1,82,105.4,74.9,99.4,76.7z M90,89.1
		c-1.6,3.8-3.6,3.7-5,0.4c-1.9-4.7-1.5-10.4,0.7-15.8C80.1,68.5,74.9,63.2,73,54.1c-1-4.8-1.5-8.3-4.1-9.9c-1-0.6-2.5-0.9-3.8-0.4
		C62,45,61.4,49.8,65,55.6c3.5,5.5,3.7,11.8,2.6,21.2c-1.4,12-0.7,14.4,7.3,17c7.1,2.4,9.3,7.1,11.7,11.2c3.8,6.6,6.8,7.9,8.7,7.7
		c1.9-0.2,3.2-2.2,3.8-6.1c1.5-8.4-0.1-17.4-5.3-24.8C92.2,84.2,90.9,87,90,89.1z M89.7,6.4c9.1,0,19.5,20.1,21,31.4
		c0.9,6.2-3.1,5.7-5.6,2.6c-3.7-4.5-8.7-17-15.5-17.6c-4.8-0.5-9.7,5.8-14,9.7c-4.5,4-7.1,1.1-5.5-4.1C72.7,19.1,82.1,6.4,89.7,6.4z
		 M89.5,22c5.6,0.4,9.6,6.8,12.9,12.3c1.2,2,2.2,4,3.5,5.3c2.1,2.4,4,1.9,3.6-1.7c-1.4-11.4-11.7-31-19.9-30.8
		c-7,0.2-16.4,12.9-18.6,21.7c-1.1,4.3,1.2,5.7,5.2,1.5C80.5,25.9,85.3,21.8,89.5,22z M117.1,127.8c-1.5,7.7-6.1,12-14.4,10.8
		c-7.4-1.1-17.7-6.8-21.5-12.5c-3.6-5.5-1.1-7.8,5.2-6.3c5.5,1.2,11.8,3.6,15.5,1.6c5.7-3.1,4.7-19,7.6-27.7c2.4-7.1,6-6.7,6.5-0.6
		C116.9,104.3,119.7,114.8,117.1,127.8z M114.9,93c-0.4-4.6-2.7-4.3-4.5,0.2c-1.1,2.9-1.5,7.7-1.9,11.7c-0.9,8.1-2.2,15-6.2,17.1
		c-4.3,2.2-11.2-0.4-16.1-1.5c-5.3-1.2-7.2,1.4-4.1,5.5c4.1,5.5,13.8,10.5,21,11.5c7.2,1,11.8-2.4,13.3-10.1
		c1.9-9.4,0.5-17.5-0.4-25.4C115.4,99.4,115.1,96,114.9,93z M89.3,87.9c1-2.2,2.2-4.7,3.7-7.1c-1.2-1.6-2.7-3.4-4.6-4.8
		c-0.6-0.5-1.4-1.1-1.9-1.6c-2.2,5.3-2.6,10.2-0.7,14.4C86.7,90.9,87.8,91.4,89.3,87.9z M102.3,60.4c-3.6-1-6-0.4-8.3,2
		c-1.7,1.7-4.1,5-5.8,8.2c-0.5,0.9-0.9,1.7-1.2,2.7c1.1,1.1,1.9,2.1,3.1,3.1c1.4,1.1,2.6,2.5,3.7,3.7c1.5-1.9,3.1-3.5,5.3-4.1
		c7.1-2,18.4,5.1,26.1,6c4.7,0.5,5.1-2.1,2.1-5C122.3,72.3,110.8,62.9,102.3,60.4z"/>
</g>
</svg>
