<?xml version="1.0" encoding="utf-8"?>
<!-- Generator: Adobe Illustrator 18.1.1, SVG Export Plug-In . SVG Version: 6.00 Build 0)  -->
<!DOCTYPE svg PUBLIC "-//W3C//DTD SVG 1.1//EN" "http://www.w3.org/Graphics/SVG/1.1/DTD/svg11.dtd">
<svg version="1.1" id="Layer_1" xmlns="http://www.w3.org/2000/svg" xmlns:xlink="http://www.w3.org/1999/xlink" x="0px" y="0px"
	 width="143.2px" height="131.8px" viewBox="0 0 143.2 131.8" enable-background="new 0 0 143.2 131.8" xml:space="preserve">
<g>
	<path fill="#FFCDCD" d="M0.4,88.8c1.2-3.1,4.5-4.1,7.3-5.3c7.4-3.1,12.3-7.6,16-15.5c3.8-8.3,10.3-7.2,15.6-4.6
		c2.5,1.2,4.3,1.6,6.1,1.6c-2-3.8-3.7-7.8-4.2-10.7c-0.9-5.1,2.1-8.2,5.7-3.2c5.5,7.4,16.3,17.5,20.7,24.5
		c4.8,7.4,4.2,13.8-1.6,19.1c-6,5.5-18.7,8.1-26.8,4.6c-5.2-2.2-3.7-4.8-0.4-6c3.1-1,6.8-2,10.2-4.2c3.8-2.6,4.7-5.2,3.1-10.8
		c-0.2-0.9-0.7-1.9-1.2-2.7c-4.3,3.4-10.2,5-16.9,6c-9.9,1.5-16.3,3.5-21.1,8.3c-3.1,3.1-4.8,5.2-7.9,5.5
		C1.2,95.5-0.9,91.8,0.4,88.8z M33.9,80.8c7.1-0.9,12.7-3.4,16.6-6.5c-1.4-2.6-3-5.6-4.7-8.7c-2,0.2-4.5,0-7-1.2
		c-3.7-1.9-6.7-2.5-9.1-1.5c-2.1,0.9-4.1,2.6-5.6,5.3c-3.7,8.1-8.1,13.3-16.1,16.5c-2.7,1.1-5.8,2.5-6.6,4.7
		c-0.4,1.2-0.2,2.9,0.5,3.7c0.6,0.6,1.5,1.5,3,1.4c3.1-0.4,5-2.6,7.4-5.2C17.4,84.1,23.1,82.2,33.9,80.8z M31,0
		c5.7-0.4,6.1,2.4,2.6,4.6c-6.1,4-11.8,9.3-11.8,13.5c0,4.1,3.1,8.6,6.2,12.5s0.7,5.6-4,4.1c-7.3-2.2-21-10.3-21-18.1
		C3.1,8.7,21.2,0.8,31,0z M24.4,33.9c3.8,0.9,4.6-0.6,2.9-2.9c-3.1-4-6.7-8.8-6.8-12.9c-0.1-5.6,7.4-10.7,12.3-14
		c2.2-1.6,2-3.2-1.7-3C21.6,1.9,3.8,9.1,3.8,16.7C3.8,23.9,17.7,31.8,24.4,33.9z M16.4,125c-3.5-4.6-3.6-13.8-2.5-18.5
		c1-4.3,4-5,6.5-1.1c1.9,2.9,3.5,6.7,4.8,8.9c1.6,2.6,4.2,3.7,6.5,4.5c3.6,1.2,13.3,3.5,16.6,5c4.6,2,3.5,4.5-0.7,5.2
		C37.5,130.9,20.5,130.5,16.4,125z M32.8,120.3c-3.2-1-6-1.9-7.8-4.7c-1.4-2.1-3.8-6.5-5.6-9.2c-2-3.1-4-3.1-5,0.9
		c-0.7,4.7,0,10.9,1.7,14.9c1.1,2.6,2.7,4.5,5.5,5.3c7.2,2.4,21.3,1.5,25.7,0.4c3.2-0.9,3.2-2.5,0.2-3.7
		C44,122.8,37.1,121.5,32.8,120.3z M51.7,64.4c4.5-0.2,5.3,2.9,3.5,5.8c-1.1,1.9-2.1,3.4-3.6,4.7c0.4,1.1,0.7,1.9,1.1,2.9
		c2.1,6,0.6,9.3-3.6,12c-2.6,1.7-5.7,3.4-8.4,4c-4,0.9-4.6,2.9-1.1,4.3c7.6,3.2,20.1,1.1,25.8-4.2c5.6-5.2,5.8-10.9,1.4-17.7
		c-2.5-3.8-6.5-8.6-10.8-13.2c-3.6-3.7-6.8-7.9-9.4-11.4c-2.5-3.4-4.6-1.4-4,2.6c0.5,3.1,2,6.8,4,10.5
		C48.3,64.8,49.8,64.6,51.7,64.4z M49.4,65.3c-0.7,0.1-1.7,0.2-2.5,0.4c0.6,1,1,1.6,1.5,2.6c1,2,1.9,3.8,2.6,5.6
		c1.5-1.4,2.6-2.9,3.4-4.3C55.6,66.9,54.3,64.4,49.4,65.3z M58.4,20.3c7.2,1.2,21.7,6.1,23.1,11.9c1.6,7.1-6.5,19.9-12.9,26.1
		c-4.3,4.5-6.5,2.1-5.6-2.9c0.6-3.6,2.4-8.9,1.5-13.8c-0.9-4.7-7.4-7-12.2-13C49,24.2,49.9,18.8,58.4,20.3z M59.6,34.4
		c2.7,2.2,5.1,4.2,5.7,7.2c0.9,4,0.1,9.1-0.7,12.4c-1.4,5.2,0.4,6.1,3.5,3.4c6.3-5.6,14.4-18.6,13-25.2C79.9,27.1,64.6,22,57.7,21.3
		c-6.1-0.6-7.1,2.9-4.8,6.2C54.3,29.8,57.7,32.9,59.6,34.4z M83.5,130.9c-4.6,0-5.3-2.9-2.2-6.2c3.1-3.4,4.7-6.6-0.9-8.8
		c-5.6-2.2-15.9-3.4-22.6-7.4c-4.5-2.7-3.5-5.5,0.7-5c8.3,0.9,25.7,1.5,35.7,3.8c8.3,2,10.5,7.2,7,13.5
		C98,126.5,90.2,130.9,83.5,130.9z M68.6,105.3c-4.1-0.2-7.6-0.6-10.2-0.7s-3.1,1.5,0.1,3.5c4.1,2.5,10.3,3.6,15,4.8
		c6.3,1.6,10.2,2.7,11,5.7c0.5,1.5-0.1,3.7-2.6,6.8c-2.4,3-1,4.3,1.7,4.3c6.5,0,13.9-4.2,16.8-9.4c3.2-6,1.1-10.2-6.5-12
		C87.5,106.6,76.9,105.8,68.6,105.3z M102.3,73.6c-3.1-1.5-6.3-5.7-8.7-10.7c-5,3.1-9.1,5.8-10.9,6.8c-4.6,2.6-6,0.4-2.6-4.1
		c2.7-3.6,6.3-7.4,10.1-11.3c-0.7-1.9-1.2-3.5-1.5-5c-1.5-8.2,1.7-9.7,7.6-4.6c0.6,0.6,1.2,1.1,2,1.9c10.2-9.1,20.9-16.3,26.8-15.4
		c10.9,1.6,14.4,17.7,14.4,27.2c0,4.8-2.2,4.5-4.3,1.5c-2-2.9-8.2-11.5-12-11.8c-2.9-0.1-9.3,2.9-16.1,6.8c1,0.9,1.9,1.6,3.1,2.4
		c4.1,2.4,10.5,2.7,14.9,4.1c4.6,1.5,5.3,4.6,0.9,7.6C118.3,74,108,76.2,102.3,73.6z M90.3,55.5c-3.5,3.7-6.6,7.4-9.3,11.2
		c-2.1,2.9-1.7,4.3,2.4,1.7c2.4-1.5,5.7-3.6,9.8-6.2C92.1,60,91.1,57.7,90.3,55.5z M97.3,47.4c-0.7-0.7-1.5-1.5-2.2-2.1
		c-4.7-3.7-6.5-1.9-5.3,4.1c0.4,1.1,0.6,2.6,1,4.1C92.8,51.4,95.1,49.4,97.3,47.4z M91.1,54.8c0.7,2.2,1.7,4.6,2.9,6.8
		c3.5-2.2,7.6-4.3,11.3-6.6c-2.2-2.1-4.7-4.7-7.2-7.1C95.8,50.2,93.3,52.4,91.1,54.8z M124.5,62.2c-4.1-1.1-10.1-1.4-15-4.1
		c-1.1-0.6-2.4-1.5-3.5-2.6c-4,2.2-7.9,4.6-11.7,6.8c2.2,4.6,5.2,8.7,8.1,10.2c6.2,3.2,17-0.4,22.6-4.5
		C128.3,65.6,127.8,63.1,124.5,62.2z M106.1,54.4c7.6-4.2,14.4-7.6,16.9-7.3c3.7,0.4,8.4,5.8,12.4,11.2c2.2,3.1,3.1,3.2,3.1-0.1
		c0.1-9.3-4.1-24.6-14-25.9c-5.3-0.7-15.6,6-25.6,15C101.5,49.8,103.9,52.4,106.1,54.4z M129.2,124.9c-5.3,0.5-6.6,2.4-9.2,5.2
		c-3,2.7-5.1,2.1-5-1.7c0.1-7,3.7-12.7,11-17.7c8.2-5.7,8.7-10.9,11.4-15c2.5-3.8,5.1-2.5,5.5,0.6c0.7,5.7-0.2,14-3.7,21.1
		C137.3,121.4,133.9,124.4,129.2,124.9z M138.2,95.9c-0.9,1.1-1.9,3.5-2.5,5c-1.5,3.4-3.1,6.1-9.1,10.4
		c-7.1,5.1-10.4,10.9-10.5,17.1c0,3,1.6,3.2,4,0.2c2-2.5,4-4.3,9.1-5.1c4.7-0.7,7.2-2.4,9.4-6.8c3.4-6.6,4-15.6,3.2-20
		C141.2,93.5,139.7,93.9,138.2,95.9z"/>
</g>
</svg>
