<?xml version="1.0" encoding="utf-8"?>
<!-- Generator: Adobe Illustrator 15.1.0, SVG Export Plug-In  -->
<!DOCTYPE svg PUBLIC "-//W3C//DTD SVG 1.1//EN" "http://www.w3.org/Graphics/SVG/1.1/DTD/svg11.dtd" [
	<!ENTITY ns_flows "http://ns.adobe.com/Flows/1.0/">
]>
<svg version="1.1"
	 xmlns="http://www.w3.org/2000/svg" xmlns:xlink="http://www.w3.org/1999/xlink" xmlns:a="http://ns.adobe.com/AdobeSVGViewerExtensions/3.0/"
	 x="0px" y="0px" width="250px" height="250px" viewBox="0 0 250 250" overflow="visible" enable-background="new 0 0 250 250"
	 xml:space="preserve">
<defs>
</defs>
<path fill="#FFFFFF" d="M80.486,63.976c-0.85,0-1.631,0.292-2.261,0.77c-4.248,3.276-11.604,11.118-11.604,11.118v47.859h6.701
	v-11.868c2.65-2.921,5.528-5.629,8.624-8.048l-0.019-0.023c1.355-1.163,2.235-2.843,2.322-4.752h0.018v-0.207
	c0-0.033,0.011-0.059,0.011-0.09c0-0.039,0-30.921,0-30.989C84.277,65.67,82.568,63.976,80.486,63.976z M77.603,98.751
	c-1.473,1.159-2.895,2.391-4.28,3.66v-24.08c1.363-1.498,2.785-2.943,4.28-4.319V98.751z"/>
<path fill="#FFFFFF" d="M177.636,126.169l-6.673-0.024v57.746c5.352-4.104,10.152-9.191,14.104-14.544v-12.675
	c-2.086,3.913-4.651,7.768-7.434,11.22L177.636,126.169z"/>
<path fill="#FFFFFF" d="M110.828,214.165c-0.686-0.11-1.244,0.927-1.788,4.354c-0.546,3.425-0.339,4.583,0.347,4.694
	c0.684,0.107,1.269-0.925,1.815-4.352C111.749,215.437,111.511,214.273,110.828,214.165z"/>
<path fill="#FFFFFF" d="M180.24,131.077c0,0.054,0.014,0.104,0.014,0.16h-0.032v2.162l0.002,27.335
	c2.72-4.208,4.974-8.749,6.707-13.542v-14.328l4.217-0.002l0.022,7.792c-0.867,3.61-2.059,7.111-3.501,10.506v14.297
	c3.88-6,6.901-12.539,8.951-19.421h0.022c0.059-0.197,0.102-0.403,0.159-0.604c0.363-1.262,0.704-2.531,1.002-3.82
	c0.004-0.011,0.007-0.022,0.009-0.035v-0.004c0.002-0.004,0.002-0.01,0.005-0.015l-0.005-0.004l0.002-10.137h-0.033
	c0.009-0.113,0.033-0.222,0.033-0.336c0-2.709-2.185-4.905-4.878-4.905c-0.063,0-0.12,0.019-0.181,0.021l-7.49-0.007v0.016
	c-0.05-0.002-0.091-0.013-0.146-0.013C182.424,126.191,180.24,128.377,180.24,131.077z"/>
<path fill="#FFFFFF" d="M70.487,126.18H50.814v6.673h6.445l0.002,26.452c1.946,3.754,4.173,7.336,6.703,10.688l0.002-37.14h6.52
	V126.18z"/>
<path fill="#FFFFFF" d="M166.725,47.694c0.607,0.334,1.506-0.44,3.169-3.483c1.665-3.045,1.833-4.219,1.227-4.551
	c-0.609-0.332-1.484,0.454-3.147,3.499C166.308,46.201,166.118,47.362,166.725,47.694z"/>
<path fill="#FFFFFF" d="M145.397,118.543h0.029c-0.002,0.073-0.018,0.141-0.018,0.211c0,2.762,2.244,5,5.016,5
	c0.059,0,0.109-0.011,0.165-0.016h12.428v-6.708h-10.917V61.606c1.449,0.644,2.872,1.335,4.271,2.074v22.508
	c2.288,1.034,4.516,2.177,6.671,3.419v-25.81c0.002-0.077,0.014-0.145,0.014-0.221c0-2.864-1.827-5.25-4.364-6.185
	c-2.338-1.202-4.743-2.293-7.184-3.237c-0.214-0.118-0.437-0.203-0.668-0.281c-0.07-0.022-0.138-0.059-0.208-0.081l-0.009,0.016
	c-0.33-0.083-0.67-0.146-1.03-0.146c-2.303,0-4.212,1.968-4.212,4.271c0,0.045,0.017,0.085,0.017,0.128V118.543z"/>
<path fill="#FFFFFF" d="M142.951,51.36c-2.188-0.558-4.414-1.01-6.671-1.374v73.744h6.671V51.36z"/>
<path fill="#FFFFFF" d="M127.086,55.776v19.397l-4.271,7.405V58.263c-2.246,0.045-4.47,0.174-6.666,0.412v65.056h6.666V89.295
	l1.458-0.053l2.799,0.097v34.38h6.669V87.869c0-0.057,0.02-0.113,0.02-0.172c0-2.204-1.445-4.051-3.434-4.723l2.628-4.552
	c0.018-0.031,0.036-0.068,0.059-0.104l0.343-0.595l-0.018-0.009c0.288-0.616,0.455-1.298,0.455-2.019
	c0-0.021-0.004-0.039-0.009-0.061h0.009V54.177h-0.018v-0.005c0-2.525-1.368-4.856-4.28-4.997c-1.644-0.112-6.321-0.168-6.709-0.162
	v6.677c0.425-0.014,0.863-0.032,1.246-0.037C124.033,55.654,125.745,55.722,127.086,55.776z M122.815,82.628v-0.012l0.018,0.012
	H122.815z"/>
<path fill="#FFFFFF" d="M113.659,56.576c2.303-0.357,4.542-0.597,6.565-0.732V49.16c-3.911,0.242-8.573,0.776-13.257,1.917
	l-0.013,0.082v72.593h6.705V56.576z"/>
<path fill="#FFFFFF" d="M99.242,207.169c-0.583-0.182-1.196,0.846-1.698,2.436c-0.542,1.721-0.591,2.81-0.009,2.996
	c0.607,0.189,1.163-0.742,1.703-2.463C99.739,208.547,99.849,207.361,99.242,207.169z"/>
<path fill="#FFFFFF" d="M172.317,108.814c1.488,1.451,2.894,2.966,4.234,4.535v10.379h6.705v-10.239
	c0-0.022,0.009-0.045,0.009-0.063c0-0.013-0.009-0.029-0.009-0.045v-0.033c-0.026-1.979-0.88-3.748-2.233-5
	c-1.167-1.331-2.373-2.629-3.63-3.876l5.502-10.142c0,0,0.323-0.536,0.343-1.55c0.022-1.014,0-15.355,0-15.355
	c-2.061-2.58-4.289-5.02-6.667-7.306V92.52l-4.249,7.362c0,0-0.004-0.002-0.006-0.004V66.294c-2.138-1.755-4.381-3.381-6.705-4.901
	v62.338h6.705V108.814z"/>
<path fill="#FFFFFF" d="M161.709,182.327c-1.371,0.89-2.783,1.739-4.222,2.529l0.002-58.686h-6.705v63.042h0.023
	c0,0.031-0.009,0.063-0.009,0.1c0,2.184,1.773,3.958,3.959,3.958c0.5,0,0.97-0.102,1.413-0.269l0.009,0.015
	c0.032-0.013,0.059-0.032,0.095-0.05c0.072-0.028,0.131-0.067,0.199-0.102c2.727-1.287,5.386-2.775,7.959-4.396
	c0.353-0.183,0.698-0.382,1.017-0.617c0.036-0.022,0.072-0.04,0.109-0.067l-0.01-0.011c1.626-1.235,2.705-3.128,2.809-5.338h0.018
	v-0.168c0.002-0.07,0.021-0.133,0.021-0.211c0-0.072-0.019-0.14-0.021-0.21l0.002-55.675h-6.67L161.709,182.327z"/>
<path fill="#FFFFFF" d="M194.079,55.213c1.165-1.188,1.802-2.195,1.346-2.642c-0.434-0.427-1.45,0.209-2.615,1.398
	c-1.264,1.287-1.801,2.236-1.368,2.666C191.898,57.08,192.814,56.504,194.079,55.213z"/>
<path fill="#FFFFFF" d="M86.885,95.272h-0.01v23.199c-0.009,0.106-0.033,0.203-0.033,0.307c0,2.766,2.273,4.965,5.041,4.965
	c0.037,0,0.068-0.011,0.104-0.013h12.498v-0.018h0.009c0,0-0.018-66.771-0.018-66.832c0-2.126-2.121-4.631-4.725-3.766
	c-2.604,0.868-8.403,3.319-10.202,4.412c-1.801,1.088-2.7,2.762-2.7,4.793c0,0.05,0.009,26.84,0.009,26.84
	c2.163-1.246,4.385-2.392,6.668-3.425V62.998c1.423-0.709,2.863-1.38,4.334-1.992v26.327c-2.966,1.111-5.874,2.41-8.676,3.885
	l0.012,0.02C87.82,92.059,86.885,93.551,86.885,95.272z M93.503,96.544c1.436-0.716,2.876-1.416,4.357-2.031v22.507h-4.357V96.544z"
	/>
<path fill="#FFFFFF" d="M71.403,43.601c-0.673,0.443-0.359,1.73,1.543,4.631c1.901,2.899,2.958,3.702,3.63,3.261
	c0.672-0.443,0.244-1.653-1.659-4.557C73.015,44.038,72.076,43.159,71.403,43.601z"/>
<path fill="#FFFFFF" d="M103.878,39.102c1.382-0.316,1.707-2.472,0.772-6.529s-2.176-5.851-3.553-5.534l-0.243,0.059l2.783,12.063
	L103.878,39.102z"/>
<path fill="#FFFFFF" d="M129.339,37.093c0.693,0.037,1.138-1.052,1.321-4.518c0.181-3.465-0.149-4.592-0.842-4.628
	c-0.69-0.039-1.165,1.048-1.345,4.514C128.289,35.925,128.647,37.055,129.339,37.093z"/>
<path fill="#FFFFFF" d="M176.163,53.845c0.493,0.358,1.757-0.436,2.98-2.121c1.223-1.684,1.589-3.132,1.097-3.492
	c-0.515-0.375-1.779,0.419-3.002,2.105C176.014,52.022,175.647,53.47,176.163,53.845z"/>
<path fill="#FFFFFF" d="M185.906,62.28c0.456,0.447,1.473,0.085,2.931-1.4c1.456-1.487,1.799-2.513,1.343-2.96
	c-0.435-0.425-1.452-0.063-2.91,1.423C185.814,60.83,185.471,61.855,185.906,62.28z"/>
<path fill="#FFFFFF" d="M63.181,190.718c-0.506-0.477-1.549,0.065-3.924,2.595c-2.375,2.525-2.853,3.601-2.347,4.075
	c0.505,0.477,1.566-0.044,3.944-2.575C63.231,192.288,63.688,191.194,63.181,190.718z"/>
<path fill="#FFFFFF" d="M52,177.564c-0.467-0.656-1.79-0.118-4.045,1.495c0.614,0.859,1.022,0.908,1.819,1.019
	c0,0,0.63-0.314,0.947-0.54C51.779,178.78,52.292,177.971,52,177.564z"/>
<path fill="#FFFFFF" d="M44.255,165.323c-0.312-0.622-1.49-0.495-4.592,1.06c-3.098,1.558-3.903,2.426-3.592,3.047
	c0.31,0.622,1.477,0.47,4.576-1.086C43.747,166.789,44.563,165.945,44.255,165.323z"/>
<path fill="#FFFFFF" d="M96.994,214.321c-0.583-0.186-1.323,0.6-1.946,2.586c-0.625,1.985-0.467,3.054,0.115,3.236
	c0.607,0.192,1.351-0.592,1.976-2.579C97.762,215.58,97.603,214.511,96.994,214.321z"/>
<path fill="#FFFFFF" d="M51.501,68.428c2.722,2.15,3.851,2.512,4.28,1.965c0.428-0.544-0.202-1.536-2.922-3.687
	c-2.722-2.151-3.833-2.535-4.265-1.988C48.165,65.261,48.778,66.277,51.501,68.428z"/>
<path fill="#FFFFFF" d="M43.171,84.051c1.849,0.958,3.337,1.098,3.63,0.533c0.281-0.542-0.699-1.673-2.548-2.629
	c-1.849-0.953-3.335-1.098-3.615-0.554C40.344,81.968,41.322,83.098,43.171,84.051z"/>
<path fill="#FFFFFF" d="M66.554,59.063c0.293-0.255,0.308-1.337-0.085-1.913l-1.901-2.173l-0.521,0.456
	c-0.585,0.511-0.225,1.597,0.742,2.706C65.791,59.289,66.242,59.338,66.554,59.063z"/>
<path fill="#FFFFFF" d="M79.322,126.18c-0.089,0-6.231,0-6.231,0v6.673h4.42v42.208c-1.494-1.386-2.921-2.845-4.289-4.354v-35.234
	h-6.705v33.774c0,0,0.008-1.017,0,1.372c0,2.632,1.155,3.968,1.809,4.593c0.111,0.106,0.211,0.198,0.285,0.265
	c0.508,0.465,9.597,8.882,9.597,8.882c0.533,0.45,1.264,0.548,1.996,0.548c2.185,0,3.955-1.746,4.007-3.918h0.007v-0.073
	c0-0.009,0-0.016,0-0.022c0-0.009,0-0.011,0-0.022v-49.786c0-0.014,0.004-0.028,0.004-0.043
	C84.221,128.357,82.029,126.18,79.322,126.18z"/>
<path fill="#FFFFFF" d="M124.871,16.806c-59.604,0-108.094,48.517-108.094,108.151c0,59.635,48.491,108.153,108.094,108.153
	c59.602,0,108.09-48.519,108.09-108.153C232.961,65.322,184.473,16.806,124.871,16.806z M212.618,77.038c0,0,1.725,0.53,2.384,1.845
	c0.672,1.342-0.02,3.117-1.906,4.064c-2.678,1.344-4.788,0.228-4.788,0.228s-0.034,2.72-2.487,3.953
	c-3.075,1.544-6.253-0.465-7.324-2.597l1.588-0.795c0.672,1.337,2.681,2.439,4.591,1.481c1.562-0.784,2.056-2.335,1.685-3.639
	l1.485-0.748c0.375,0.497,2.163,1.4,4.095,0.429c1.066-0.535,1.527-1.292,1.215-1.913s-1.22-0.879-1.22-0.879L212.618,77.038z
	 M209.647,73.918c0.871,1.449,0.33,2.812-0.886,3.541c-2.305,1.385-6.221,0.628-9.084,1.736L201.362,82l-1.545,0.93l-2.857-4.759
	c3.402-2.045,9.03-1.345,10.601-2.288c0.569-0.344,0.574-0.769,0.33-1.171c-0.356-0.596-1.689-0.929-1.689-0.929l0.652-1.556
	C206.854,72.228,208.847,72.585,209.647,73.918z M206.531,69.576l-10.503,7.249l-1.118-1.621l10.501-7.249L206.531,69.576z
	 M201.664,64.929c0.94-0.733,1.239-1.567,0.813-2.116c-0.43-0.547-1.369-0.622-1.369-0.622l0.389-1.534c0,0,1.794,0.181,2.7,1.339
	c0.921,1.182,0.592,3.061-1.069,4.358c-2.362,1.846-4.649,1.17-4.649,1.17s0.501,2.67-1.664,4.362
	c-2.708,2.119-6.222,0.777-7.689-1.105l1.399-1.093c0.921,1.182,3.112,1.865,4.793,0.551c1.379-1.078,1.556-2.698,0.935-3.899
	l1.312-1.025C198.027,65.727,199.958,66.262,201.664,64.929z M188.621,67.737c-0.442-0.496-0.375-1.301,0.124-1.741
	c0.517-0.46,1.303-0.413,1.743,0.085c0.46,0.521,0.413,1.304-0.106,1.765C189.885,68.286,189.078,68.257,188.621,67.737z
	 M196.688,51.284c1.327,1.303,0.544,3.525-1.205,5.31c-1.03,1.051-2.217,1.787-3.296,1.936c0.011,1.179-0.642,2.597-1.847,3.827
	c-2.136,2.177-4.371,2.516-5.696,1.213c-1.307-1.283-1.013-3.524,1.122-5.704c1.205-1.229,2.61-1.909,3.789-1.922
	c0.126-1.08,0.819-2.304,1.849-3.353C193.153,50.807,195.381,50,196.688,51.284z M188.883,52.741
	c-1.734,2.057-5.685,2.605-8.037,4.579l2.498,2.114l-1.162,1.377l-4.24-3.582c2.56-3.032,8.112-4.19,9.292-5.591
	c0.429-0.508,0.298-0.91-0.062-1.215c-0.528-0.447-1.896-0.33-1.896-0.33l0.112-1.686c0,0,2-0.308,3.188,0.696
	C189.868,50.198,189.794,51.66,188.883,52.741z M186.214,43.931c0,0-2.278,0.16-5.638,2.659c0,0,0.648-0.043,1.143,0.316
	c1.167,0.849,1.118,3.042-0.923,5.848c-1.991,2.74-4.52,3.578-5.82,2.629c-1.367-0.994-1.507-3.257,1.086-6.826
	c3.165-4.355,7.871-6.114,10.098-6.487L186.214,43.931z M176.534,37.972l4.911,3.136c0,0-7.787,6.948-11.531,12.823l-1.637-1.045
	c3.372-5.288,10.141-11.57,10.141-11.57l-2.854-1.821L176.534,37.972z M172.118,37.832c1.63,0.894,1.756,3.494-0.375,7.391
	c-2.131,3.894-4.388,5.191-6.018,4.297c-1.605-0.877-1.733-3.479,0.397-7.373C168.253,38.248,170.511,36.953,172.118,37.832z
	 M165.039,30.378l-5.942,14.301c-0.49,1.179-2.009,2.487-3.174,2.907l-1.262-1.517c0.842-0.222,2.224-1.347,2.567-2.169
	l5.941-14.298L165.039,30.378z M154.185,26.379l1.238,0.415l0.352,10.518l3.143-9.338l1.764,0.591l-5.312,15.786l-1.235-0.418
	l-0.354-10.515l-3.143,9.337l-1.761-0.594L154.185,26.379z M141.222,37.367l1.576-7.866l-1.223-0.246l0.354-1.769l1.224,0.244
	l0.765-3.809l1.901,0.382l-0.763,3.811l1.305,0.262l-0.352,1.769l-1.305-0.262l-1.567,7.812c-0.238,1.197,0.206,2.081,0.565,2.545
	l-1.855,0.648C141.227,39.887,140.879,39.079,141.222,37.367z M147.15,39.612l-2.366,3.913l-1.059-0.266l1.628-4.095L147.15,39.612z
	 M133.739,26.989l1.808-0.772c0,0,0.587,0.637,0.713,1.184c0,0,0.957-0.908,2-0.772c1.486,0.194,2.127,1.509,1.978,2.666
	l-1.382,10.594l-1.925-0.249l1.255-9.634c0.135-1.046,0.079-1.475-0.389-1.534c-0.769-0.102-1.35,0.915-1.35,0.915l-1.305,10.019
	l-1.925-0.251l1.295-9.937C134.63,28.308,134.161,27.409,133.739,26.989z M126.366,32.352c0.232-4.437,1.705-6.583,3.56-6.485
	c1.829,0.097,3.069,2.383,2.84,6.819c-0.233,4.435-1.707,6.583-3.536,6.485C127.375,39.075,126.133,36.787,126.366,32.352z
	 M116.336,25.928c0,0,0.719,0.52,0.939,1.039c0,0,0.753-1.064,1.808-1.113c0.833-0.039,1.375,0.295,1.705,0.838
	c0.373-0.38,1.039-0.967,1.761-0.999c1.494-0.072,2.076,1.125,2.133,2.289l0.499,10.675l-1.942,0.09l-0.452-9.703
	c-0.063-1.331-0.153-1.466-0.512-1.448c-0.776,0.037-1.032,1.129-1.032,1.129l0.474,10.092l-1.941,0.091l-0.452-9.705
	c-0.063-1.329-0.153-1.464-0.515-1.445c-0.775,0.035-1.03,1.128-1.03,1.128l0.473,10.093l-1.94,0.09l-0.469-10.007
	c-0.041-0.917-0.664-1.721-1.151-2.06L116.336,25.928z M109.306,27.193l1.395,9.586c0.151,1.044,0.352,1.465,0.817,1.396
	c0.77-0.112,1.021-1.272,1.021-1.272l-1.45-9.97l1.923-0.281l1.44,9.915c0.133,0.908,0.854,1.618,1.347,1.938l-1.53,1.233
	c0,0-0.738-0.456-1.006-0.949c0,0-0.675,1.136-1.691,1.283c-1.51,0.222-2.482-0.871-2.654-2.053l-1.535-10.547L109.306,27.193z
	 M99.725,25.164c3.296-0.761,5.631,0.836,7.035,6.921c1.404,6.085,0.007,8.543-3.292,9.306l-1.295,0.299L98.43,25.461L99.725,25.164
	z M99.508,40.366l0.013,4.572l-1.038,0.325l-0.741-4.346L99.508,40.366z M94.357,41.909c0.65-0.238,1.362,0.098,1.598,0.748
	c0.227,0.628-0.094,1.364-0.749,1.599c-0.624,0.231-1.346-0.131-1.571-0.754C93.397,42.847,93.729,42.138,94.357,41.909z
	 M85.426,29.9l1.517,3.576l1.226-0.52l0.707,1.66l-1.229,0.523l3.115,7.332c0.475,1.123,1.342,1.599,1.901,1.784L91.5,45.837
	c-1.08-0.479-1.82-0.947-2.503-2.557l-3.134-7.382l-1.148,0.487l-0.705-1.66l1.146-0.488l-1.517-3.576L85.426,29.9z M78.836,32.607
	c1.316-0.658,2.793,0.314,2.793,0.314l-0.203,1.834c0,0-1.065-0.768-1.634-0.484c-0.646,0.32-0.574,0.966-0.227,1.662
	c1.326,2.657,6.534,5.02,8.005,7.977c0.88,1.763,0.158,3.49-1.305,4.219c-1.391,0.694-3.361-0.399-3.361-0.399l0.273-1.938
	c0,0,1.327,1.044,2.222,0.599c0.596-0.296,0.745-0.992,0.436-1.613c-1.017-2.036-6.349-4.649-8.008-7.976
	C76.961,35.062,77.446,33.301,78.836,32.607z M69.542,35.196l8.992,13.715c0.502,0.766,1.431,1.119,2.039,1.187l-0.867,1.765
	c-0.755-0.138-1.215-0.333-1.703-0.676c0.192,0.903-0.362,1.929-0.827,2.236c-1.436,0.944-3.558-0.321-5.994-4.034
	c-2.436-3.714-2.747-6.163-1.31-7.107c0.463-0.305,1.403-0.391,1.985-0.009l-3.942-6.011L69.542,35.196z M64.077,46.348
	c0.418-0.004,1.339,0.339,1.339,0.339s0.122-1.351,0.851-1.907l1.523,1.175c-0.727,0.556-0.844,2.005-0.844,2.005l6.127,8.033
	l-1.544,1.179l-6.073-7.965c-0.555-0.73-1.21-1.034-2.118-1.039L64.077,46.348z M59.5,50.229c1.442-1.261,2.641-0.98,4.431,1.066
	l4.326,4.952c0.604,0.691,1.593,0.895,2.181,0.897l-0.614,1.865c0,0-1.082-0.013-1.761-0.452c0,0,0.097,1.793-0.635,2.435
	c-0.982,0.859-2.589,0.199-4.122-1.556c-1.425-1.629-2.062-3.836-0.811-4.934l0.942-0.822l-0.969-1.106
	c-1.041-1.193-1.454-1.161-1.727-0.922c-0.521,0.457-0.535,1.537-0.397,2.117l-1.61-0.323C58.547,52.429,58.727,50.907,59.5,50.229z
	 M51.189,58.778c2.411,2.179,6.953,5.495,6.953,5.495s-3.032-4.103-5.599-6.921l1.165-1.229c2.949,2.417,7.184,5.249,7.184,5.249
	s-3.549-4.364-5.826-6.68l1.336-1.409c3.172,3.431,6.526,7.92,7.937,10.181l-1.126,1.188c-2.65-1.563-6.293-4.295-6.293-4.295
	s2.917,3.499,4.632,6.045l-1.146,1.208c-2.309-1.314-6.962-4.431-10.551-7.422L51.189,58.778z M46.964,63.428
	c1.133-1.437,3.717-1.13,7.201,1.624c3.483,2.751,4.384,5.196,3.248,6.635c-1.151,1.458-3.735,1.149-7.219-1.605
	C46.711,67.331,45.812,64.887,46.964,63.428z M38.525,69.016l6.099,4.052l1.274-1.92l-6.1-4.053l1.102-1.665l13.869,9.21
	l-1.106,1.665l-6.217-4.129l-1.272,1.92l6.216,4.127l-1.102,1.667l-13.87-9.208L38.525,69.016z M35.481,76.145
	c0,0,0.504,2.229,3.481,5.173c0,0-0.14-0.635,0.14-1.18c0.659-1.281,2.835-1.562,5.917,0.028c3.01,1.553,4.219,3.926,3.479,5.357
	c-0.774,1.505-2.988,1.985-6.908-0.039c-4.783-2.468-7.233-6.857-7.937-9.001L35.481,76.145z M33.523,81.067
	c0,0,8.032,6.664,14.395,9.489l-0.788,1.775c-5.729-2.543-12.948-8.301-12.948-8.301l-1.373,3.096l-1.648-0.731L33.523,81.067z
	 M24.526,124.856c0-3.595,2.912-6.506,6.5-6.506c3.589,0,6.502,2.912,6.502,6.506c0,3.591-2.913,6.503-6.502,6.503
	C27.438,131.359,24.526,128.447,24.526,124.856z M30.775,162.042l15.358-6.415l1.754,4.199l-1.713,0.716l-0.984-2.356l-5.044,2.107
	l0.93,2.227l-1.716,0.718l-0.93-2.229l-6.885,2.879L30.775,162.042z M34.211,170.362c-0.833-1.662,0.539-3.871,4.509-5.864
	c3.966-1.992,6.56-1.771,7.393-0.107c0.819,1.634-0.554,3.849-4.522,5.838C37.626,172.22,35.031,172,34.211,170.362z
	 M38.972,178.305l8.298-5.043c0.899-0.549,1.197-0.858,0.953-1.263c-0.401-0.664-1.558-0.48-1.558-0.48l-8.63,5.247l-1.008-1.663
	l8.56-5.202c0.781-0.476,1.19-1.407,1.255-1.997l1.729,0.928c0,0-0.126,0.859-0.476,1.297c0,0,1.31,0.181,1.855,1.08
	c0.779,1.283,0.153,2.604-0.842,3.209l-9.129,5.55L38.972,178.305z M46.512,180.094c-2.189,1.568-2.759,2.488-2.292,3.141
	c0.499,0.7,1.661,0.415,1.661,0.415l-0.277,1.668c0,0-2.013,0.279-2.998-1.097c-1.31-1.827-0.021-3.842,3.589-6.426
	c3.61-2.583,6.028-3.02,7.238-1.329c1.115,1.559-0.267,3.538-2.163,4.895c-0.496,0.355-1.063,0.661-1.063,0.661
	C48.49,181.956,47.366,181.291,46.512,180.094z M52.151,186.162c-0.514,0.425-1.318,0.366-1.758-0.17
	c-0.423-0.513-0.328-1.312,0.188-1.736c0.535-0.443,1.316-0.366,1.738,0.148C52.761,184.94,52.685,185.719,52.151,186.162z
	 M52.364,195.493l-3.756-4.087c2.918-2.688,8.574-3.14,9.918-4.377c0.493-0.453,0.411-0.868,0.091-1.216
	c-0.471-0.51-1.842-0.568-1.842-0.568l0.325-1.654c0,0,2.024-0.054,3.074,1.089c1.147,1.246,0.89,2.69-0.151,3.647
	c-1.979,1.824-5.967,1.873-8.549,3.534l2.217,2.41L52.364,195.493z M55.483,198.906c-1.332-1.255-0.804-3.803,2.239-7.038
	c3.041-3.235,5.551-3.921,6.886-2.666c1.354,1.274,0.821,3.822-2.219,7.057C59.348,199.494,56.838,200.18,55.483,198.906z
	 M59.606,202.223l8.158-9.818l1.515,1.261l-8.158,9.817L59.606,202.223z M65.805,205.29c-0.402,0.533-1.196,0.664-1.75,0.247
	c-0.53-0.401-0.625-1.2-0.223-1.733c0.417-0.555,1.194-0.664,1.725-0.262C66.111,203.958,66.22,204.736,65.805,205.29z
	 M66.43,207.947l0.982-1.478c1.249,0.829,3.54,0.791,4.725-0.989c0.968-1.455,0.629-3.05-0.34-3.996l0.921-1.385
	c0.57,0.244,2.571,0.145,3.77-1.658c0.662-0.995,0.684-1.879,0.105-2.263c-0.575-0.385-1.491-0.163-1.491-0.163l-0.118-1.577
	c0,0,1.763-0.393,2.986,0.42c1.249,0.832,1.523,2.717,0.357,4.473c-1.659,2.496-4.046,2.576-4.046,2.576s1.316,2.375-0.205,4.666
	C72.17,209.437,68.414,209.27,66.43,207.947z M72.324,211.823l0.88-1.546c1.3,0.743,3.584,0.545,4.643-1.312
	c0.866-1.52,0.418-3.086-0.616-3.963l0.823-1.447c0.586,0.208,2.576-0.032,3.647-1.915c0.589-1.036,0.55-1.922-0.052-2.265
	c-0.603-0.344-1.501-0.059-1.501-0.059l-0.225-1.563c0,0,1.731-0.515,3.009,0.213c1.302,0.74,1.709,2.604,0.666,4.436
	c-1.486,2.605-3.858,2.849-3.858,2.849s1.479,2.281,0.12,4.669C78.155,212.912,74.396,213.004,72.324,211.823z M85.358,213.872
	l-1.83,3.831l-1.754-0.838l1.833-3.831l-3.404-1.629c4.212-4.507,6.131-8.265,7.281-10.669l1.627,0.777
	c-1.986,4.157-4.903,8.394-5.815,9.34l1.102,0.527l1.088-2.277l1.752,0.836l-1.088,2.281l1.025,0.487l-0.79,1.655L85.358,213.872z
	 M89.4,218.224c-0.244,0.619-0.976,0.958-1.622,0.705c-0.618-0.243-0.921-0.989-0.677-1.61c0.255-0.644,0.976-0.958,1.594-0.713
	C89.341,216.86,89.653,217.578,89.4,218.224z M94.624,221.866c-1.748-0.549-2.504-2.68-1.589-5.591
	c0.517-1.643,1.46-2.888,2.506-3.431c-0.379-1.021-0.316-2.427,0.126-3.832c0.749-2.38,2.368-4.113,4.115-3.564
	c1.772,0.561,2.084,2.896,1.335,5.281c-0.438,1.402-1.165,2.6-2.06,3.221c0.547,1.043,0.608,2.607,0.091,4.247
	C98.233,221.111,96.396,222.423,94.624,221.866z M104.574,224.201l-5.402-1.27c0.908-3.864,5.33-7.413,5.75-9.198
	c0.154-0.651-0.149-0.949-0.607-1.058c-0.674-0.159-1.842,0.565-1.842,0.565l-0.662-1.549c0,0,1.646-1.184,3.158-0.828
	c1.646,0.387,2.244,1.727,1.921,3.104c-0.613,2.62-3.887,4.901-5.092,7.726l3.187,0.75L104.574,224.201z M113.284,219.193
	c-0.697,4.387-2.388,6.366-4.224,6.075c-1.808-0.29-2.801-2.697-2.104-7.082c0.698-4.387,2.391-6.365,4.197-6.079
	C112.991,212.401,113.984,214.808,113.284,219.193z M116.376,225.887l-1.96-0.188l1.22-12.711l1.959,0.19L116.376,225.887z
	 M123.839,221.411l-4.019-0.133l0.059-1.802l4.021,0.131L123.839,221.411z M124.784,205.631l-13.812-3.542l-14.213-1.325
	l-11.756-7.986l-12.895-6.038l-8.271-11.466l-10.023-10.021l-3.793-13.562l-5.941-12.794l1.142-14.026l-1.142-14.021l5.941-12.794
	l3.793-13.562l10.023-10.021l8.271-11.465l12.895-6.038l11.756-7.986l14.213-1.33l13.812-3.54l13.819,3.54l14.211,1.33l11.752,7.986
	l12.899,6.038l8.27,11.465l10.023,10.021l3.794,13.562l5.94,12.794l-1.143,14.021l1.143,14.026l-5.94,12.794l-3.794,13.562
	l-10.023,10.021l-8.27,11.466l-12.899,6.038l-11.752,7.986l-14.211,1.325L124.784,205.631z M134.513,225.875l-1.439,0.09
	c-0.962-3.418-2.104-9.657-2.104-9.657s-0.353,6.334-0.858,9.842l-1.44,0.09c-0.895-2.78-3.039-12.602-3.391-16.474l2.077-0.131
	c0.311,3.653,1.603,10.97,1.603,10.97s0.768-6.389,0.804-11.118l1.58-0.1c0.626,4.69,2.156,10.933,2.156,10.933
	s0.397-7.423,0.25-11.084l2.05-0.129C135.931,212.993,135.027,223.006,134.513,225.875z M146.274,224.098l-1.61,0.293
	c-1.216-2.825-2.546-7.183-2.546-7.183s0.291,4.545,0.171,7.615l-1.636,0.296c-1.088-2.423-3.007-7.689-4.14-12.224l1.91-0.347
	c0.664,3.18,2.37,8.541,2.37,8.541s-0.023-5.103-0.432-8.894l1.664-0.302c0.953,3.691,2.7,8.479,2.7,8.479s-0.289-5.618-0.76-8.834
	l1.91-0.345C146.41,215.835,146.469,221.437,146.274,224.098z M155.941,221.506c-1.536-2.667-3.354-6.842-3.354-6.842
	s0.81,4.482,1.047,7.545l-1.595,0.483c-1.36-2.281-3.868-7.291-5.516-11.665l1.855-0.565c1.024,3.082,3.335,8.209,3.335,8.209
	s-0.609-5.064-1.451-8.783l1.619-0.493c1.373,3.556,3.657,8.114,3.657,8.114s-0.935-5.547-1.774-8.688l1.86-0.563
	c1.063,4.549,1.768,10.107,1.882,12.771L155.941,221.506z M161.183,219.964c-0.623,0.239-1.349-0.108-1.584-0.732
	c-0.249-0.646,0.072-1.364,0.696-1.599c0.645-0.249,1.363,0.072,1.609,0.718C162.141,218.974,161.831,219.718,161.183,219.964z
	 M168.132,217.031c-0.501,0.23-1.621,0.149-2.141-0.316l2.061,5.313l-1.762,0.809l-5.725-13.662
	c-0.379-0.833-1.257-1.346-1.837-1.477l1.124-1.616c0.723,0.246,1.138,0.486,1.58,0.924c-0.065-0.949,0.646-1.854,1.151-2.087
	c1.562-0.716,3.473,0.849,5.323,4.888C169.754,213.844,169.695,216.313,168.132,217.031z M174.34,213.994
	c-1.118-0.368-1.903-0.759-2.746-2.292l-3.855-7.03l-1.098,0.6l-0.867-1.58l1.094-0.602L165,199.684l1.703-0.936l1.869,3.407
	l1.167-0.643l0.867,1.581l-1.165,0.642l3.83,6.982c0.589,1.071,1.498,1.457,2.072,1.583L174.34,213.994z M178.899,211.317
	c-1.135-0.31-1.942-0.66-2.859-2.146l-8.527-13.784l1.652-1.023l8.497,13.736c0.642,1.039,1.569,1.378,2.152,1.475L178.899,211.317z
	 M183.809,207.921c-1.516,1.073-3.907,0.043-6.468-3.583c-2.564-3.625-2.733-6.226-1.214-7.298c1.495-1.058,3.885-0.029,6.448,3.599
	C185.135,204.265,185.306,206.865,183.809,207.921z M193.731,205.764l-2.052,0.656c0.31-1.27,0.048-2.797-0.738-3.737
	c-1.065-1.28-2.461-1.311-3.315-0.597l-0.275,0.23l-0.69-1.739c-0.928,0.232-2.754-0.05-4.459-2.096
	c-1.777-2.133-1.96-4.476-0.53-5.665c0.51-0.427,1.458-0.462,1.934-0.279c-0.068-0.341-0.092-0.934-0.029-1.42l1.938-0.318
	c-0.131,0.58-0.044,1.592,0.541,2.297l1.068,1.279c1.582,1.897,1.905,3.976,0.963,5.231c1.093-0.336,2.682-0.253,4.123,1.476
	C193.415,202.529,193.844,204.21,193.731,205.764z M196.333,197.47c-1.329,1.301-3.852,0.666-6.958-2.508
	c-3.106-3.172-3.689-5.709-2.359-7.011c1.307-1.283,3.831-0.646,6.937,2.525C197.059,193.65,197.639,196.187,196.333,197.47z
	 M200.82,192.78c-0.443,0.497-1.247,0.521-1.744,0.076c-0.517-0.46-0.559-1.244-0.118-1.741c0.46-0.518,1.246-0.563,1.761-0.098
	C201.217,191.46,201.283,192.263,200.82,192.78z M204.748,188.14c-1.341,1.663-3.833,1.215-7.287-1.575
	c-3.452-2.79-4.411-5.133-3.071-6.797c1.011-1.253,2.936-0.806,2.936-0.806l0.18,1.717c0,0-1.029-0.405-1.568,0.266
	c-0.506,0.626,0.151,1.8,2.849,3.979c2.698,2.181,3.981,2.578,4.488,1.95c0.539-0.668-0.093-1.608-0.093-1.608l1.715-0.181
	C204.896,185.086,205.759,186.889,204.748,188.14z M208.807,182.678c-1.059,1.527-3.658,1.38-7.305-1.152
	c-3.647-2.53-4.695-4.911-3.639-6.44c1.045-1.507,3.643-1.358,7.291,1.172C208.802,178.789,209.85,181.171,208.807,182.678z
	 M215.185,171.642l-8.491-4.713c-1.163-0.648-1.325-0.641-1.499-0.327c-0.38,0.68,0.419,1.474,0.419,1.474l8.829,4.904l-0.941,1.698
	l-8.49-4.716c-1.162-0.646-1.325-0.642-1.5-0.325c-0.377,0.68,0.419,1.473,0.419,1.473l8.831,4.901l-0.943,1.699l-8.755-4.861
	c-0.801-0.445-1.811-0.339-2.357-0.102l-0.05-1.967c0,0,0.82-0.334,1.375-0.249c0,0-0.508-1.202,0.004-2.125
	c0.404-0.73,0.976-1.014,1.61-1.012c-0.126-0.515-0.276-1.389,0.072-2.021c0.727-1.311,2.05-1.18,3.069-0.615l9.337,5.187
	L215.185,171.642z M218.509,131.359c-3.589,0-6.498-2.912-6.498-6.503c0-3.595,2.909-6.506,6.498-6.506
	c3.59,0,6.502,2.912,6.502,6.506C225.011,128.447,222.099,131.359,218.509,131.359z"/>
<path fill="#FFFFFF" d="M182.826,194.203c-0.617,0.515,0.105,1.862,0.996,2.928c0.889,1.066,2.1,2.043,2.718,1.527
	c0.618-0.515-0.146-1.865-1.034-2.932C184.616,194.66,183.442,193.686,182.826,194.203z"/>
<path fill="#FFFFFF" d="M239.681,125c0-63.23-51.447-114.673-114.685-114.673C61.762,10.327,10.319,61.77,10.319,125
	c0,63.232,51.443,114.677,114.676,114.677C188.233,239.677,239.681,188.232,239.681,125z M124.871,235.609
	c-60.979,0-110.591-49.639-110.591-110.652c0-61.012,49.612-110.649,110.591-110.649c60.978,0,110.587,49.637,110.587,110.649
	C235.458,185.97,185.849,235.609,124.871,235.609z"/>
<path fill="#FFFFFF" d="M177.328,198.739c-0.568,0.402-0.266,1.549,1.733,4.382c2.001,2.832,2.981,3.501,3.549,3.099
	c0.565-0.4,0.242-1.532-1.758-4.364C178.85,199.023,177.893,198.342,177.328,198.739z"/>
<path fill="#FFFFFF" d="M100.737,126.224l-3.566,6.185l-3.579-6.205v-0.039l-6.774,0.009v63.97c2.199,1.257,4.469,2.394,6.799,3.436
	l-0.025-53.96l3.579,6.203l3.566-6.186l0.004,56.685c2.229,0.731,4.488,1.403,6.808,1.924l0.004-72.082h-6.817V126.224z"/>
<path fill="#FFFFFF" d="M162.89,206.916c-0.731,0.337-0.49,1.6,0.956,4.753c1.447,3.154,2.244,4.164,2.975,3.826
	c0.729-0.334,0.614-1.653-0.833-4.809C164.542,207.533,163.619,206.582,162.89,206.916z"/>
<path fill="#FFFFFF" d="M122.811,126.145c-0.379,0-0.984,0.02-1.541,0.02l-2.207-0.02c-1.412,0-2.844,0-4.032,0
	c-2.709,0-4.902,2.193-4.899,4.9c0,0.027,0,0.04,0,0.043c0,1.187,0,25.36,0,25.365c2.213,0.449,4.459,0.815,6.735,1.057
	l0.002-24.646l4.149-0.002v28.85c-2.149-0.103-4.294-0.269-6.412-0.535c-0.088-0.002-0.171-0.024-0.258-0.024
	c-2.318,0-4.217,1.829-4.217,4.151c0,0.09,0.019,29.189,0.028,29.189c0,0.042-0.009,0.077-0.009,0.118
	c0,2.277,1.209,4.527,4.935,4.88c1.965,0.238,5.933,0.496,5.933,0.496c1.083,0.048,2.162,0.125,3.255,0.125
	c1.157,0,2.303-0.036,3.447-0.092l-0.013-69.097C127.621,128.292,125.46,126.145,122.811,126.145z M121.018,193.295
	c-1.386-0.063-2.756-0.176-4.129-0.321v-24.888c1.375,0.135,2.743,0.234,4.129,0.293V193.295z"/>
<path fill="#FFFFFF" d="M188.471,189.437c-0.496,0.486-0.018,1.572,2.409,4.05c2.427,2.478,3.501,2.98,3.995,2.496
	c0.495-0.487-0.002-1.552-2.431-4.03C190.02,189.473,188.966,188.954,188.471,189.437z"/>
<path fill="#FFFFFF" d="M148.198,192.243c0-0.055-0.013-0.096-0.013-0.141h0.024l0.002-28.417h-0.022
	c0-0.038,0.009-0.072,0.009-0.107c0-2.395-1.955-4.334-4.37-4.334c-0.334,0-0.655,0.063-0.971,0.135l-0.013-0.052l-5.535,1.159
	l0.002-28.092l4.138-0.002l0.004,23.592c2.284-0.521,4.532-1.147,6.734-1.87v-0.002c0,0,0.011-22.921,0.011-23.031
	c0-2.709-2.185-4.905-4.883-4.905c-0.057,0-7.666,0-7.813,0c-2.686,0-4.866,2.187-4.881,4.879h-0.015l0.002,32.284
	c0,0.018-0.009,0.032-0.009,0.045c0,2.413,1.991,4.334,4.402,4.334c0.118,0,0.229-0.024,0.343-0.039l0.004,0.019l0.167-0.032
	c0.258-0.031,0.51-0.083,0.754-0.158l5.197-1.087l0.004,24.801c-3.558,0.908-7.192,1.54-10.872,1.874v6.695
	c4.375-0.365,8.716-1.109,12.939-2.218C146.168,197.204,148.198,194.968,148.198,192.243z"/>
<path fill="#FFFFFF" d="M203.953,177.994c-2.851-1.98-3.984-2.292-4.379-1.722c-0.395,0.569,0.28,1.545,3.128,3.524
	c2.849,1.974,4,2.265,4.394,1.693C207.493,180.921,206.802,179.967,203.953,177.994z"/>
<path d="M124.871,14.308c-60.979,0-110.591,49.637-110.591,110.649c0,61.013,49.612,110.652,110.591,110.652
	c60.978,0,110.587-49.639,110.587-110.652C235.458,63.945,185.849,14.308,124.871,14.308z M124.871,233.11
	c-59.604,0-108.094-48.519-108.094-108.153c0-59.634,48.491-108.151,108.094-108.151c59.602,0,108.09,48.517,108.09,108.151
	C232.961,184.591,184.473,233.11,124.871,233.11z"/>
<polygon points="39.36,163.238 41.076,162.52 40.146,160.293 45.189,158.186 46.174,160.542 47.887,159.826 46.133,155.626 
	30.775,162.042 31.545,163.887 38.43,161.008 "/>
<path d="M46.113,164.391c-0.833-1.664-3.427-1.884-7.393,0.107c-3.97,1.993-5.341,4.202-4.509,5.864
	c0.82,1.638,3.416,1.858,7.379-0.133C45.559,168.24,46.932,166.025,46.113,164.391z M36.071,169.43
	c-0.311-0.622,0.495-1.489,3.592-3.047c3.102-1.555,4.28-1.681,4.592-1.06c0.309,0.622-0.508,1.466-3.608,3.021
	C37.548,169.9,36.38,170.052,36.071,169.43z"/>
<path d="M49.95,171.208c-0.546-0.899-1.855-1.08-1.855-1.08c0.35-0.438,0.476-1.297,0.476-1.297l-1.729-0.928
	c-0.065,0.589-0.474,1.521-1.255,1.997l-8.56,5.202l1.008,1.663l8.63-5.247c0,0,1.157-0.183,1.558,0.48
	c0.244,0.405-0.054,0.714-0.953,1.263l-8.298,5.043l1.007,1.663l9.129-5.55C50.103,173.812,50.729,172.491,49.95,171.208z"/>
<path d="M51.271,181.361c1.896-1.357,3.278-3.336,2.163-4.895c-1.209-1.691-3.628-1.255-7.238,1.329
	c-3.61,2.584-4.898,4.6-3.589,6.426c0.984,1.376,2.998,1.097,2.998,1.097l0.277-1.668c0,0-1.162,0.285-1.661-0.415
	c-0.467-0.653,0.102-1.573,2.292-3.141c0.854,1.197,1.978,1.862,3.695,1.928C50.208,182.021,50.774,181.716,51.271,181.361z
	 M47.955,179.06c2.255-1.613,3.578-2.151,4.045-1.495c0.292,0.406-0.221,1.215-1.279,1.974c-0.316,0.226-0.947,0.54-0.947,0.54
	C48.977,179.967,48.568,179.918,47.955,179.06z"/>
<path d="M50.581,184.255c-0.515,0.425-0.61,1.224-0.188,1.736c0.439,0.536,1.244,0.595,1.758,0.17
	c0.534-0.443,0.61-1.222,0.167-1.758C51.896,183.889,51.115,183.812,50.581,184.255z"/>
<path d="M60.023,188.328c1.041-0.958,1.298-2.401,0.151-3.647c-1.05-1.143-3.074-1.089-3.074-1.089l-0.325,1.654
	c0,0,1.372,0.058,1.842,0.568c0.319,0.349,0.401,0.764-0.091,1.216c-1.345,1.237-7,1.689-9.918,4.377l3.756,4.087l1.327-1.222
	l-2.217-2.41C54.056,190.2,58.043,190.151,60.023,188.328z"/>
<path d="M62.389,196.259c3.041-3.235,3.573-5.783,2.219-7.057c-1.335-1.256-3.845-0.569-6.886,2.666
	c-3.043,3.235-3.571,5.783-2.239,7.038C56.838,200.18,59.348,199.494,62.389,196.259z M56.91,197.388
	c-0.506-0.474-0.028-1.549,2.347-4.075c2.375-2.529,3.418-3.072,3.924-2.595c0.506,0.476,0.05,1.569-2.327,4.095
	C58.476,197.343,57.415,197.865,56.91,197.388z"/>
<rect x="58.06" y="196.959" transform="matrix(0.6391 -0.7691 0.7691 0.6391 -128.9878 121.0065)" width="12.765" height="1.97"/>
<path d="M63.832,203.803c-0.401,0.534-0.307,1.333,0.223,1.733c0.554,0.417,1.348,0.286,1.75-0.247
	c0.415-0.554,0.306-1.333-0.249-1.749C65.026,203.14,64.249,203.248,63.832,203.803z"/>
<path d="M74.076,206.573c1.521-2.291,0.205-4.666,0.205-4.666s2.387-0.08,4.046-2.576c1.166-1.756,0.891-3.641-0.357-4.473
	c-1.223-0.813-2.986-0.42-2.986-0.42l0.118,1.577c0,0,0.917-0.222,1.491,0.163c0.578,0.384,0.556,1.268-0.105,2.263
	c-1.198,1.802-3.199,1.902-3.77,1.658l-0.921,1.385c0.97,0.946,1.308,2.541,0.34,3.996c-1.185,1.78-3.477,1.817-4.725,0.989
	l-0.982,1.478C68.414,209.27,72.17,209.437,74.076,206.573z"/>
<path d="M79.74,205.251c0,0,2.373-0.244,3.858-2.849c1.043-1.831,0.636-3.695-0.666-4.436c-1.278-0.728-3.009-0.213-3.009-0.213
	l0.225,1.563c0,0,0.899-0.285,1.501,0.059c0.603,0.343,0.642,1.229,0.052,2.265c-1.072,1.882-3.062,2.122-3.647,1.915l-0.823,1.447
	c1.035,0.877,1.482,2.443,0.616,3.963c-1.059,1.857-3.343,2.055-4.643,1.312l-0.88,1.546c2.072,1.181,5.831,1.088,7.535-1.902
	C81.219,207.533,79.74,205.251,79.74,205.251z"/>
<path d="M86.148,212.22l1.088-2.281l-1.752-0.836l-1.088,2.277l-1.102-0.527c0.912-0.946,3.829-5.184,5.815-9.34l-1.627-0.777
	c-1.15,2.404-3.068,6.162-7.281,10.669l3.404,1.629l-1.833,3.831l1.754,0.838l1.83-3.831l1.025,0.491l0.79-1.655L86.148,212.22z"/>
<path d="M88.695,216.605c-0.618-0.244-1.338,0.07-1.594,0.713c-0.244,0.622,0.059,1.367,0.677,1.61
	c0.646,0.253,1.377-0.085,1.622-0.705C89.653,217.578,89.341,216.86,88.695,216.605z"/>
<path d="M99.057,213.95c0.895-0.621,1.622-1.819,2.06-3.221c0.749-2.385,0.438-4.721-1.335-5.281
	c-1.747-0.548-3.366,1.184-4.115,3.564c-0.443,1.405-0.506,2.811-0.126,3.832c-1.045,0.543-1.989,1.789-2.506,3.431
	c-0.915,2.911-0.159,5.042,1.589,5.591c1.772,0.557,3.61-0.755,4.524-3.669C99.665,216.557,99.604,214.994,99.057,213.95z
	 M97.138,217.565c-0.625,1.987-1.369,2.771-1.976,2.579c-0.583-0.182-0.74-1.251-0.115-3.236c0.624-1.986,1.364-2.772,1.946-2.586
	C97.603,214.511,97.762,215.58,97.138,217.565z M97.535,212.6c-0.583-0.186-0.533-1.274,0.009-2.996
	c0.502-1.59,1.116-2.618,1.698-2.436c0.607,0.192,0.497,1.378-0.004,2.968C98.698,211.858,98.142,212.79,97.535,212.6z"/>
<path d="M106.89,213.968c0.323-1.377-0.275-2.717-1.921-3.104c-1.512-0.356-3.158,0.828-3.158,0.828l0.662,1.549
	c0,0,1.167-0.724,1.842-0.565c0.458,0.109,0.761,0.406,0.607,1.058c-0.42,1.785-4.842,5.333-5.75,9.198l5.402,1.27l0.411-1.757
	l-3.187-0.75C103.003,218.87,106.277,216.588,106.89,213.968z"/>
<path d="M111.153,212.107c-1.807-0.286-3.499,1.692-4.197,6.079c-0.697,4.385,0.296,6.792,2.104,7.082
	c1.835,0.292,3.526-1.688,4.224-6.075C113.984,214.808,112.991,212.401,111.153,212.107z M111.203,218.861
	c-0.547,3.427-1.132,4.459-1.815,4.352c-0.686-0.111-0.894-1.27-0.347-4.694c0.543-3.427,1.102-4.463,1.788-4.354
	C111.511,214.273,111.749,215.437,111.203,218.861z"/>
<rect x="115.022" y="213.055" transform="matrix(-0.9955 -0.0952 0.0952 -0.9955 210.5877 448.9275)" width="1.969" height="12.767"/>
<rect x="119.85" y="219.54" transform="matrix(-0.9995 -0.0332 0.0332 -0.9995 236.3459 444.8036)" width="4.021" height="1.805"/>
<path d="M133.75,209.236c0.146,3.661-0.25,11.084-0.25,11.084s-1.53-6.243-2.156-10.933l-1.58,0.1
	c-0.036,4.729-0.804,11.118-0.804,11.118s-1.292-7.316-1.603-10.97l-2.077,0.131c0.353,3.872,2.497,13.694,3.391,16.474l1.44-0.09
	c0.505-3.508,0.858-9.842,0.858-9.842s1.142,6.239,2.104,9.657l1.439-0.09c0.515-2.87,1.418-12.883,1.287-16.768L133.75,209.236z"/>
<path d="M143.965,211.538c0.472,3.217,0.76,8.834,0.76,8.834s-1.747-4.789-2.7-8.479l-1.664,0.302
	c0.409,3.791,0.432,8.894,0.432,8.894s-1.707-5.36-2.37-8.541l-1.91,0.347c1.133,4.534,3.052,9.8,4.14,12.224l1.636-0.296
	c0.12-3.069-0.171-7.615-0.171-7.615s1.33,4.358,2.546,7.183l1.61-0.293c0.194-2.661,0.136-8.263-0.399-12.905L143.965,211.538z"/>
<path d="M153.765,208.822c0.839,3.141,1.774,8.688,1.774,8.688s-2.285-4.559-3.657-8.114l-1.619,0.493
	c0.842,3.719,1.451,8.783,1.451,8.783s-2.312-5.127-3.335-8.209l-1.855,0.565c1.648,4.374,4.156,9.384,5.516,11.665l1.595-0.483
	c-0.237-3.063-1.047-7.545-1.047-7.545s1.819,4.175,3.354,6.842l1.566-0.477c-0.114-2.663-0.819-8.222-1.882-12.771L153.765,208.822
	z"/>
<path d="M160.294,217.632c-0.624,0.235-0.944,0.954-0.696,1.599c0.235,0.624,0.962,0.971,1.584,0.732
	c0.648-0.246,0.958-0.99,0.72-1.613C161.657,217.705,160.938,217.384,160.294,217.632z"/>
<path d="M162.582,204.919c-0.505,0.233-1.216,1.139-1.151,2.087c-0.442-0.438-0.857-0.678-1.58-0.924l-1.124,1.616
	c0.58,0.131,1.458,0.644,1.837,1.477l5.725,13.662l1.762-0.809l-2.061-5.313c0.52,0.466,1.639,0.547,2.141,0.316
	c1.563-0.718,1.623-3.188-0.227-7.224C166.055,205.769,164.145,204.204,162.582,204.919z M166.82,215.495
	c-0.731,0.337-1.528-0.672-2.975-3.826c-1.445-3.153-1.687-4.416-0.956-4.753c0.729-0.334,1.652,0.617,3.097,3.771
	C167.434,213.842,167.549,215.161,166.82,215.495z"/>
<path d="M173.27,210.718l-3.83-6.982l1.165-0.642l-0.867-1.581l-1.167,0.643l-1.869-3.407L165,199.684l1.869,3.406l-1.094,0.602
	l0.867,1.58l1.098-0.6l3.855,7.03c0.842,1.534,1.628,1.924,2.746,2.292l1.002-1.692C174.768,212.175,173.859,211.789,173.27,210.718
	z"/>
<path d="M177.662,208.1l-8.497-13.736l-1.652,1.023l8.527,13.784c0.917,1.486,1.724,1.836,2.859,2.146l0.915-1.742
	C179.231,209.478,178.304,209.139,177.662,208.1z"/>
<path d="M176.127,197.041c-1.519,1.073-1.351,3.673,1.214,7.298c2.561,3.625,4.952,4.655,6.468,3.583
	c1.497-1.057,1.326-3.657-1.234-7.282C180.013,197.012,177.622,195.983,176.127,197.041z M182.61,206.22
	c-0.568,0.403-1.548-0.267-3.549-3.099c-2-2.833-2.301-3.98-1.733-4.382c0.565-0.397,1.521,0.284,3.524,3.117
	C182.853,204.688,183.175,205.82,182.61,206.22z"/>
<path d="M188.087,199.606c0.942-1.255,0.619-3.333-0.963-5.231l-1.068-1.279c-0.585-0.705-0.671-1.717-0.541-2.297l-1.938,0.318
	c-0.063,0.486-0.039,1.08,0.029,1.42c-0.476-0.183-1.424-0.148-1.934,0.279c-1.43,1.189-1.247,3.532,0.53,5.665
	c1.705,2.046,3.531,2.328,4.459,2.096l0.69,1.739l0.275-0.23c0.854-0.714,2.25-0.684,3.315,0.597
	c0.786,0.94,1.047,2.467,0.738,3.737l2.052-0.656c0.113-1.554-0.316-3.235-1.521-4.682
	C190.769,199.353,189.18,199.27,188.087,199.606z M186.539,198.657c-0.618,0.516-1.829-0.46-2.718-1.527
	c-0.89-1.065-1.612-2.413-0.996-2.928c0.616-0.517,1.79,0.458,2.679,1.522C186.393,196.792,187.157,198.142,186.539,198.657z"/>
<path d="M187.015,187.951c-1.33,1.302-0.747,3.839,2.359,7.011c3.106,3.174,5.629,3.809,6.958,2.508
	c1.306-1.283,0.727-3.82-2.38-6.994C190.846,187.305,188.322,186.667,187.015,187.951z M194.875,195.983
	c-0.494,0.484-1.568-0.018-3.995-2.496c-2.427-2.478-2.905-3.564-2.409-4.05c0.495-0.483,1.549,0.037,3.974,2.517
	C194.873,194.431,195.37,195.496,194.875,195.983z"/>
<path d="M198.959,191.116c-0.441,0.497-0.399,1.28,0.118,1.741c0.497,0.445,1.301,0.421,1.744-0.076
	c0.462-0.517,0.397-1.32-0.1-1.762C200.205,190.553,199.419,190.598,198.959,191.116z"/>
<path d="M203.181,185.267c0,0,0.632,0.94,0.093,1.608c-0.506,0.628-1.79,0.231-4.488-1.95c-2.698-2.179-3.355-3.354-2.849-3.979
	c0.539-0.671,1.568-0.266,1.568-0.266l-0.18-1.717c0,0-1.924-0.447-2.936,0.806c-1.34,1.664-0.381,4.007,3.071,6.797
	c3.454,2.79,5.946,3.237,7.287,1.575c1.012-1.251,0.148-3.054,0.148-3.054L203.181,185.267z"/>
<path d="M205.154,176.258c-3.648-2.53-6.246-2.679-7.291-1.172c-1.057,1.529-0.009,3.91,3.639,6.44
	c3.647,2.532,6.247,2.679,7.305,1.152C209.85,181.171,208.802,178.789,205.154,176.258z M207.096,181.49
	c-0.393,0.571-1.545,0.281-4.394-1.693c-2.849-1.979-3.523-2.956-3.128-3.524c0.395-0.569,1.528-0.258,4.379,1.722
	C206.802,179.967,207.493,180.921,207.096,181.49z"/>
<path d="M203.719,165.371c-0.349,0.632-0.199,1.507-0.072,2.021c-0.635-0.002-1.206,0.282-1.61,1.012
	c-0.513,0.923-0.004,2.125-0.004,2.125c-0.555-0.085-1.375,0.249-1.375,0.249l0.05,1.967c0.546-0.237,1.556-0.343,2.357,0.102
	l8.755,4.861l0.943-1.699l-8.831-4.901c0,0-0.797-0.792-0.419-1.473c0.175-0.316,0.338-0.321,1.5,0.325l8.49,4.716l0.941-1.698
	l-8.829-4.904c0,0-0.799-0.793-0.419-1.474c0.174-0.314,0.336-0.321,1.499,0.327l8.491,4.713l0.941-1.699l-9.337-5.187
	C205.769,164.191,204.446,164.06,203.719,165.371z"/>
<ellipse cx="218.509" cy="124.854" rx="6.498" ry="6.505"/>
<ellipse cx="31.027" cy="124.856" rx="6.501" ry="6.506"/>
<path d="M116.889,192.974c1.373,0.145,2.743,0.258,4.129,0.321v-24.916c-1.386-0.059-2.754-0.158-4.129-0.293V192.974z"/>
<polygon points="122.815,82.628 122.833,82.628 122.815,82.616 "/>
<path d="M97.86,94.514c-1.48,0.615-2.921,1.315-4.357,2.031v20.477h4.357V94.514z"/>
<path d="M73.322,78.332v24.08c1.386-1.27,2.808-2.501,4.28-3.66V74.012C76.107,75.388,74.685,76.833,73.322,78.332z"/>
<path d="M152.814,200.764l11.752-7.986l12.899-6.038l8.27-11.466l10.023-10.021l3.794-13.562l5.94-12.794l-1.143-14.026
	l1.143-14.021l-5.94-12.794l-3.794-13.562l-10.023-10.021l-8.27-11.465l-12.899-6.038l-11.752-7.986l-14.211-1.33l-13.819-3.54
	l-13.812,3.54l-14.213,1.33l-11.756,7.986l-12.895,6.038l-8.271,11.465L53.813,84.494L50.02,98.056l-5.941,12.794l1.142,14.021
	l-1.142,14.026l5.941,12.794l3.793,13.562l10.023,10.021l8.271,11.466l12.895,6.038l11.756,7.986l14.213,1.325l13.812,3.542
	l13.819-3.542L152.814,200.764z M63.965,169.993c-2.529-3.352-4.756-6.935-6.703-10.688l-0.002-26.452h-6.445v-6.673h19.672v6.673
	h-6.52L63.965,169.993z M84.216,131.086v49.786c0,0.011,0,0.013,0,0.022c0,0.007,0,0.014,0,0.022v0.073h-0.007
	c-0.052,2.173-1.822,3.918-4.007,3.918c-0.731,0-1.463-0.099-1.996-0.548c0,0-9.088-8.417-9.597-8.882
	c-0.074-0.067-0.174-0.159-0.285-0.265c-0.653-0.625-1.809-1.961-1.809-4.593c0.008-2.388,0-1.372,0-1.372v-33.774h6.705v35.234
	c1.368,1.509,2.795,2.968,4.289,4.354v-42.208h-4.42v-6.673c0,0,6.142,0,6.231,0c2.707,0,4.898,2.177,4.898,4.863
	C84.221,131.058,84.216,131.072,84.216,131.086z M84.277,98.736c0,0.031-0.011,0.057-0.011,0.09v0.207h-0.018
	c-0.086,1.909-0.967,3.589-2.322,4.752l0.019,0.023c-3.095,2.419-5.974,5.127-8.624,8.048v11.868h-6.701V75.864
	c0,0,7.355-7.842,11.604-11.118c0.63-0.479,1.411-0.77,2.261-0.77c2.082,0,3.791,1.694,3.791,3.771
	C84.277,67.814,84.277,98.697,84.277,98.736z M185.067,169.347c-3.953,5.353-8.752,10.44-14.104,14.544v-57.746l6.673,0.024
	l-0.002,41.723c2.783-3.452,5.348-7.308,7.434-11.22V169.347z M185.266,126.204v-0.016l7.49,0.007
	c0.061-0.002,0.118-0.021,0.181-0.021c2.693,0,4.878,2.196,4.878,4.905c0,0.114-0.024,0.223-0.033,0.336h0.033l-0.002,10.137
	l0.005,0.004c-0.002,0.004-0.002,0.01-0.005,0.015v0.004c-0.002,0.013-0.004,0.024-0.009,0.035c-0.298,1.289-0.639,2.558-1.002,3.82
	c-0.057,0.201-0.1,0.407-0.159,0.604h-0.022c-2.05,6.882-5.071,13.422-8.951,19.421V151.16c1.442-3.395,2.634-6.896,3.501-10.506
	l-0.022-7.792l-4.217,0.002v14.328c-1.733,4.793-3.987,9.334-6.707,13.542l-0.002-27.335v-2.162h0.032
	c0-0.057-0.014-0.106-0.014-0.16c0-2.7,2.184-4.886,4.88-4.886C185.175,126.191,185.216,126.202,185.266,126.204z M165.612,61.393
	c2.324,1.52,4.567,3.146,6.705,4.901v33.583c0.002,0.002,0.006,0.004,0.006,0.004l4.249-7.362V70.118
	c2.377,2.286,4.605,4.726,6.667,7.306c0,0,0.022,14.341,0,15.355c-0.02,1.015-0.343,1.55-0.343,1.55l-5.502,10.142
	c1.257,1.247,2.462,2.545,3.63,3.876c1.353,1.252,2.207,3.021,2.233,5v0.033c0,0.017,0.009,0.032,0.009,0.045
	c0,0.018-0.009,0.042-0.009,0.063v10.239h-6.705v-10.379c-1.34-1.568-2.747-3.084-4.234-4.535v14.916h-6.705V61.393z
	 M168.377,126.169l-0.002,55.675c0.002,0.07,0.021,0.138,0.021,0.21c0,0.078-0.019,0.141-0.021,0.211v0.168h-0.018
	c-0.104,2.209-1.183,4.103-2.809,5.338l0.01,0.011c-0.037,0.027-0.073,0.045-0.109,0.067c-0.318,0.235-0.664,0.434-1.017,0.617
	c-2.573,1.62-5.232,3.108-7.959,4.396c-0.068,0.035-0.126,0.074-0.199,0.102c-0.037,0.018-0.063,0.037-0.095,0.05L156.171,193
	c-0.443,0.167-0.913,0.269-1.413,0.269c-2.186,0-3.959-1.773-3.959-3.958c0-0.037,0.009-0.069,0.009-0.1h-0.023v-63.042h6.705
	l-0.002,58.686c1.438-0.79,2.851-1.639,4.222-2.529l-0.002-56.157H168.377z M149.593,53.662c0.359,0,0.7,0.063,1.03,0.146
	l0.009-0.016c0.07,0.022,0.138,0.059,0.208,0.081c0.231,0.078,0.454,0.163,0.668,0.281c2.44,0.944,4.845,2.035,7.184,3.237
	c2.538,0.934,4.364,3.32,4.364,6.185c0,0.076-0.012,0.144-0.014,0.221v25.81c-2.155-1.242-4.383-2.385-6.671-3.419V63.681
	c-1.399-0.739-2.822-1.43-4.271-2.074v55.425h10.917v6.708h-12.428c-0.056,0.004-0.105,0.016-0.165,0.016
	c-2.772,0-5.016-2.238-5.016-5c0-0.07,0.016-0.138,0.018-0.211h-0.029V58.062c0-0.043-0.017-0.083-0.017-0.128
	C145.38,55.63,147.29,53.662,149.593,53.662z M136.28,49.987c2.257,0.364,4.483,0.815,6.671,1.374v72.37h-6.671V49.987z
	 M122.787,49.014c0.389-0.007,5.066,0.05,6.709,0.162c2.912,0.141,4.28,2.472,4.28,4.997v0.005h0.018v21.458h-0.009
	c0.004,0.022,0.009,0.04,0.009,0.061c0,0.72-0.167,1.403-0.455,2.019l0.018,0.009l-0.343,0.595
	c-0.023,0.036-0.041,0.072-0.059,0.104l-2.628,4.552c1.989,0.671,3.434,2.519,3.434,4.723c0,0.059-0.02,0.116-0.02,0.172v35.851
	h-6.669v-34.38l-2.799-0.097l-1.458,0.053v34.435h-6.666V58.675c2.196-0.237,4.42-0.366,6.666-0.412v24.315l4.271-7.405V55.776
	c-1.342-0.055-3.053-0.122-3.053-0.122c-0.383,0.004-0.821,0.023-1.246,0.037V49.014z M106.954,51.16l0.013-0.082
	c4.684-1.141,9.346-1.676,13.257-1.917v6.684c-2.023,0.135-4.262,0.375-6.565,0.732v67.176h-6.705V51.16z M89.185,91.219
	c2.802-1.475,5.709-2.774,8.676-3.885V61.006c-1.471,0.611-2.912,1.283-4.334,1.992v22.737c-2.284,1.033-4.505,2.179-6.668,3.425
	c0,0-0.009-26.79-0.009-26.84c0-2.031,0.899-3.705,2.7-4.793c1.799-1.093,7.599-3.544,10.202-4.412
	c2.604-0.865,4.725,1.64,4.725,3.766c0,0.061,0.018,66.832,0.018,66.832h-0.009v0.018H91.987c-0.037,0.002-0.068,0.013-0.104,0.013
	c-2.768,0-5.041-2.199-5.041-4.965c0-0.104,0.024-0.201,0.033-0.307V95.272h0.01c0-1.721,0.935-3.214,2.312-4.034L89.185,91.219z
	 M107.549,198.247c-2.32-0.521-4.58-1.193-6.808-1.924l-0.004-56.685l-3.566,6.186l-3.579-6.203l0.025,53.96
	c-2.33-1.042-4.601-2.178-6.799-3.436v-63.97l6.774-0.009v0.039l3.579,6.205l3.566-6.185v-0.059h6.817L107.549,198.247z
	 M124.273,200.11c-1.093,0-2.171-0.077-3.255-0.125c0,0-3.967-0.257-5.933-0.496c-3.725-0.353-4.935-2.603-4.935-4.88
	c0-0.041,0.009-0.076,0.009-0.118c-0.009,0-0.028-29.099-0.028-29.189c0-2.323,1.899-4.151,4.217-4.151
	c0.087,0,0.17,0.022,0.258,0.024c2.117,0.266,4.262,0.432,6.412,0.535v-28.85l-4.149,0.002l-0.002,24.646
	c-2.276-0.241-4.522-0.607-6.735-1.057c0-0.004,0-24.178,0-25.365c0-0.003,0-0.016,0-0.043c-0.002-2.707,2.19-4.9,4.899-4.9
	c1.188,0,2.62,0,4.032,0l2.207,0.02c0.556,0,1.161-0.02,1.541-0.02c2.65,0,4.811,2.146,4.896,4.775l0.013,69.097
	C126.576,200.074,125.43,200.11,124.273,200.11z M130.599,193.096c3.68-0.334,7.314-0.966,10.872-1.874l-0.004-24.801l-5.197,1.087
	c-0.244,0.074-0.496,0.126-0.754,0.158l-0.167,0.032l-0.004-0.019c-0.113,0.014-0.225,0.039-0.343,0.039
	c-2.412,0-4.402-1.922-4.402-4.334c0-0.013,0.009-0.028,0.009-0.045l-0.002-32.284h0.015c0.015-2.692,2.195-4.879,4.881-4.879
	c0.147,0,7.757,0,7.813,0c2.698,0,4.883,2.196,4.883,4.905c0,0.11-0.011,23.031-0.011,23.031v0.002
	c-2.202,0.722-4.45,1.348-6.734,1.87l-0.004-23.592l-4.138,0.002l-0.002,28.092l5.535-1.159l0.013,0.052
	c0.316-0.072,0.637-0.135,0.971-0.135c2.415,0,4.37,1.939,4.37,4.334c0,0.036-0.009,0.07-0.009,0.107h0.022l-0.002,28.417h-0.024
	c0,0.045,0.013,0.086,0.013,0.141c0,2.725-2.03,4.96-4.66,5.33c-4.224,1.109-8.565,1.853-12.939,2.218V193.096z"/>
<path d="M34.182,84.031c0,0,7.219,5.757,12.948,8.301l0.788-1.775c-6.363-2.825-14.395-9.489-14.395-9.489l-2.362,5.329l1.648,0.731
	L34.182,84.031z"/>
<path d="M41.59,85.485c3.92,2.024,6.134,1.543,6.908,0.039c0.74-1.432-0.469-3.804-3.479-5.357c-3.082-1.59-5.258-1.309-5.917-0.028
	c-0.28,0.545-0.14,1.18-0.14,1.18c-2.977-2.943-3.481-5.173-3.481-5.173l-1.828,0.339C34.357,78.628,36.808,83.017,41.59,85.485z
	 M40.638,81.401c0.28-0.544,1.766-0.399,3.615,0.554c1.849,0.956,2.829,2.087,2.548,2.629c-0.293,0.565-1.781,0.425-3.63-0.533
	C41.322,83.098,40.344,81.968,40.638,81.401z"/>
<polygon points="52.39,78.223 46.174,74.096 47.446,72.176 53.663,76.305 54.77,74.641 40.9,65.431 39.798,67.095 45.898,71.148 
	44.625,73.068 38.525,69.016 37.419,70.681 51.289,79.89 "/>
<path d="M50.194,70.082c3.483,2.754,6.068,3.063,7.219,1.605c1.136-1.439,0.235-3.884-3.248-6.635
	c-3.484-2.753-6.068-3.061-7.201-1.624C45.812,64.887,46.711,67.331,50.194,70.082z M48.595,64.719
	c0.432-0.547,1.542-0.163,4.265,1.988c2.72,2.15,3.35,3.143,2.922,3.687c-0.43,0.547-1.558,0.185-4.28-1.965
	C48.778,66.277,48.165,65.261,48.595,64.719z"/>
<path d="M61.551,66.402c-1.716-2.546-4.632-6.045-4.632-6.045s3.644,2.731,6.293,4.295l1.126-1.188
	c-1.411-2.261-4.765-6.75-7.937-10.181l-1.336,1.409c2.277,2.316,5.826,6.68,5.826,6.68s-4.235-2.832-7.184-5.249l-1.165,1.229
	c2.567,2.818,5.599,6.921,5.599,6.921s-4.542-3.316-6.953-5.495l-1.336,1.411c3.589,2.991,8.242,6.108,10.551,7.422L61.551,66.402z"
	/>
<path d="M60.344,53.769c-0.138-0.58-0.124-1.66,0.397-2.117c0.273-0.239,0.686-0.271,1.727,0.922l0.969,1.106l-0.942,0.822
	c-1.251,1.098-0.614,3.305,0.811,4.934c1.533,1.754,3.14,2.415,4.122,1.556c0.731-0.641,0.635-2.435,0.635-2.435
	c0.679,0.438,1.761,0.452,1.761,0.452l0.614-1.865c-0.587-0.002-1.576-0.206-2.181-0.897l-4.326-4.952
	c-1.79-2.046-2.989-2.327-4.431-1.066c-0.772,0.678-0.952,2.201-0.766,3.217L60.344,53.769z M64.046,55.433l0.521-0.456l1.901,2.173
	c0.393,0.576,0.378,1.658,0.085,1.913c-0.312,0.275-0.763,0.226-1.766-0.924C63.821,57.03,63.461,55.944,64.046,55.433z"/>
<path d="M65.457,49.208l6.073,7.965l1.544-1.179l-6.127-8.033c0,0,0.118-1.449,0.844-2.005l-1.523-1.175
	c-0.729,0.556-0.851,1.907-0.851,1.907s-0.921-0.343-1.339-0.339l-0.738,1.821C64.247,48.173,64.901,48.478,65.457,49.208z"/>
<path d="M69.874,42.282c-1.437,0.944-1.126,3.393,1.31,7.107c2.436,3.713,4.558,4.978,5.994,4.034
	c0.465-0.307,1.019-1.333,0.827-2.236c0.487,0.343,0.948,0.538,1.703,0.676l0.867-1.765c-0.607-0.068-1.536-0.42-2.039-1.187
	l-8.992-13.715l-1.625,1.065l3.942,6.011C71.277,41.891,70.337,41.977,69.874,42.282z M74.918,46.937
	c1.903,2.903,2.332,4.114,1.659,4.557c-0.673,0.44-1.729-0.362-3.63-3.261c-1.903-2.901-2.217-4.188-1.543-4.631
	C72.076,43.159,73.015,44.038,74.918,46.937z"/>
<path d="M85.835,44.778c0.309,0.621,0.16,1.317-0.436,1.613c-0.895,0.445-2.222-0.599-2.222-0.599l-0.273,1.938
	c0,0,1.971,1.093,3.361,0.399c1.462-0.729,2.185-2.456,1.305-4.219c-1.471-2.958-6.679-5.32-8.005-7.977
	c-0.347-0.696-0.419-1.342,0.227-1.662c0.569-0.284,1.634,0.484,1.634,0.484l0.203-1.834c0,0-1.477-0.972-2.793-0.314
	c-1.391,0.693-1.875,2.455-1.009,4.194C79.487,40.129,84.819,42.742,85.835,44.778z"/>
<path d="M84.009,34.726l0.705,1.66l1.148-0.487l3.134,7.382c0.684,1.61,1.424,2.077,2.503,2.557l1.164-1.582
	c-0.559-0.185-1.426-0.661-1.901-1.784l-3.115-7.332l1.229-0.523l-0.707-1.66l-1.226,0.52L85.426,29.9l-1.788,0.761l1.517,3.576
	L84.009,34.726z"/>
<path d="M95.206,44.256c0.655-0.235,0.976-0.971,0.749-1.599c-0.236-0.65-0.948-0.985-1.598-0.748
	c-0.628,0.229-0.96,0.938-0.722,1.592C93.86,44.125,94.583,44.487,95.206,44.256z"/>
<polygon points="99.521,44.938 99.508,40.366 97.743,40.918 98.484,45.264 "/>
<path d="M103.468,41.392c3.298-0.763,4.695-3.221,3.292-9.306c-1.404-6.085-3.739-7.683-7.035-6.921l-1.295,0.297l3.743,16.229
	L103.468,41.392z M101.098,27.039c1.377-0.316,2.619,1.477,3.553,5.534s0.609,6.212-0.772,6.529l-0.241,0.059l-2.783-12.063
	L101.098,27.039z"/>
<path d="M111.572,40.072c1.017-0.146,1.691-1.283,1.691-1.283c0.269,0.493,1.006,0.949,1.006,0.949l1.53-1.233
	c-0.494-0.321-1.214-1.031-1.347-1.938l-1.44-9.915l-1.923,0.281l1.45,9.97c0,0-0.251,1.16-1.021,1.272
	c-0.465,0.069-0.666-0.352-0.817-1.396l-1.395-9.586l-1.923,0.28l1.535,10.547C109.09,39.201,110.062,40.294,111.572,40.072z"/>
<path d="M115.844,29.062l0.469,10.007l1.94-0.09l-0.473-10.093c0,0,0.255-1.093,1.03-1.128c0.362-0.019,0.452,0.116,0.515,1.445
	l0.452,9.705l1.941-0.091l-0.474-10.092c0,0,0.255-1.093,1.032-1.129c0.359-0.018,0.449,0.118,0.512,1.448l0.452,9.703l1.942-0.09
	l-0.499-10.675c-0.057-1.163-0.639-2.361-2.133-2.289c-0.723,0.032-1.389,0.619-1.761,0.999c-0.33-0.543-0.871-0.877-1.705-0.838
	c-1.054,0.049-1.808,1.113-1.808,1.113c-0.22-0.519-0.939-1.039-0.939-1.039l-1.644,1.075
	C115.18,27.341,115.803,28.146,115.844,29.062z"/>
<path d="M129.23,39.171c1.829,0.098,3.302-2.051,3.536-6.485c0.229-4.437-1.011-6.723-2.84-6.819
	c-1.855-0.098-3.328,2.048-3.56,6.485C126.133,36.787,127.375,39.075,129.23,39.171z M128.472,32.461
	c0.18-3.466,0.655-4.552,1.345-4.514c0.693,0.036,1.023,1.163,0.842,4.628c-0.183,3.465-0.628,4.554-1.321,4.518
	C128.647,37.055,128.289,35.925,128.472,32.461z"/>
<path d="M135.143,39.404l1.305-10.019c0,0,0.581-1.017,1.35-0.915c0.467,0.059,0.524,0.487,0.389,1.534l-1.255,9.634l1.925,0.249
	l1.382-10.594c0.15-1.156-0.492-2.471-1.978-2.666c-1.043-0.135-2,0.772-2,0.772c-0.126-0.547-0.713-1.184-0.713-1.184l-1.808,0.772
	c0.421,0.42,0.891,1.319,0.773,2.228l-1.295,9.937L135.143,39.404z"/>
<path d="M143.701,40.24c-0.359-0.465-0.803-1.348-0.565-2.545l1.567-7.812l1.305,0.262l0.352-1.769l-1.305-0.262l0.763-3.811
	l-1.901-0.382l-0.765,3.809l-1.224-0.244l-0.354,1.769l1.223,0.246l-1.576,7.866c-0.343,1.712,0.004,2.521,0.624,3.521
	L143.701,40.24z"/>
<polygon points="143.726,43.259 144.784,43.525 147.15,39.612 145.354,39.165 "/>
<polygon points="153.779,33.418 154.133,43.933 155.368,44.352 160.68,28.565 158.917,27.974 155.774,37.312 155.422,26.794 
	154.185,26.379 148.875,42.162 150.636,42.756 "/>
<path d="M165.725,49.52c1.63,0.895,3.887-0.403,6.018-4.297c2.131-3.896,2.005-6.497,0.375-7.391
	c-1.607-0.879-3.865,0.416-5.996,4.314C163.992,46.041,164.12,48.643,165.725,49.52z M167.973,43.159
	c1.664-3.045,2.538-3.831,3.147-3.499c0.607,0.332,0.438,1.506-1.227,4.551c-1.664,3.043-2.562,3.817-3.169,3.483
	C166.118,47.362,166.308,46.201,167.973,43.159z"/>
<path d="M168.276,52.885l1.637,1.045c3.744-5.875,11.531-12.823,11.531-12.823l-4.911-3.136l-0.971,1.522l2.854,1.821
	C178.417,41.315,171.648,47.598,168.276,52.885z"/>
<path d="M176.062,48.557c-2.593,3.569-2.454,5.832-1.086,6.826c1.301,0.949,3.83,0.111,5.82-2.629c2.041-2.806,2.09-5,0.923-5.848
	c-0.495-0.36-1.143-0.316-1.143-0.316c3.359-2.499,5.638-2.659,5.638-2.659l-0.054-1.861
	C183.933,42.443,179.227,44.202,176.062,48.557z M180.24,48.232c0.493,0.36,0.126,1.809-1.097,3.492
	c-1.224,1.685-2.488,2.479-2.98,2.121c-0.516-0.375-0.149-1.823,1.075-3.508C178.461,48.652,179.725,47.857,180.24,48.232z"/>
<path d="M185.387,48.408l-0.112,1.686c0,0,1.368-0.118,1.896,0.33c0.361,0.305,0.492,0.707,0.062,1.215
	c-1.18,1.4-6.732,2.559-9.292,5.591l4.24,3.582l1.162-1.377l-2.498-2.114c2.352-1.973,6.302-2.521,8.037-4.579
	c0.911-1.081,0.985-2.543-0.308-3.638C187.388,48.1,185.387,48.408,185.387,48.408z"/>
<path d="M185.767,57.866c-2.135,2.18-2.429,4.421-1.122,5.704c1.325,1.303,3.56,0.964,5.696-1.213
	c1.205-1.229,1.858-2.648,1.847-3.827c1.079-0.149,2.266-0.885,3.296-1.936c1.749-1.785,2.532-4.007,1.205-5.31
	c-1.307-1.284-3.536-0.478-5.285,1.307c-1.03,1.049-1.722,2.272-1.849,3.353C188.376,55.957,186.972,56.637,185.767,57.866z
	 M192.81,53.97c1.165-1.189,2.181-1.826,2.615-1.398c0.456,0.447-0.181,1.455-1.346,2.642c-1.264,1.291-2.181,1.867-2.637,1.422
	C191.009,56.206,191.546,55.257,192.81,53.97z M190.18,57.92c0.456,0.447,0.113,1.473-1.343,2.96
	c-1.458,1.486-2.475,1.848-2.931,1.4c-0.435-0.425-0.092-1.45,1.364-2.938C188.729,57.857,189.745,57.495,190.18,57.92z"/>
<path d="M190.487,66.081c-0.44-0.498-1.226-0.546-1.743-0.085c-0.499,0.44-0.566,1.245-0.124,1.741
	c0.458,0.521,1.264,0.549,1.76,0.109C190.9,67.385,190.948,66.602,190.487,66.081z"/>
<path d="M195.318,70.24c-1.681,1.314-3.872,0.63-4.793-0.551l-1.399,1.093c1.467,1.882,4.98,3.224,7.689,1.105
	c2.165-1.692,1.664-4.362,1.664-4.362s2.287,0.676,4.649-1.17c1.661-1.297,1.991-3.176,1.069-4.358
	c-0.905-1.158-2.7-1.339-2.7-1.339l-0.389,1.534c0,0,0.939,0.074,1.369,0.622c0.426,0.549,0.126,1.383-0.813,2.116
	c-1.706,1.333-3.637,0.798-4.1,0.386l-1.312,1.025C196.874,67.542,196.697,69.163,195.318,70.24z"/>
<rect x="194.338" y="71.404" transform="matrix(-0.823 0.568 -0.568 -0.823 407.0348 17.962)" width="12.762" height="1.971"/>
<path d="M207.89,74.712c0.244,0.402,0.24,0.827-0.33,1.171c-1.571,0.943-7.199,0.243-10.601,2.288l2.857,4.759l1.545-0.93
	l-1.685-2.805c2.863-1.107,6.779-0.351,9.084-1.736c1.215-0.729,1.757-2.092,0.886-3.541c-0.8-1.333-2.793-1.69-2.793-1.69
	l-0.652,1.556C206.201,73.784,207.534,74.117,207.89,74.712z"/>
<path d="M213.155,79.346c0.312,0.622-0.149,1.378-1.215,1.913c-1.932,0.971-3.72,0.068-4.095-0.429l-1.485,0.748
	c0.372,1.304-0.122,2.855-1.685,3.639c-1.91,0.958-3.918-0.145-4.591-1.481l-1.588,0.795c1.071,2.132,4.25,4.141,7.324,2.597
	c2.454-1.233,2.487-3.953,2.487-3.953s2.11,1.116,4.788-0.228c1.886-0.947,2.578-2.722,1.906-4.064
	c-0.659-1.315-2.384-1.845-2.384-1.845l-0.683,1.429C211.935,78.467,212.843,78.724,213.155,79.346z"/>
<path d="M154.661,46.068l1.262,1.517c1.165-0.42,2.684-1.728,3.174-2.907l5.942-14.301l-1.87-0.777l-5.941,14.298
	C156.885,44.721,155.503,45.846,154.661,46.068z"/>
<path d="M125,0c-0.001,0-0.001,0-0.002,0c-0.001,0-0.002,0-0.002,0c-0.476,0-0.948,0.013-1.423,0.018C55.196,0.784,0,56.441,0,125
	s55.196,124.216,123.573,124.982c0.475,0.005,0.947,0.018,1.423,0.018c0,0,0.001,0,0.002,0c0,0,0.001,0,0.002,0
	c69.036,0,125-55.964,125-125S194.036,0,125,0z M10.319,125c0-63.23,51.443-114.673,114.676-114.673
	c63.238,0,114.685,51.443,114.685,114.673c0,63.232-51.447,114.677-114.685,114.677C61.762,239.677,10.319,188.232,10.319,125z"/>
</svg>
