<?xml version="1.0" encoding="utf-8"?>
<!-- Generator: Adobe Illustrator 18.1.1, SVG Export Plug-In . SVG Version: 6.00 Build 0)  -->
<!DOCTYPE svg PUBLIC "-//W3C//DTD SVG 1.1//EN" "http://www.w3.org/Graphics/SVG/1.1/DTD/svg11.dtd">
<svg version="1.1" id="Layer_1" xmlns="http://www.w3.org/2000/svg" xmlns:xlink="http://www.w3.org/1999/xlink" x="0px" y="0px"
	 viewBox="0 0 250 250" enable-background="new 0 0 250 250" xml:space="preserve">
<g>
	<g>
		<path fill="#FDBF30" d="M125,0C56.1,0,0,56.1,0,125c0,68.9,56.1,125,125,125c68.9,0,125-56.1,125-125C250,56.1,193.9,0,125,0z"/>
	</g>
	<g>
		<path fill="#FDC134" d="M125,0.8C56.5,0.8,0.8,56.5,0.8,125c0,68.5,55.7,124.2,124.2,124.2c68.5,0,124.2-55.7,124.2-124.2
			C249.2,56.5,193.5,0.8,125,0.8z"/>
	</g>
	<g>
		<path fill="#FDC439" d="M125,1.6C57,1.6,1.6,57,1.6,125C1.6,193,57,248.4,125,248.4c68,0,123.4-55.3,123.4-123.4
			C248.4,57,193,1.6,125,1.6z"/>
	</g>
	<g>
		<path fill="#FDC63D" d="M125,2.5C57.4,2.5,2.5,57.4,2.5,125c0,67.6,55,122.5,122.5,122.5c67.6,0,122.5-55,122.5-122.5
			C247.5,57.4,192.6,2.5,125,2.5z"/>
	</g>
	<g>
		<path fill="#FDC942" d="M125,3.3C57.9,3.3,3.3,57.9,3.3,125c0,67.1,54.6,121.7,121.7,121.7c67.1,0,121.7-54.6,121.7-121.7
			C246.7,57.9,192.1,3.3,125,3.3z"/>
	</g>
	<g>
		<path fill="#FDCC46" d="M125,4.1C58.3,4.1,4.1,58.3,4.1,125c0,66.7,54.2,120.9,120.9,120.9c66.7,0,120.9-54.2,120.9-120.9
			C245.9,58.3,191.6,4.1,125,4.1z"/>
	</g>
	<g>
		<path fill="#FECE4B" d="M125,4.9C58.8,4.9,4.9,58.8,4.9,125c0,66.2,53.9,120.1,120,120.1c66.2,0,120.1-53.9,120.1-120.1
			C245.1,58.8,191.2,4.9,125,4.9z"/>
	</g>
	<g>
		<path fill="#FED14F" d="M125,5.8C59.3,5.8,5.8,59.3,5.8,125c0,65.7,53.5,119.2,119.2,119.2c65.7,0,119.2-53.5,119.2-119.2
			C244.2,59.3,190.7,5.8,125,5.8z"/>
	</g>
	<g>
		<path fill="#FED354" d="M125,6.6C59.7,6.6,6.6,59.7,6.6,125c0,65.3,53.1,118.4,118.4,118.4c65.3,0,118.4-53.1,118.4-118.4
			C243.4,59.7,190.3,6.6,125,6.6z"/>
	</g>
	<g>
		<path fill="#FED658" d="M125,7.4C60.2,7.4,7.4,60.2,7.4,125c0,64.8,52.7,117.6,117.6,117.6c64.8,0,117.6-52.7,117.6-117.6
			C242.6,60.2,189.8,7.4,125,7.4z"/>
	</g>
	<g>
		<path fill="#FED85D" d="M125,8.2C60.6,8.2,8.2,60.6,8.2,125c0,64.4,52.4,116.8,116.8,116.8c64.4,0,116.8-52.4,116.8-116.8
			C241.8,60.6,189.4,8.2,125,8.2z"/>
	</g>
	<g>
		<path fill="#FFDB61" d="M125,9.1C61.1,9.1,9.1,61.1,9.1,125c0,63.9,52,115.9,115.9,115.9c63.9,0,115.9-52,115.9-115.9
			C240.9,61.1,188.9,9.1,125,9.1z"/>
	</g>
	<g>
		<path fill="#FFDD66" d="M125,9.9C61.5,9.9,9.9,61.5,9.9,125c0,63.5,51.6,115.1,115.1,115.1c63.5,0,115.1-51.6,115.1-115.1
			C240.1,61.5,188.5,9.9,125,9.9z"/>
	</g>
	<g>
		<path fill="#FFE06A" d="M125,10.7C62,10.7,10.7,62,10.7,125c0,63,51.3,114.3,114.3,114.3c63,0,114.3-51.3,114.3-114.3
			C239.3,62,188,10.7,125,10.7z"/>
	</g>
</g>
<path fill="#A93E26" d="M124.9,16.8C65.3,16.8,16.8,65.3,16.8,125c0,59.6,48.5,108.1,108.1,108.1c59.6,0,108.1-48.5,108.1-108.1
	C233,65.3,184.5,16.8,124.9,16.8z"/>
<linearGradient id="SVGID_1_" gradientUnits="userSpaceOnUse" x1="48.4507" y1="201.3753" x2="201.2869" y2="48.539">
	<stop  offset="0" style="stop-color:#A93E26;stop-opacity:0"/>
	<stop  offset="0.2593" style="stop-color:#AB3D26;stop-opacity:0.5185"/>
	<stop  offset="0.3527" style="stop-color:#B23926;stop-opacity:0.7053"/>
	<stop  offset="0.4192" style="stop-color:#BE3227;stop-opacity:0.8384"/>
	<stop  offset="0.4726" style="stop-color:#CE2828;stop-opacity:0.9453"/>
	<stop  offset="0.5" style="stop-color:#DA2128"/>
	<stop  offset="0.5274" style="stop-color:#CE2828;stop-opacity:0.9453"/>
	<stop  offset="0.5808" style="stop-color:#BE3227;stop-opacity:0.8384"/>
	<stop  offset="0.6473" style="stop-color:#B23926;stop-opacity:0.7053"/>
	<stop  offset="0.7407" style="stop-color:#AB3D26;stop-opacity:0.5185"/>
	<stop  offset="1" style="stop-color:#A93E26;stop-opacity:0"/>
</linearGradient>
<path fill="url(#SVGID_1_)" d="M124.9,16.8C65.3,16.8,16.8,65.3,16.8,125c0,59.6,48.5,108.1,108.1,108.1
	c59.6,0,108.1-48.5,108.1-108.1C233,65.3,184.5,16.8,124.9,16.8z"/>
<linearGradient id="SVGID_2_" gradientUnits="userSpaceOnUse" x1="48.4507" y1="48.539" x2="201.2869" y2="201.3753">
	<stop  offset="0" style="stop-color:#A93E26;stop-opacity:0"/>
	<stop  offset="0.2593" style="stop-color:#AB3D26;stop-opacity:0.5185"/>
	<stop  offset="0.3527" style="stop-color:#B23926;stop-opacity:0.7053"/>
	<stop  offset="0.4192" style="stop-color:#BE3227;stop-opacity:0.8384"/>
	<stop  offset="0.4726" style="stop-color:#CE2828;stop-opacity:0.9453"/>
	<stop  offset="0.5" style="stop-color:#DA2128"/>
	<stop  offset="0.5274" style="stop-color:#CE2828;stop-opacity:0.9453"/>
	<stop  offset="0.5808" style="stop-color:#BE3227;stop-opacity:0.8384"/>
	<stop  offset="0.6473" style="stop-color:#B23926;stop-opacity:0.7053"/>
	<stop  offset="0.7407" style="stop-color:#AB3D26;stop-opacity:0.5185"/>
	<stop  offset="1" style="stop-color:#A93E26;stop-opacity:0"/>
</linearGradient>
<path fill="url(#SVGID_2_)" d="M124.9,16.8C65.3,16.8,16.8,65.3,16.8,125c0,59.6,48.5,108.1,108.1,108.1
	c59.6,0,108.1-48.5,108.1-108.1C233,65.3,184.5,16.8,124.9,16.8z"/>
<g>
	<linearGradient id="SVGID_3_" gradientUnits="userSpaceOnUse" x1="124.7815" y1="205.1143" x2="124.7815" y2="44.6279">
		<stop  offset="0" style="stop-color:#FDBF30"/>
		<stop  offset="0.6074" style="stop-color:#FFE06A"/>
		<stop  offset="1" style="stop-color:#FDBF30"/>
	</linearGradient>
	<polygon fill="url(#SVGID_3_)" points="111.1,201.6 96.9,200.3 85.3,192.4 72.4,186.3 64.2,175 54.3,165 50.5,151.6 44.6,138.8 
		45.7,124.9 44.6,110.9 50.5,98.3 54.3,84.8 64.2,74.8 72.4,63.4 85.2,57.4 96.9,49.5 111,48.1 124.8,44.6 138.5,48.1 152.6,49.5 
		164.3,57.4 177.1,63.4 185.3,74.8 195.3,84.8 199.1,98.2 205,110.9 203.9,124.8 205,138.8 199.1,151.5 195.3,165 185.4,174.9 
		177.1,186.3 164.4,192.3 152.6,200.3 138.6,201.6 124.8,205.1 	"/>
	<path fill="#FFE06A" d="M124.8,45.1l13.6,3.5l0.1,0l0.1,0l14,1.3l11.5,7.8l0.1,0l0.1,0l12.7,5.9l8.1,11.3l0,0.1l0.1,0.1l9.8,9.8
		l3.7,13.3l0,0.1l0,0.1l5.8,12.6l-1.1,13.8l0,0.1l0,0.1l1.1,13.8l-5.8,12.6l0,0.1l0,0.1l-3.7,13.3l-9.8,9.8l-0.1,0.1l0,0.1
		l-8.1,11.3l-12.7,5.9l-0.1,0l-0.1,0l-11.5,7.8l-14,1.3l-0.1,0l-0.1,0l-13.6,3.5l-13.6-3.5l-0.1,0l-0.1,0l-14-1.3L85.6,192l-0.1,0
		l-0.1,0l-12.7-5.9l-8.1-11.3l0-0.1l-0.1-0.1l-9.8-9.8L51,151.4l0-0.1l0-0.1l-5.8-12.6l1.1-13.8l0-0.1l0-0.1L45.1,111l5.8-12.6
		l0-0.1l0-0.1L54.7,85l9.8-9.8l0.1-0.1l0-0.1l8.1-11.3l12.7-5.9l0.1,0l0.1,0L97.1,50l14-1.3l0.1,0l0.1,0L124.8,45.1 M124.8,44.1
		L111,47.6L96.8,49L85,57l-12.9,6l-8.3,11.5l-10,10L50,98.1l-5.9,12.8l1.1,14l-1.1,14l5.9,12.8l3.8,13.6l10,10l8.3,11.5l12.9,6
		l11.8,8l14.2,1.3l13.8,3.5l13.8-3.5l14.2-1.3l11.8-8l12.9-6l8.3-11.5l10-10l3.8-13.6l5.9-12.8l-1.1-14l1.1-14l-5.9-12.8l-3.8-13.6
		l-10-10L177.5,63l-12.9-6l-11.8-8l-14.2-1.3L124.8,44.1L124.8,44.1z"/>
</g>
<radialGradient id="SVGID_4_" cx="218.5094" cy="125.5678" r="6.5025" gradientUnits="userSpaceOnUse">
	<stop  offset="7.975460e-02" style="stop-color:#FFE06A"/>
	<stop  offset="0.4263" style="stop-color:#FFDF68"/>
	<stop  offset="0.5956" style="stop-color:#FFDA60"/>
	<stop  offset="0.7264" style="stop-color:#FED353"/>
	<stop  offset="0.8368" style="stop-color:#FEC841"/>
	<stop  offset="0.9085" style="stop-color:#FDBF30"/>
</radialGradient>
<path fill="url(#SVGID_4_)" d="M225,125.6c0,3.6-2.9,6.5-6.5,6.5c-3.6,0-6.5-2.9-6.5-6.5c0-3.6,2.9-6.5,6.5-6.5
	C222.1,119.1,225,122,225,125.6z"/>
<radialGradient id="SVGID_5_" cx="31.0247" cy="125.5678" r="6.5025" gradientUnits="userSpaceOnUse">
	<stop  offset="7.975460e-02" style="stop-color:#FFE06A"/>
	<stop  offset="0.4263" style="stop-color:#FFDF68"/>
	<stop  offset="0.5956" style="stop-color:#FFDA60"/>
	<stop  offset="0.7264" style="stop-color:#FED353"/>
	<stop  offset="0.8368" style="stop-color:#FEC841"/>
	<stop  offset="0.9085" style="stop-color:#FDBF30"/>
</radialGradient>
<path fill="url(#SVGID_5_)" d="M37.5,125.6c0,3.6-2.9,6.5-6.5,6.5c-3.6,0-6.5-2.9-6.5-6.5c0-3.6,2.9-6.5,6.5-6.5
	C34.6,119.1,37.5,122,37.5,125.6z"/>
<path fill="#504894" d="M68.3,175.2C68.3,175.2,68.3,175.2,68.3,175.2C68.3,175.2,68.3,175.2,68.3,175.2z"/>
<path fill="#504894" d="M68.6,175.5c-0.1-0.1-0.3-0.2-0.3-0.3C68.4,175.3,68.5,175.4,68.6,175.5z"/>
<g>
	<path fill="#424894" d="M125,240c-63.4,0-115-51.6-115-115C10,61.6,61.6,10,125,10s115,51.6,115,115C240,188.4,188.4,240,125,240z
		 M125,14C63.8,14,14,63.8,14,125c0,61.2,49.8,111,111,111s111-49.8,111-111C236,63.8,186.2,14,125,14z"/>
</g>
<g>
	<path fill="#D9DAEA" d="M167.7,125.5H161v56.2c-1.4,0.9-2.8,1.7-4.2,2.5v-58.7h-6.7l0,63h0c0,0,0,0.1,0,0.1c0,2.2,1.8,4,4,4
		c0.5,0,1-0.1,1.4-0.3l0,0c0,0,0.1,0,0.1-0.1c0.1,0,0.1-0.1,0.2-0.1c2.7-1.3,5.4-2.8,8-4.4c0.4-0.2,0.7-0.4,1-0.6c0,0,0.1,0,0.1-0.1
		l0,0c1.6-1.2,2.7-3.1,2.8-5.3h0v-0.2c0-0.1,0-0.1,0-0.2c0-0.1,0-0.1,0-0.2L167.7,125.5z"/>
	<path fill="#D9DAEA" d="M147.5,162.9c0-2.4-2-4.3-4.4-4.3c-0.3,0-0.7,0.1-1,0.1l0-0.1l-5.5,1.2l0-28.1l4.1,0l0,23.6l0,0
		c2.3-0.5,4.5-1.1,6.7-1.9l0,0c0,0,0-22.9,0-23c0-2.7-2.2-4.9-4.9-4.9c-0.1,0-7.7,0-7.8,0c-2.7,0-4.9,2.2-4.9,4.9h0l0,32.3
		c0,0,0,0,0,0c0,2.4,2,4.3,4.4,4.3c0.1,0,0.2,0,0.3,0v0l0.2,0c0.3,0,0.5-0.1,0.8-0.2l5.2-1.1l0,24.8c-3.6,0.9-7.2,1.5-10.9,1.9v6.7
		c4.4-0.4,8.7-1.1,12.9-2.2c2.6-0.4,4.7-2.6,4.7-5.3c0-0.1,0-0.1,0-0.1h0V163h0C147.5,162.9,147.5,162.9,147.5,162.9z"/>
	<path fill="#D9DAEA" d="M127,130.2c-0.1-2.6-2.2-4.8-4.9-4.8c-0.4,0-1,0-1.5,0l-2.2,0c-1.4,0-2.8,0-4,0c-2.7,0-4.9,2.2-4.9,4.9
		c0,0.1,0,0,0,0s0,25.4,0,25.4c2.2,0.5,4.5,0.8,6.7,1.1l0-24.6l4.1,0V161c-2.1-0.1-4.3-0.3-6.4-0.5c-0.1,0-0.2,0-0.3,0
		c-2.3,0-4.2,1.8-4.2,4.2c0,0.1,0,29.2,0,29.2c0,0,0,0.1,0,0.1c0,2.3,1.2,4.5,4.9,4.9c2,0.2,5.9,0.5,5.9,0.5c1.1,0,2.2,0.1,3.3,0.1
		c1.2,0,2.3,0,3.4-0.1L127,130.2z M120.3,192.6c-1.4-0.1-2.8-0.2-4.1-0.3v-24.9c1.4,0.1,2.7,0.2,4.1,0.3V192.6z"/>
	<path fill="#D9DAEA" d="M112.9,55.9c2.3-0.4,4.5-0.6,6.6-0.7v-6.7c-3.9,0.2-8.6,0.8-13.3,1.9l0,0.1V123h6.7V55.9z"/>
	<path fill="#D9DAEA" d="M142.2,50.6c-2.2-0.6-4.4-1-6.7-1.4V123h6.7V50.6z"/>
	<path fill="#D9DAEA" d="M126.4,55.1v19.4l-4.3,7.4V57.5c-2.2,0-4.5,0.2-6.7,0.4V123h6.7V88.6l1.5-0.1l2.8,0.1V123h6.7V87.2
		c0-0.1,0-0.1,0-0.2c0-2.2-1.4-4.1-3.4-4.7l2.6-4.6c0,0,0-0.1,0.1-0.1l0.3-0.6l0,0c0.3-0.6,0.5-1.3,0.5-2c0,0,0,0,0-0.1h0V53.5h0
		l0,0c0-2.5-1.4-4.9-4.3-5c-1.6-0.1-6.3-0.2-6.7-0.2V55c0.4,0,0.9,0,1.2,0C123.3,54.9,125,55,126.4,55.1z M122.1,81.9L122.1,81.9
		L122.1,81.9L122.1,81.9z"/>
	<path fill="#D9DAEA" d="M78.6,125.5c-0.1,0-6.2,0-6.2,0v6.7h4.4l0,42.2c-1.5-1.4-2.9-2.8-4.3-4.4v-35.2h-6.7l0,33.8c0,0,0-1,0,1.4
		c0,3.1,1.6,4.4,2.1,4.9c0.5,0.5,9.6,8.9,9.6,8.9c0.5,0.5,1.3,0.6,2,0.6c2.2,0,4-1.7,4-3.9h0v-0.1c0,0,0,0,0,0c0,0,0,0,0,0l0-49.8
		c0,0,0,0,0,0C83.5,127.6,81.3,125.5,78.6,125.5z"/>
	<path fill="#D9DAEA" d="M162.3,116.3h-10.9V60.9c1.4,0.6,2.9,1.3,4.3,2.1v22.5c2.3,1,4.5,2.2,6.7,3.4V63.1c0-0.1,0-0.1,0-0.2
		c0-2.9-1.8-5.2-4.4-6.2c-2.3-1.2-4.7-2.3-7.2-3.2c-0.2-0.1-0.4-0.2-0.7-0.3c-0.1,0-0.1-0.1-0.2-0.1l0,0c-0.3-0.1-0.7-0.1-1-0.1
		c-2.3,0-4.2,2-4.2,4.3c0,0,0,0.1,0,0.1v60.5h0c0,0.1,0,0.1,0,0.2c0,2.8,2.2,5,5,5c0.1,0,0.1,0,0.2,0h12.4V116.3z"/>
	<path fill="#D9DAEA" d="M171.6,108.1c1.5,1.4,2.9,3,4.2,4.5V123h6.7v-10.2c0,0,0,0,0-0.1c0,0,0,0,0,0v0h0c0-2-0.9-3.7-2.2-5
		c-1.2-1.3-2.4-2.6-3.6-3.9l5.5-10.1c0,0,0.3-0.5,0.3-1.5c0-1,0-15.4,0-15.4c-2.1-2.6-4.3-5-6.7-7.3v22.4l-4.2,7.4c0,0,0,0,0,0V65.6
		c-2.1-1.8-4.4-3.4-6.7-4.9V123h6.7V108.1z"/>
	<path fill="#D9DAEA" d="M69.8,125.5H50.1v6.7h6.4v26.5c1.9,3.8,4.2,7.3,6.7,10.7v-37.1h6.5V125.5z"/>
	<path fill="#D9DAEA" d="M100,125.5l-3.6,6.2l-3.6-6.2v0l-6.8,0v64c2.2,1.3,4.5,2.4,6.8,3.4l0-54l3.6,6.2l3.6-6.2v56.7
		c2.2,0.7,4.5,1.4,6.8,1.9v-72.1L100,125.5L100,125.5z"/>
	<path fill="#D9DAEA" d="M176.9,125.5l-6.7,0v57.7c5.4-4.1,10.1-9.2,14.1-14.5V156c-2.1,3.9-4.6,7.8-7.4,11.2L176.9,125.5z"/>
	<path fill="#D9DAEA" d="M197.1,140.8l0-10.1h0c0-0.1,0-0.2,0-0.3c0-2.7-2.2-4.9-4.9-4.9c-0.1,0-0.1,0-0.2,0l-7.5,0v0
		c-0.1,0-0.1,0-0.1,0c-2.7,0-4.9,2.2-4.9,4.9c0,0.1,0,0.1,0,0.2h0v2.2l0,0l0,27.3c2.7-4.2,5-8.8,6.7-13.5v-14.3l4.2,0l0,7.8
		c-0.9,3.6-2.1,7.1-3.5,10.5v14.3c3.9-6,6.9-12.5,9-19.4h0c0.1-0.2,0.1-0.4,0.2-0.6C196.4,143.5,196.8,142.2,197.1,140.8
		C197.1,140.9,197.1,140.9,197.1,140.8L197.1,140.8C197.1,140.8,197.1,140.8,197.1,140.8L197.1,140.8z"/>
	<path fill="#D9DAEA" d="M86.2,94.6L86.2,94.6l0,23.2c0,0.1,0,0.2,0,0.3c0,2.8,2.3,5,5,5c0,0,0.1,0,0.1,0h12.5v0h0
		c0,0,0-66.8,0-66.8c0-2.1-2.1-4.6-4.7-3.8c-2.6,0.9-8.4,3.3-10.2,4.4c-1.8,1.1-2.7,2.8-2.7,4.8c0,0.1,0,26.8,0,26.8
		c2.2-1.2,4.4-2.4,6.7-3.4V62.3c1.4-0.7,2.9-1.4,4.3-2v26.3c-3,1.1-5.9,2.4-8.7,3.9l0,0C87.1,91.3,86.2,92.8,86.2,94.6z M92.8,95.8
		c1.4-0.7,2.9-1.4,4.4-2v22.5h-4.4V95.8z"/>
	<path fill="#D9DAEA" d="M79.8,63.3c-0.8,0-1.6,0.3-2.3,0.8c-4.2,3.3-11.6,11.1-11.6,11.1V123h6.7v-11.9c2.6-2.9,5.5-5.6,8.6-8.1
		l0,0c1.4-1.2,2.2-2.8,2.3-4.8h0v-0.2c0,0,0-0.1,0-0.1c0,0,0-30.9,0-31C83.6,65,81.9,63.3,79.8,63.3z M76.9,98
		c-1.5,1.2-2.9,2.4-4.3,3.7V77.6c1.4-1.5,2.8-2.9,4.3-4.3V98z"/>
</g>
<g>
	<linearGradient id="SVGID_6_" gradientUnits="userSpaceOnUse" x1="159.5881" y1="50.2387" x2="159.5881" y2="198.1192">
		<stop  offset="0" style="stop-color:#424894"/>
		<stop  offset="0.1925" style="stop-color:#4A4897"/>
		<stop  offset="0.4831" style="stop-color:#5E499D"/>
		<stop  offset="0.5031" style="stop-color:#60499E"/>
		<stop  offset="0.5738" style="stop-color:#5B499C"/>
		<stop  offset="1" style="stop-color:#424894"/>
	</linearGradient>
	<path fill="url(#SVGID_6_)" d="M168.4,126.2h-6.7v56.2c-1.4,0.9-2.8,1.7-4.2,2.5v-58.7h-6.7l0,63h0c0,0,0,0.1,0,0.1
		c0,2.2,1.8,4,4,4c0.5,0,1-0.1,1.4-0.3l0,0c0,0,0.1,0,0.1-0.1c0.1,0,0.1-0.1,0.2-0.1c2.7-1.3,5.4-2.8,8-4.4c0.4-0.2,0.7-0.4,1-0.6
		c0,0,0.1,0,0.1-0.1l0,0c1.6-1.2,2.7-3.1,2.8-5.3h0v-0.2c0-0.1,0-0.1,0-0.2c0-0.1,0-0.1,0-0.2L168.4,126.2z"/>
	<linearGradient id="SVGID_7_" gradientUnits="userSpaceOnUse" x1="139.4032" y1="50.2384" x2="139.4032" y2="198.119">
		<stop  offset="0" style="stop-color:#424894"/>
		<stop  offset="0.1925" style="stop-color:#4A4897"/>
		<stop  offset="0.4831" style="stop-color:#5E499D"/>
		<stop  offset="0.5031" style="stop-color:#60499E"/>
		<stop  offset="0.5738" style="stop-color:#5B499C"/>
		<stop  offset="1" style="stop-color:#424894"/>
	</linearGradient>
	<path fill="url(#SVGID_7_)" d="M148.2,163.6c0-2.4-2-4.3-4.4-4.3c-0.3,0-0.7,0.1-1,0.1l0-0.1l-5.5,1.2l0-28.1l4.1,0l0,23.6l0,0
		c2.3-0.5,4.5-1.1,6.7-1.9l0,0c0,0,0-22.9,0-23c0-2.7-2.2-4.9-4.9-4.9c-0.1,0-7.7,0-7.8,0c-2.7,0-4.9,2.2-4.9,4.9h0l0,32.3
		c0,0,0,0,0,0c0,2.4,2,4.3,4.4,4.3c0.1,0,0.2,0,0.3,0v0l0.2,0c0.3,0,0.5-0.1,0.8-0.2l5.2-1.1l0,24.8c-3.6,0.9-7.2,1.5-10.9,1.9v6.7
		c4.4-0.4,8.7-1.1,12.9-2.2c2.6-0.4,4.7-2.6,4.7-5.3c0-0.1,0-0.1,0-0.1h0v-28.4h0C148.2,163.6,148.2,163.6,148.2,163.6z"/>
	<linearGradient id="SVGID_8_" gradientUnits="userSpaceOnUse" x1="118.9243" y1="50.2382" x2="118.9243" y2="198.1679">
		<stop  offset="0" style="stop-color:#424894"/>
		<stop  offset="0.1925" style="stop-color:#4A4897"/>
		<stop  offset="0.4831" style="stop-color:#5E499D"/>
		<stop  offset="0.5031" style="stop-color:#60499E"/>
		<stop  offset="0.5738" style="stop-color:#5B499C"/>
		<stop  offset="1" style="stop-color:#424894"/>
	</linearGradient>
	<path fill="url(#SVGID_8_)" d="M127.7,130.9c-0.1-2.6-2.2-4.8-4.9-4.8c-0.4,0-1,0-1.5,0l-2.2,0c-1.4,0-2.8,0-4,0
		c-2.7,0-4.9,2.2-4.9,4.9c0,0.1,0,0,0,0s0,25.4,0,25.4c2.2,0.5,4.5,0.8,6.7,1.1l0-24.6l4.1,0v28.8c-2.1-0.1-4.3-0.3-6.4-0.5
		c-0.1,0-0.2,0-0.3,0c-2.3,0-4.2,1.8-4.2,4.2c0,0.1,0,29.2,0,29.2c0,0,0,0.1,0,0.1c0,2.3,1.2,4.5,4.9,4.9c2,0.2,5.9,0.5,5.9,0.5
		c1.1,0,2.2,0.1,3.3,0.1c1.2,0,2.3,0,3.4-0.1L127.7,130.9z M121,193.3c-1.4-0.1-2.8-0.2-4.1-0.3v-24.9c1.4,0.1,2.7,0.2,4.1,0.3
		V193.3z"/>
	<linearGradient id="SVGID_9_" gradientUnits="userSpaceOnUse" x1="113.5854" y1="50.2382" x2="113.5854" y2="198.1195">
		<stop  offset="0" style="stop-color:#424894"/>
		<stop  offset="0.1925" style="stop-color:#4A4897"/>
		<stop  offset="0.4831" style="stop-color:#5E499D"/>
		<stop  offset="0.5031" style="stop-color:#60499E"/>
		<stop  offset="0.5738" style="stop-color:#5B499C"/>
		<stop  offset="1" style="stop-color:#424894"/>
	</linearGradient>
	<path fill="url(#SVGID_9_)" d="M113.7,56.6c2.3-0.4,4.5-0.6,6.6-0.7v-6.7c-3.9,0.2-8.6,0.8-13.3,1.9l0,0.1v72.6h6.7V56.6z"/>
	<linearGradient id="SVGID_10_" gradientUnits="userSpaceOnUse" x1="139.6153" y1="50.2382" x2="139.6153" y2="198.1194">
		<stop  offset="0" style="stop-color:#424894"/>
		<stop  offset="0.1925" style="stop-color:#4A4897"/>
		<stop  offset="0.4831" style="stop-color:#5E499D"/>
		<stop  offset="0.5031" style="stop-color:#60499E"/>
		<stop  offset="0.5738" style="stop-color:#5B499C"/>
		<stop  offset="1" style="stop-color:#424894"/>
	</linearGradient>
	<path fill="url(#SVGID_10_)" d="M143,51.4c-2.2-0.6-4.4-1-6.7-1.4v73.7h6.7V51.4z"/>
	<linearGradient id="SVGID_11_" gradientUnits="userSpaceOnUse" x1="124.97" y1="50.2383" x2="124.97" y2="198.1192">
		<stop  offset="0" style="stop-color:#424894"/>
		<stop  offset="0.1925" style="stop-color:#4A4897"/>
		<stop  offset="0.4831" style="stop-color:#5E499D"/>
		<stop  offset="0.5031" style="stop-color:#60499E"/>
		<stop  offset="0.5738" style="stop-color:#5B499C"/>
		<stop  offset="1" style="stop-color:#424894"/>
	</linearGradient>
	<path fill="url(#SVGID_11_)" d="M127.1,55.8v19.4l-4.3,7.4V58.3c-2.2,0-4.5,0.2-6.7,0.4v65.1h6.7V89.3l1.5-0.1l2.8,0.1v34.4h6.7
		V87.9c0-0.1,0-0.1,0-0.2c0-2.2-1.4-4.1-3.4-4.7l2.6-4.6c0,0,0-0.1,0.1-0.1l0.3-0.6l0,0c0.3-0.6,0.5-1.3,0.5-2c0,0,0,0,0-0.1h0V54.2
		h0l0,0c0-2.5-1.4-4.9-4.3-5c-1.6-0.1-6.3-0.2-6.7-0.2v6.7c0.4,0,0.9,0,1.2,0C124,55.6,125.7,55.7,127.1,55.8z M122.8,82.6
		L122.8,82.6L122.8,82.6L122.8,82.6z"/>
	<linearGradient id="SVGID_12_" gradientUnits="userSpaceOnUse" x1="75.3683" y1="50.2387" x2="75.3683" y2="198.1191">
		<stop  offset="0" style="stop-color:#424894"/>
		<stop  offset="0.1925" style="stop-color:#4A4897"/>
		<stop  offset="0.4831" style="stop-color:#5E499D"/>
		<stop  offset="0.5031" style="stop-color:#60499E"/>
		<stop  offset="0.5738" style="stop-color:#5B499C"/>
		<stop  offset="1" style="stop-color:#424894"/>
	</linearGradient>
	<path fill="url(#SVGID_12_)" d="M79.3,126.2c-0.1,0-6.2,0-6.2,0v6.7h4.4l0,42.2c-1.5-1.4-2.9-2.8-4.3-4.4v-35.2h-6.7l0,33.8
		c0,0,0-1,0,1.4c0,3.1,1.6,4.4,2.1,4.9c0.5,0.5,9.6,8.9,9.6,8.9c0.5,0.5,1.3,0.6,2,0.6c2.2,0,4-1.7,4-3.9h0v-0.1c0,0,0,0,0,0
		c0,0,0,0,0,0l0-49.8c0,0,0,0,0,0C84.2,128.4,82,126.2,79.3,126.2z"/>
	<linearGradient id="SVGID_13_" gradientUnits="userSpaceOnUse" x1="154.217" y1="50.2383" x2="154.217" y2="198.1192">
		<stop  offset="0" style="stop-color:#424894"/>
		<stop  offset="0.1925" style="stop-color:#4A4897"/>
		<stop  offset="0.4831" style="stop-color:#5E499D"/>
		<stop  offset="0.5031" style="stop-color:#60499E"/>
		<stop  offset="0.5738" style="stop-color:#5B499C"/>
		<stop  offset="1" style="stop-color:#424894"/>
	</linearGradient>
	<path fill="url(#SVGID_13_)" d="M163,117h-10.9V61.6c1.4,0.6,2.9,1.3,4.3,2.1v22.5c2.3,1,4.5,2.2,6.7,3.4V63.8c0-0.1,0-0.1,0-0.2
		c0-2.9-1.8-5.2-4.4-6.2c-2.3-1.2-4.7-2.3-7.2-3.2c-0.2-0.1-0.4-0.2-0.7-0.3c-0.1,0-0.1-0.1-0.2-0.1l0,0c-0.3-0.1-0.7-0.1-1-0.1
		c-2.3,0-4.2,2-4.2,4.3c0,0,0,0.1,0,0.1v60.5h0c0,0.1,0,0.1,0,0.2c0,2.8,2.2,5,5,5c0.1,0,0.1,0,0.2,0H163V117z"/>
	<linearGradient id="SVGID_14_" gradientUnits="userSpaceOnUse" x1="174.4374" y1="50.2382" x2="174.4374" y2="198.1193">
		<stop  offset="0" style="stop-color:#424894"/>
		<stop  offset="0.1925" style="stop-color:#4A4897"/>
		<stop  offset="0.4831" style="stop-color:#5E499D"/>
		<stop  offset="0.5031" style="stop-color:#60499E"/>
		<stop  offset="0.5738" style="stop-color:#5B499C"/>
		<stop  offset="1" style="stop-color:#424894"/>
	</linearGradient>
	<path fill="url(#SVGID_14_)" d="M172.3,108.8c1.5,1.4,2.9,3,4.2,4.5v10.4h6.7v-10.2c0,0,0,0,0-0.1c0,0,0,0,0,0v0h0
		c0-2-0.9-3.7-2.2-5c-1.2-1.3-2.4-2.6-3.6-3.9l5.5-10.1c0,0,0.3-0.5,0.3-1.5c0-1,0-15.4,0-15.4c-2.1-2.6-4.3-5-6.7-7.3v22.4
		l-4.2,7.4c0,0,0,0,0,0V66.3c-2.1-1.8-4.4-3.4-6.7-4.9v62.3h6.7V108.8z"/>
	<linearGradient id="SVGID_15_" gradientUnits="userSpaceOnUse" x1="60.6501" y1="50.2387" x2="60.6501" y2="198.1185">
		<stop  offset="0" style="stop-color:#424894"/>
		<stop  offset="0.1925" style="stop-color:#4A4897"/>
		<stop  offset="0.4831" style="stop-color:#5E499D"/>
		<stop  offset="0.5031" style="stop-color:#60499E"/>
		<stop  offset="0.5738" style="stop-color:#5B499C"/>
		<stop  offset="1" style="stop-color:#424894"/>
	</linearGradient>
	<path fill="url(#SVGID_15_)" d="M70.5,126.2H50.8v6.7h6.4v26.5c1.9,3.8,4.2,7.3,6.7,10.7v-37.1h6.5V126.2z"/>
	<linearGradient id="SVGID_16_" gradientUnits="userSpaceOnUse" x1="97.1847" y1="50.2387" x2="97.1847" y2="198.1189">
		<stop  offset="0" style="stop-color:#424894"/>
		<stop  offset="0.1925" style="stop-color:#4A4897"/>
		<stop  offset="0.4831" style="stop-color:#5E499D"/>
		<stop  offset="0.5031" style="stop-color:#60499E"/>
		<stop  offset="0.5738" style="stop-color:#5B499C"/>
		<stop  offset="1" style="stop-color:#424894"/>
	</linearGradient>
	<path fill="url(#SVGID_16_)" d="M100.7,126.2l-3.6,6.2l-3.6-6.2v0l-6.8,0v64c2.2,1.3,4.5,2.4,6.8,3.4l0-54l3.6,6.2l3.6-6.2v56.7
		c2.2,0.7,4.5,1.4,6.8,1.9v-72.1L100.7,126.2L100.7,126.2z"/>
	<linearGradient id="SVGID_17_" gradientUnits="userSpaceOnUse" x1="178.0141" y1="50.2388" x2="178.0141" y2="198.1194">
		<stop  offset="0" style="stop-color:#424894"/>
		<stop  offset="0.1925" style="stop-color:#4A4897"/>
		<stop  offset="0.4831" style="stop-color:#5E499D"/>
		<stop  offset="0.5031" style="stop-color:#60499E"/>
		<stop  offset="0.5738" style="stop-color:#5B499C"/>
		<stop  offset="1" style="stop-color:#424894"/>
	</linearGradient>
	<path fill="url(#SVGID_17_)" d="M177.6,126.2l-6.7,0v57.7c5.4-4.1,10.1-9.2,14.1-14.5v-12.7c-2.1,3.9-4.6,7.8-7.4,11.2L177.6,126.2
		z"/>
	<linearGradient id="SVGID_18_" gradientUnits="userSpaceOnUse" x1="189.0182" y1="50.2386" x2="189.0182" y2="198.1188">
		<stop  offset="0" style="stop-color:#424894"/>
		<stop  offset="0.1925" style="stop-color:#4A4897"/>
		<stop  offset="0.4831" style="stop-color:#5E499D"/>
		<stop  offset="0.5031" style="stop-color:#60499E"/>
		<stop  offset="0.5738" style="stop-color:#5B499C"/>
		<stop  offset="1" style="stop-color:#424894"/>
	</linearGradient>
	<path fill="url(#SVGID_18_)" d="M197.8,141.5l0-10.1h0c0-0.1,0-0.2,0-0.3c0-2.7-2.2-4.9-4.9-4.9c-0.1,0-0.1,0-0.2,0l-7.5,0v0
		c-0.1,0-0.1,0-0.1,0c-2.7,0-4.9,2.2-4.9,4.9c0,0.1,0,0.1,0,0.2h0v2.2l0,0l0,27.3c2.7-4.2,5-8.8,6.7-13.5v-14.3l4.2,0l0,7.8
		c-0.9,3.6-2.1,7.1-3.5,10.5v14.3c3.9-6,6.9-12.5,9-19.4h0c0.1-0.2,0.1-0.4,0.2-0.6C197.2,144.2,197.5,142.9,197.8,141.5
		C197.8,141.6,197.8,141.6,197.8,141.5L197.8,141.5C197.8,141.6,197.8,141.6,197.8,141.5L197.8,141.5z"/>
	<linearGradient id="SVGID_19_" gradientUnits="userSpaceOnUse" x1="95.6665" y1="50.238" x2="95.6665" y2="198.1194">
		<stop  offset="0" style="stop-color:#424894"/>
		<stop  offset="0.1925" style="stop-color:#4A4897"/>
		<stop  offset="0.4831" style="stop-color:#5E499D"/>
		<stop  offset="0.5031" style="stop-color:#60499E"/>
		<stop  offset="0.5738" style="stop-color:#5B499C"/>
		<stop  offset="1" style="stop-color:#424894"/>
	</linearGradient>
	<path fill="url(#SVGID_19_)" d="M86.9,95.3L86.9,95.3l0,23.2c0,0.1,0,0.2,0,0.3c0,2.8,2.3,5,5,5c0,0,0.1,0,0.1,0h12.5v0h0
		c0,0,0-66.8,0-66.8c0-2.1-2.1-4.6-4.7-3.8c-2.6,0.9-8.4,3.3-10.2,4.4c-1.8,1.1-2.7,2.8-2.7,4.8c0,0.1,0,26.8,0,26.8
		c2.2-1.2,4.4-2.4,6.7-3.4V63c1.4-0.7,2.9-1.4,4.3-2v26.3c-3,1.1-5.9,2.4-8.7,3.9l0,0C87.8,92.1,86.9,93.6,86.9,95.3z M93.5,96.5
		c1.4-0.7,2.9-1.4,4.4-2V117h-4.4V96.5z"/>
	<linearGradient id="SVGID_20_" gradientUnits="userSpaceOnUse" x1="75.4461" y1="50.2382" x2="75.4461" y2="198.1192">
		<stop  offset="0" style="stop-color:#424894"/>
		<stop  offset="0.1925" style="stop-color:#4A4897"/>
		<stop  offset="0.4831" style="stop-color:#5E499D"/>
		<stop  offset="0.5031" style="stop-color:#60499E"/>
		<stop  offset="0.5738" style="stop-color:#5B499C"/>
		<stop  offset="1" style="stop-color:#424894"/>
	</linearGradient>
	<path fill="url(#SVGID_20_)" d="M80.5,64c-0.8,0-1.6,0.3-2.3,0.8C74,68,66.6,75.9,66.6,75.9v47.9h6.7v-11.9
		c2.6-2.9,5.5-5.6,8.6-8.1l0,0c1.4-1.2,2.2-2.8,2.3-4.8h0v-0.2c0,0,0-0.1,0-0.1c0,0,0-30.9,0-31C84.3,65.7,82.6,64,80.5,64z
		 M77.6,98.8c-1.5,1.2-2.9,2.4-4.3,3.7V78.3c1.4-1.5,2.8-2.9,4.3-4.3V98.8z"/>
</g>
</svg>
