<?xml version="1.0" encoding="utf-8"?>
<!-- Generator: Adobe Illustrator 18.1.1, SVG Export Plug-In . SVG Version: 6.00 Build 0)  -->
<!DOCTYPE svg PUBLIC "-//W3C//DTD SVG 1.1//EN" "http://www.w3.org/Graphics/SVG/1.1/DTD/svg11.dtd">
<svg version="1.1" id="Layer_1" xmlns="http://www.w3.org/2000/svg" xmlns:xlink="http://www.w3.org/1999/xlink" x="0px" y="0px"
	 viewBox="0 0 250 250" enable-background="new 0 0 250 250" xml:space="preserve">
<g>
	<path fill="#FDBF30" d="M125,0C56.1,0,0,56.1,0,125c0,68.9,56.1,125,125,125c68.9,0,125-56.1,125-125C250,56.1,193.9,0,125,0z"/>
</g>
<path fill="#A93E26" d="M124.9,16.8C65.3,16.8,16.8,65.3,16.8,125c0,59.6,48.5,108.1,108.1,108.1c59.6,0,108.1-48.5,108.1-108.1
	C233,65.3,184.5,16.8,124.9,16.8z"/>
<g>
	<polygon fill="#FDBF30" points="124.8,44.1 138.6,47.6 152.8,49 164.6,57 177.5,63 185.7,74.5 195.8,84.5 199.6,98.1 205.5,110.8 
		204.3,124.9 205.5,138.9 199.6,151.7 195.8,165.3 185.7,175.3 177.5,186.7 164.6,192.8 152.8,200.8 138.6,202.1 124.8,205.6 
		111,202.1 96.8,200.8 85,192.8 72.1,186.7 63.8,175.3 53.8,165.3 50,151.7 44.1,138.9 45.2,124.9 44.1,110.8 50,98.1 53.8,84.5 
		63.8,74.5 72.1,63 85,57 96.8,49 111,47.6 	"/>
</g>
<path fill="#FDBF30" d="M225,125.6c0,3.6-2.9,6.5-6.5,6.5c-3.6,0-6.5-2.9-6.5-6.5c0-3.6,2.9-6.5,6.5-6.5
	C222.1,119.1,225,122,225,125.6z"/>
<path fill="#FDBF30" d="M37.5,125.6c0,3.6-2.9,6.5-6.5,6.5c-3.6,0-6.5-2.9-6.5-6.5c0-3.6,2.9-6.5,6.5-6.5
	C34.6,119.1,37.5,122,37.5,125.6z"/>
<path fill="#504894" d="M68.3,175.2C68.3,175.2,68.3,175.2,68.3,175.2C68.3,175.2,68.3,175.2,68.3,175.2z"/>
<path fill="#504894" d="M68.6,175.5c-0.1-0.1-0.3-0.2-0.3-0.3C68.4,175.3,68.5,175.4,68.6,175.5z"/>
<g>
	<path fill="#424894" d="M125,240c-63.4,0-115-51.6-115-115C10,61.6,61.6,10,125,10s115,51.6,115,115C240,188.4,188.4,240,125,240z
		 M125,14C63.8,14,14,63.8,14,125c0,61.2,49.8,111,111,111s111-49.8,111-111C236,63.8,186.2,14,125,14z"/>
</g>
<g>
	<path fill="#424894" d="M168.4,126.2h-6.7v56.2c-1.4,0.9-2.8,1.7-4.2,2.5v-58.7h-6.7l0,63h0c0,0,0,0.1,0,0.1c0,2.2,1.8,4,4,4
		c0.5,0,1-0.1,1.4-0.3l0,0c0,0,0.1,0,0.1-0.1c0.1,0,0.1-0.1,0.2-0.1c2.7-1.3,5.4-2.8,8-4.4c0.4-0.2,0.7-0.4,1-0.6c0,0,0.1,0,0.1-0.1
		l0,0c1.6-1.2,2.7-3.1,2.8-5.3h0v-0.2c0-0.1,0-0.1,0-0.2c0-0.1,0-0.1,0-0.2L168.4,126.2z"/>
	<path fill="#424894" d="M148.2,163.6c0-2.4-2-4.3-4.4-4.3c-0.3,0-0.7,0.1-1,0.1l0-0.1l-5.5,1.2l0-28.1l4.1,0l0,23.6l0,0
		c2.3-0.5,4.5-1.1,6.7-1.9l0,0c0,0,0-22.9,0-23c0-2.7-2.2-4.9-4.9-4.9c-0.1,0-7.7,0-7.8,0c-2.7,0-4.9,2.2-4.9,4.9h0l0,32.3
		c0,0,0,0,0,0c0,2.4,2,4.3,4.4,4.3c0.1,0,0.2,0,0.3,0v0l0.2,0c0.3,0,0.5-0.1,0.8-0.2l5.2-1.1l0,24.8c-3.6,0.9-7.2,1.5-10.9,1.9v6.7
		c4.4-0.4,8.7-1.1,12.9-2.2c2.6-0.4,4.7-2.6,4.7-5.3c0-0.1,0-0.1,0-0.1h0v-28.4h0C148.2,163.6,148.2,163.6,148.2,163.6z"/>
	<path fill="#424894" d="M127.7,130.9c-0.1-2.6-2.2-4.8-4.9-4.8c-0.4,0-1,0-1.5,0l-2.2,0c-1.4,0-2.8,0-4,0c-2.7,0-4.9,2.2-4.9,4.9
		c0,0.1,0,0,0,0s0,25.4,0,25.4c2.2,0.5,4.5,0.8,6.7,1.1l0-24.6l4.1,0v28.8c-2.1-0.1-4.3-0.3-6.4-0.5c-0.1,0-0.2,0-0.3,0
		c-2.3,0-4.2,1.8-4.2,4.2c0,0.1,0,29.2,0,29.2c0,0,0,0.1,0,0.1c0,2.3,1.2,4.5,4.9,4.9c2,0.2,5.9,0.5,5.9,0.5c1.1,0,2.2,0.1,3.3,0.1
		c1.2,0,2.3,0,3.4-0.1L127.7,130.9z M121,193.3c-1.4-0.1-2.8-0.2-4.1-0.3v-24.9c1.4,0.1,2.7,0.2,4.1,0.3V193.3z"/>
	<path fill="#424894" d="M113.7,56.6c2.3-0.4,4.5-0.6,6.6-0.7v-6.7c-3.9,0.2-8.6,0.8-13.3,1.9l0,0.1v72.6h6.7V56.6z"/>
	<path fill="#424894" d="M143,51.4c-2.2-0.6-4.4-1-6.7-1.4v73.7h6.7V51.4z"/>
	<path fill="#424894" d="M127.1,55.8v19.4l-4.3,7.4V58.3c-2.2,0-4.5,0.2-6.7,0.4v65.1h6.7V89.3l1.5-0.1l2.8,0.1v34.4h6.7V87.9
		c0-0.1,0-0.1,0-0.2c0-2.2-1.4-4.1-3.4-4.7l2.6-4.6c0,0,0-0.1,0.1-0.1l0.3-0.6l0,0c0.3-0.6,0.5-1.3,0.5-2c0,0,0,0,0-0.1h0V54.2h0
		l0,0c0-2.5-1.4-4.9-4.3-5c-1.6-0.1-6.3-0.2-6.7-0.2v6.7c0.4,0,0.9,0,1.2,0C124,55.6,125.7,55.7,127.1,55.8z M122.8,82.6L122.8,82.6
		L122.8,82.6L122.8,82.6z"/>
	<path fill="#424894" d="M79.3,126.2c-0.1,0-6.2,0-6.2,0v6.7h4.4l0,42.2c-1.5-1.4-2.9-2.8-4.3-4.4v-35.2h-6.7l0,33.8c0,0,0-1,0,1.4
		c0,3.1,1.6,4.4,2.1,4.9c0.5,0.5,9.6,8.9,9.6,8.9c0.5,0.5,1.3,0.6,2,0.6c2.2,0,4-1.7,4-3.9h0v-0.1c0,0,0,0,0,0c0,0,0,0,0,0l0-49.8
		c0,0,0,0,0,0C84.2,128.4,82,126.2,79.3,126.2z"/>
	<path fill="#424894" d="M163,117h-10.9V61.6c1.4,0.6,2.9,1.3,4.3,2.1v22.5c2.3,1,4.5,2.2,6.7,3.4V63.8c0-0.1,0-0.1,0-0.2
		c0-2.9-1.8-5.2-4.4-6.2c-2.3-1.2-4.7-2.3-7.2-3.2c-0.2-0.1-0.4-0.2-0.7-0.3c-0.1,0-0.1-0.1-0.2-0.1l0,0c-0.3-0.1-0.7-0.1-1-0.1
		c-2.3,0-4.2,2-4.2,4.3c0,0,0,0.1,0,0.1v60.5h0c0,0.1,0,0.1,0,0.2c0,2.8,2.2,5,5,5c0.1,0,0.1,0,0.2,0H163V117z"/>
	<path fill="#424894" d="M172.3,108.8c1.5,1.4,2.9,3,4.2,4.5v10.4h6.7v-10.2c0,0,0,0,0-0.1c0,0,0,0,0,0v0h0c0-2-0.9-3.7-2.2-5
		c-1.2-1.3-2.4-2.6-3.6-3.9l5.5-10.1c0,0,0.3-0.5,0.3-1.5c0-1,0-15.4,0-15.4c-2.1-2.6-4.3-5-6.7-7.3v22.4l-4.2,7.4c0,0,0,0,0,0V66.3
		c-2.1-1.8-4.4-3.4-6.7-4.9v62.3h6.7V108.8z"/>
	<path fill="#424894" d="M70.5,126.2H50.8v6.7h6.4v26.5c1.9,3.8,4.2,7.3,6.7,10.7v-37.1h6.5V126.2z"/>
	<path fill="#424894" d="M100.7,126.2l-3.6,6.2l-3.6-6.2v0l-6.8,0v64c2.2,1.3,4.5,2.4,6.8,3.4l0-54l3.6,6.2l3.6-6.2v56.7
		c2.2,0.7,4.5,1.4,6.8,1.9v-72.1L100.7,126.2L100.7,126.2z"/>
	<path fill="#424894" d="M177.6,126.2l-6.7,0v57.7c5.4-4.1,10.1-9.2,14.1-14.5v-12.7c-2.1,3.9-4.6,7.8-7.4,11.2L177.6,126.2z"/>
	<path fill="#424894" d="M197.8,141.5l0-10.1h0c0-0.1,0-0.2,0-0.3c0-2.7-2.2-4.9-4.9-4.9c-0.1,0-0.1,0-0.2,0l-7.5,0v0
		c-0.1,0-0.1,0-0.1,0c-2.7,0-4.9,2.2-4.9,4.9c0,0.1,0,0.1,0,0.2h0v2.2l0,0l0,27.3c2.7-4.2,5-8.8,6.7-13.5v-14.3l4.2,0l0,7.8
		c-0.9,3.6-2.1,7.1-3.5,10.5v14.3c3.9-6,6.9-12.5,9-19.4h0c0.1-0.2,0.1-0.4,0.2-0.6C197.2,144.2,197.5,142.9,197.8,141.5
		C197.8,141.6,197.8,141.6,197.8,141.5L197.8,141.5C197.8,141.6,197.8,141.6,197.8,141.5L197.8,141.5z"/>
	<path fill="#424894" d="M86.9,95.3L86.9,95.3l0,23.2c0,0.1,0,0.2,0,0.3c0,2.8,2.3,5,5,5c0,0,0.1,0,0.1,0h12.5v0h0
		c0,0,0-66.8,0-66.8c0-2.1-2.1-4.6-4.7-3.8c-2.6,0.9-8.4,3.3-10.2,4.4c-1.8,1.1-2.7,2.8-2.7,4.8c0,0.1,0,26.8,0,26.8
		c2.2-1.2,4.4-2.4,6.7-3.4V63c1.4-0.7,2.9-1.4,4.3-2v26.3c-3,1.1-5.9,2.4-8.7,3.9l0,0C87.8,92.1,86.9,93.6,86.9,95.3z M93.5,96.5
		c1.4-0.7,2.9-1.4,4.4-2V117h-4.4V96.5z"/>
	<path fill="#424894" d="M80.5,64c-0.8,0-1.6,0.3-2.3,0.8C74,68,66.6,75.9,66.6,75.9v47.9h6.7v-11.9c2.6-2.9,5.5-5.6,8.6-8.1l0,0
		c1.4-1.2,2.2-2.8,2.3-4.8h0v-0.2c0,0,0-0.1,0-0.1c0,0,0-30.9,0-31C84.3,65.7,82.6,64,80.5,64z M77.6,98.8c-1.5,1.2-2.9,2.4-4.3,3.7
		V78.3c1.4-1.5,2.8-2.9,4.3-4.3V98.8z"/>
</g>
</svg>
